<svg xmlns="http://www.w3.org/2000/svg" viewBox="0 0 550 250"><defs><style>.cls-1{fill:#fce001;}.cls-2{fill:#fde758;}.cls-3{fill:#fff;stroke:#ff0;stroke-miterlimit:10;stroke-width:3px;}</style></defs><title>Booble</title><g id="Ken"><path class="cls-1" d="M12.82-113.6c9,9.16,3.3,54.14-28.5,100.37-30.8,45.7-87.71,92.63-158,93.66-70.19,4-130.71-38.4-165.62-81-35.9-43.08-46.2-86.3-39-95.14,8.17-11.17,32.36,8.16,67.31,25.8,34.9,18.22,80.56,34.75,130.67,31.28,50.2-2.48,93.65-24,126.81-45.2C-20.26-104.54,2.68-125,12.82-113.6Z"/><path class="cls-1" d="M12.82-113.6c9,9.16,3.3,54.14-28.5,100.37-30.8,45.7-87.71,92.63-158,93.66-70.19,4-130.71-38.4-165.62-81-35.9-43.08-46.2-86.3-39-95.14,8.17-11.17,32.36,8.16,67.31,25.8,34.9,18.22,80.56,34.75,130.67,31.28,50.2-2.48,93.65-24,126.81-45.2C-20.26-104.54,2.68-125,12.82-113.6Z"/><path class="cls-2" d="M-177.07,33.67c73-1.16,132.26-48.2,164.35-94a203.79,203.79,0,0,0,27-51.27,9.27,9.27,0,0,0-1.46-2C2.68-125-20.26-104.54-53.47-83.83c-33.16,21.23-76.61,42.72-126.81,45.2C-230.39-35.16-276-51.69-310.95-69.91c-34.95-17.64-59.14-37-67.31-25.8a8.23,8.23,0,0,0-1.43,2.94A215.18,215.18,0,0,0-349-47C-312.84-4.51-250,37.84-177.07,33.67Z"/></g><g id="Booble"><ellipse class="cls-3" cx="252.16" cy="111.61" rx="225.16" ry="85.38"/><path class="cls-3" d="M474.08,127.33s-5.21,44,41.64,31.43c40.19-10.78-4.62,9.86-21.51,18.63a14.21,14.21,0,0,1-9.24,1.23,4.89,4.89,0,0,0-.78-.1l-70-8.24"/><path d="M172.29,43.46,169,54.59c-.43,1.11-1,3-1.67,5.57V70.81h-2.45V60.16a18.72,18.72,0,0,0-.75-2.81c-.57-1.69-.87-2.61-.92-2.76l-3.34-11.13V43.3h2.48l3.78,13.76,3.74-13.76h2.46Z"/><path d="M184.83,68.82a1.76,1.76,0,0,1-2,2H177a1.75,1.75,0,0,1-2-2V55.69a1.75,1.75,0,0,1,2-2h5.87a1.75,1.75,0,0,1,2,2Zm-2.34-.07v-13h-5.15v13Z"/><path d="M198.43,70.81h-2.3v-.47l-2.79.37a23.55,23.55,0,0,1-2.8.21,1.68,1.68,0,0,1-1.9-1.9V53.71H191v15l5.18-.14V53.71h2.3Z"/><path d="M221.29,70.81h-2.57L213.6,56.08l.34-.49h4.36V45.46H212V70.81h-2.44V43.3h9.21a1.87,1.87,0,0,1,2,2V55.69c0,1.33-.89,2-2.67,2l-.78,0-.73,0Q218.93,64.2,221.29,70.81Z"/><path d="M234.49,68.82a1.76,1.76,0,0,1-2,2h-5.87a1.75,1.75,0,0,1-2-2V55.69a1.75,1.75,0,0,1,2-2h5.87a1.76,1.76,0,0,1,2,2Zm-2.34-.07v-13H227v13Z"/><path d="M247.79,68.82a1.75,1.75,0,0,1-2,2h-5.55a1.75,1.75,0,0,1-2-2V55.69a1.75,1.75,0,0,1,2-2h5.55a1.74,1.74,0,0,1,2,2V59.1h-2.3V55.76h-4.85v13h4.85V64.94h2.3Z"/><path d="M261.19,70.81h-2.55l-4.71-8.72v8.72h-2.34V43.3h2.34V60.77l4.39-7.06h2.52v.07l-5,7.56Z"/><path d="M266.06,70.81h-2.68V67.72h2.68Z"/><path d="M86.29,114H83.84V86.5h2.45Z"/><path d="M107.78,114h-2.33V99l-5.1.14V114H98V99l-5.1.14V114H90.59V96.91h2.34v.47L95.67,97a23.11,23.11,0,0,1,2.76-.21,1.89,1.89,0,0,1,1.58.65l2.94-.4a23.7,23.7,0,0,1,2.9-.25,1.7,1.7,0,0,1,1.93,1.92Z"/><path d="M128.35,118.51a1.76,1.76,0,0,1-2,2h-5.55c-1.35,0-2-.84-2-2.52,0-.2,0-.49,0-.88s0-.68,0-.86h2.3v2.27H126V114h-3.85a3.5,3.5,0,0,1-2.6-1.05,3.57,3.57,0,0,1-1-2.62v-10a3.64,3.64,0,0,1,.92-2.52,3.08,3.08,0,0,1,2.4-1c.27,0,1.66.2,4.17.58v-.47h2.32ZM126,112V99c-1.85-.11-2.93-.17-3.24-.17a1.72,1.72,0,0,0-1.93,2V110a1.72,1.72,0,0,0,1.93,2Z"/><path d="M142,112a1.76,1.76,0,0,1-2,2h-5.87a1.75,1.75,0,0,1-2-2V98.89a1.75,1.75,0,0,1,2-2H140a1.76,1.76,0,0,1,2,2Zm-2.34-.07V99h-5.15v13Z"/><path d="M155.67,114h-2.34V99l-5.15.14V114h-2.34V96.91h2.34v.47l2.76-.37a23.26,23.26,0,0,1,2.77-.21,1.71,1.71,0,0,1,2,1.92Z"/><path d="M169.27,114h-2.34V99l-5.15.14V114h-2.33V96.91h2.33v.47l2.76-.37a23.4,23.4,0,0,1,2.78-.21,1.71,1.71,0,0,1,2,1.92Z"/><path d="M182.72,114h-2.3v-.47l-2.78.37a24,24,0,0,1-2.76.21,1.69,1.69,0,0,1-1.92-1.9V106a1.75,1.75,0,0,1,2-2h5.5V98.86h-5v2.92h-2.26V98.89a1.74,1.74,0,0,1,2-2h5.62a1.75,1.75,0,0,1,2,2Zm-2.27-2.13v-6h-5.22V112Z"/><path d="M203.43,110.34a3.57,3.57,0,0,1-1,2.62,3.5,3.5,0,0,1-2.6,1.05h-3.85v6.49H193.6V96.91h2.34v.47l2.77-.35a23.58,23.58,0,0,1,2.76-.23,1.71,1.71,0,0,1,2,1.92Zm-2.34-.35V99l-5.15.14V112h3.23A1.71,1.71,0,0,0,201.09,110Z"/><path d="M216.84,114h-2.3v-.47l-2.78.37a24,24,0,0,1-2.76.21,1.69,1.69,0,0,1-1.92-1.9V106a1.75,1.75,0,0,1,2-2h5.5V98.86h-5v2.92h-2.26V98.89a1.74,1.74,0,0,1,2-2h5.63a1.75,1.75,0,0,1,2,2Zm-2.27-2.13v-6h-5.22V112Z"/><path d="M230.39,114h-2.32v-.47c-2.51.38-3.9.58-4.17.58a3.1,3.1,0,0,1-2.4-1,3.65,3.65,0,0,1-.92-2.53v-10a3.6,3.6,0,0,1,1-2.63,3.54,3.54,0,0,1,2.6-1h3.85V86.5h2.32Zm-2.32-2.13V99h-3.23a1.74,1.74,0,0,0-1.94,2v9.14a1.73,1.73,0,0,0,1.94,2C225.14,112.06,226.22,112,228.07,111.88Z"/><path d="M244,114h-2.32v-.47c-2.51.38-3.9.58-4.17.58a3.1,3.1,0,0,1-2.4-1,3.65,3.65,0,0,1-.92-2.53v-10a3.6,3.6,0,0,1,1-2.63,3.54,3.54,0,0,1,2.6-1h3.85V86.5H244Zm-2.32-2.13V99h-3.23a1.74,1.74,0,0,0-1.94,2v9.14a1.73,1.73,0,0,0,1.94,2C238.71,112.06,239.79,112,241.64,111.88Z"/><path d="M250.25,114H248V86.5h2.3Z"/><path d="M263.79,112a1.75,1.75,0,0,1-2,2H256.2a1.75,1.75,0,0,1-2-2V98.89a1.74,1.74,0,0,1,2-2h5.62a1.75,1.75,0,0,1,2,2v6.16l-.79.82h-6.51v6.19h5v-3.13h2.27Zm-2.27-8V98.86h-5V104Z"/><path d="M280.86,114h-3.32a1.75,1.75,0,0,1-2-2V99h-2.06v-2h2.06V91.58h2.3v5.33h3v2h-3v13h3Z"/><path d="M293.67,112a1.75,1.75,0,0,1-2,2h-5.88a1.74,1.74,0,0,1-2-2V98.89a1.74,1.74,0,0,1,2-2h5.88a1.75,1.75,0,0,1,2,2Zm-2.34-.07V99h-5.15v13Z"/><path d="M316.33,114h-2.44V100.79h-6.63V114h-2.44V86.5h2.44V98.59h6.63V86.5h2.44Z"/><path d="M330.11,114h-2.3v-.47l-2.78.37a24,24,0,0,1-2.76.21,1.68,1.68,0,0,1-1.91-1.9V106a1.75,1.75,0,0,1,2-2h5.5V98.86h-5v2.92h-2.27V98.89a1.75,1.75,0,0,1,2-2h5.62a1.74,1.74,0,0,1,2,2Zm-2.27-2.13v-6h-5.22V112Z"/><path d="M349.24,96.91l-3.54,17.14h-2.09l-2.51-13-2.52,13h-2.05L333,96.91h2.2l2.41,13.18,2.5-13.18h2l2.5,13.18L347,96.91Z"/><path d="M361.79,114h-2.31v-.47l-2.77.37a24,24,0,0,1-2.76.21,1.69,1.69,0,0,1-1.92-1.9V106a1.75,1.75,0,0,1,2-2h5.5V98.86h-5v2.92h-2.27V98.89a1.75,1.75,0,0,1,2-2h5.63a1.75,1.75,0,0,1,2,2Zm-2.27-2.13v-6H354.3V112Z"/><path d="M368.1,93.16h-2.38v-3h2.38Zm0,20.85h-2.3V96.91h2.3Z"/><path d="M374.51,93.16h-2.37v-3h2.37Zm0,20.85h-2.3V96.91h2.3Z"/><path d="M380.86,114h-2.67v-3.09h2.67Z"/><path d="M92.56,131.86H86.14V142.3h5.91v2.2H86.14v12.71H83.7V129.7h8.86Z"/><path d="M105.22,155.22a1.75,1.75,0,0,1-2,2H97.62a1.75,1.75,0,0,1-2-2V142.09a1.75,1.75,0,0,1,2-2h5.63a1.75,1.75,0,0,1,2,2v6.16l-.79.82H97.92v6.19h5v-3.13h2.27Zm-2.27-8v-5.15h-5v5.15Z"/><path d="M118.65,155.22a1.75,1.75,0,0,1-2,2h-5.63a1.75,1.75,0,0,1-2-2V142.09a1.75,1.75,0,0,1,2-2h5.63a1.75,1.75,0,0,1,2,2v6.16l-.79.82h-6.51v6.19h5v-3.13h2.27Zm-2.27-8v-5.15h-5v5.15Z"/><path d="M125,157.21h-2.31V129.7H125Z"/><path d="M142.45,131.76h-3.31v8.35h2.92v2h-2.92v15.05h-2.3V142.16h-2v-2h2v-8.42a1.75,1.75,0,0,1,2-2h3.64Z"/><path d="M153.49,145.73h-2.31V142.2l-4.3.14v14.87h-2.34v-17.1h2.34v.47l2.33-.37a16.44,16.44,0,0,1,2.34-.21,1.71,1.71,0,0,1,1.94,1.92Z"/><path d="M166,155.22a1.75,1.75,0,0,1-2,2h-5.62a1.75,1.75,0,0,1-2-2V142.09a1.74,1.74,0,0,1,2-2h5.62a1.75,1.75,0,0,1,2,2v6.16l-.79.82h-6.51v6.19h5v-3.13H166Zm-2.27-8v-5.15h-5v5.15Z"/><path d="M179.45,155.22a1.75,1.75,0,0,1-2,2h-5.62a1.75,1.75,0,0,1-2-2V142.09a1.74,1.74,0,0,1,2-2h5.62a1.75,1.75,0,0,1,2,2v6.16l-.79.82h-6.51v6.19h5v-3.13h2.27Zm-2.27-8v-5.15h-5v5.15Z"/><path d="M196.52,157.21H193.2a1.75,1.75,0,0,1-2-2V142.16h-2.06v-2h2.06v-5.33h2.3v5.33h3v2h-3v13h3Z"/><path d="M209.33,155.22a1.75,1.75,0,0,1-2,2h-5.88a1.74,1.74,0,0,1-2-2V142.09a1.74,1.74,0,0,1,2-2h5.88a1.75,1.75,0,0,1,2,2Zm-2.34-.07v-13h-5.15v13Z"/><path d="M239,157.21H236.6V144H230v13.22h-2.44V129.7H230v12.09h6.63V129.7H239Z"/><path d="M252.71,155.22a1.74,1.74,0,0,1-2,2h-5.63a1.75,1.75,0,0,1-2-2V142.09a1.75,1.75,0,0,1,2-2h5.63a1.74,1.74,0,0,1,2,2v6.16l-.79.82h-6.5v6.19h5v-3.13h2.26Zm-2.26-8v-5.15h-5v5.15Z"/><path d="M259,157.21h-2.31V129.7H259Z"/><path d="M272.82,153.54a3.6,3.6,0,0,1-1,2.63,3.54,3.54,0,0,1-2.6,1h-3.85v6.49H263V140.11h2.34v.47l2.77-.35a23.58,23.58,0,0,1,2.76-.23,1.71,1.71,0,0,1,1.95,1.92Zm-2.33-.35v-11l-5.15.14v12.81h3.23A1.71,1.71,0,0,0,270.49,153.19Z"/><path d="M293.37,131.86h-4.25v25.35h-2.44V131.86h-4.29V129.7h11Z"/><path d="M298.44,136.36h-2.38v-3h2.38Zm0,20.85h-2.3v-17.1h2.3Z"/><path d="M304.82,157.21h-2.31V129.7h2.31Z"/><path d="M318.51,157.21h-2.32v-.47c-2.51.38-3.9.58-4.17.58a3.08,3.08,0,0,1-2.4-1,3.65,3.65,0,0,1-.92-2.53v-10a3.6,3.6,0,0,1,1-2.63,3.54,3.54,0,0,1,2.6-1h3.85V129.7h2.32Zm-2.32-2.13V142.16H313a1.74,1.74,0,0,0-1.94,2v9.14a1.73,1.73,0,0,0,1.94,2C313.26,155.26,314.34,155.2,316.19,155.08Z"/><path d="M331.92,155.22a1.75,1.75,0,0,1-2,2h-5.62a1.75,1.75,0,0,1-2-2V142.09a1.75,1.75,0,0,1,2-2H330a1.74,1.74,0,0,1,2,2v6.16l-.79.82h-6.5v6.19h5v-3.13h2.27Zm-2.27-8v-5.15h-5v5.15Z"/><path d="M352.51,157.21H350.2v-.47l-2.77.37a24,24,0,0,1-2.76.21,1.69,1.69,0,0,1-1.92-1.9v-6.24a1.75,1.75,0,0,1,2-2h5.5v-5.15h-5V145h-2.27v-2.89a1.75,1.75,0,0,1,2-2h5.63a1.75,1.75,0,0,1,2,2Zm-2.27-2.13v-6H345v6.15Z"/><path d="M366.06,161.71a1.76,1.76,0,0,1-2,2h-5.55c-1.35,0-2-.84-2-2.52,0-.2,0-.49,0-.88s0-.68,0-.86h2.3v2.27h4.89v-4.5h-3.85a3.54,3.54,0,0,1-2.6-1,3.6,3.6,0,0,1-1-2.63v-10a3.64,3.64,0,0,1,.91-2.53,3.12,3.12,0,0,1,2.41-1c.27,0,1.66.2,4.17.58v-.47h2.32Zm-2.32-6.56V142.23c-1.85-.11-2.93-.17-3.24-.17a1.72,1.72,0,0,0-1.93,2v9.16a1.72,1.72,0,0,0,1.93,2Z"/><path d="M379.58,157.21h-2.31v-.47l-2.77.37a24,24,0,0,1-2.76.21,1.69,1.69,0,0,1-1.92-1.9v-6.24a1.75,1.75,0,0,1,2-2h5.5v-5.15h-5V145H370v-2.89a1.75,1.75,0,0,1,2-2h5.63a1.75,1.75,0,0,1,2,2Zm-2.27-2.13v-6h-5.22v6.15Z"/><path d="M385.89,136.36h-2.38v-3h2.38Zm0,20.85h-2.3v-17.1h2.3Z"/><path d="M399.65,157.21h-2.34v-15l-5.15.14v14.87h-2.34v-17.1h2.34v.47l2.76-.37a23.4,23.4,0,0,1,2.78-.21,1.71,1.71,0,0,1,1.95,1.92Z"/></g></svg>
