<?xml version="1.0" encoding="utf-8"?>
<!-- Generator: Adobe Illustrator 23.0.0, SVG Export Plug-In . SVG Version: 6.00 Build 0)  -->
<svg version="1.1" xmlns="http://www.w3.org/2000/svg" xmlns:xlink="http://www.w3.org/1999/xlink" x="0px" y="0px"
	 viewBox="0 0 1600 900" style="enable-background:new 0 0 1600 900;" xml:space="preserve">
<style type="text/css">
	.st0{fill:#286BA5;stroke:#000000;stroke-miterlimit:10;}
	.st1{fill:url(#SVGID_1_);}
	.st2{fill:#FFFFFF;}
	.st3{clip-path:url(#SVGID_3_);fill:url(#SVGID_4_);}
	.st4{clip-path:url(#SVGID_3_);fill:url(#SVGID_5_);}
	.st5{fill:#070707;}
	.st6{clip-path:url(#SVGID_7_);}
	.st7{fill:#46A147;}
	.st8{fill:url(#SVGID_8_);}
	.st9{opacity:0.16;}
	.st10{fill:url(#SVGID_9_);}
	.st11{fill:#47631C;}
	.st12{fill:#597A2B;}
	.st13{fill:#3D5416;}
	.st14{fill:#334215;}
	.st15{fill:url(#SVGID_10_);}
	.st16{fill:#5F5F5F;}
	.st17{fill:#484848;}
	.st18{fill:#212121;}
	.st19{fill:#303030;}
	.st20{fill:#393939;}
	.st21{fill:#282828;}
	.st22{fill:#202020;}
	.st23{fill:none;stroke:#000000;stroke-miterlimit:10;}
	.st24{fill:#286BA5;}
	.st25{fill:#286BA5;stroke:#000000;stroke-width:8;stroke-linecap:round;stroke-miterlimit:10;}
	.st26{stroke:#FFFF00;stroke-width:3;stroke-miterlimit:10;}
	.st27{fill:#FCE001;}
	.st28{fill:#301C00;}
	.st29{fill:#FDE758;}
	.st30{fill:url(#SVGID_11_);}
	.st31{fill:url(#SVGID_12_);}
	.st32{fill:#F29667;}
	.st33{fill:#FBAC7B;}
	.st34{fill:#EF9462;}
	.st35{stroke:#000000;stroke-miterlimit:10;}
	.st36{fill:#FEAA7B;}
	.st37{fill:#F29465;}
	.st38{fill:#F40B16;}
	.st39{display:none;}
	.st40{display:inline;}
	.st41{fill:#FFFFFF;stroke:#FFFF00;stroke-width:3;stroke-miterlimit:10;}
	.st42{fill:#D82A36;stroke:#A30D0D;stroke-miterlimit:10;}
	.st43{fill:#93292D;stroke:#A30D0D;stroke-miterlimit:10;}
</style>
<g id="Background">
</g>
<g id="SKY">
</g>
<g id="Hill_and_lake">
	<g>
		<defs>
			<rect id="SVGID_2_" x="1622" y="-1" width="1600" height="900"/>
		</defs>
		<clipPath id="SVGID_1_">
			<use xlink:href="#SVGID_2_"  style="overflow:visible;"/>
		</clipPath>

			<linearGradient id="SVGID_3_" gradientUnits="userSpaceOnUse" x1="1954.418" y1="1313.6024" x2="2961.418" y2="1313.6024" gradientTransform="matrix(1.1518 0.2493 0.3985 -1.841 -1652.8784 2529.1841)">
			<stop  offset="0" style="stop-color:#D1BDB2"/>
			<stop  offset="0.0466" style="stop-color:#B7A38D"/>
			<stop  offset="0.1301" style="stop-color:#8D7951"/>
			<stop  offset="0.2011" style="stop-color:#6F5A25"/>
			<stop  offset="0.2561" style="stop-color:#5C470A"/>
			<stop  offset="0.2884" style="stop-color:#554000"/>
			<stop  offset="0.4215" style="stop-color:#796534"/>
			<stop  offset="0.5546" style="stop-color:#998461"/>
			<stop  offset="0.6828" style="stop-color:#B19D84"/>
			<stop  offset="0.8029" style="stop-color:#C3AF9D"/>
			<stop  offset="0.912" style="stop-color:#CDB9AD"/>
			<stop  offset="1" style="stop-color:#D1BDB2"/>
		</linearGradient>
		<path style="clip-path:url(#SVGID_1_);fill:url(#SVGID_3_);" d="M2638.28,926.39c28.83-133.2-207.44-297.38-527.72-366.71
			s-603.3-17.56-632.14,115.64c-28.83,133.2,207.44,297.38,527.72,366.71C2326.43,1111.36,2609.45,1059.59,2638.28,926.39z"/>
	</g>
</g>
<g id="Palm">
</g>
<g id="Title">
</g>
<g id="Ken">
</g>
<g id="Booble" class="st39">
	<g class="st40">
		<g>
			<g>
				<ellipse class="st41" cx="1281.16" cy="890.61" rx="225.16" ry="85.38"/>
			</g>
		</g>
		<g>
			<path d="M1201.29,822.46l-3.34,11.13c-0.42,1.11-0.98,2.97-1.67,5.57v10.65h-2.44v-10.65c-0.16-0.89-0.42-1.83-0.76-2.81
				c-0.56-1.69-0.87-2.61-0.91-2.76l-3.34-11.13c0-0.01,0-0.06,0-0.16h2.48l3.78,13.76l3.74-13.76h2.46
				C1201.29,822.38,1201.29,822.44,1201.29,822.46z"/>
			<path d="M1213.83,847.82c0,1.32-0.66,1.99-1.99,1.99h-5.87c-1.31,0-1.97-0.66-1.97-1.99v-13.13c0-1.32,0.66-1.99,1.97-1.99h5.87
				c1.32,0,1.99,0.66,1.99,1.99V847.82z M1211.49,847.75v-12.99h-5.15v12.99H1211.49z"/>
			<path d="M1227.43,849.81h-2.3v-0.47c-0.94,0.13-1.87,0.25-2.79,0.37c-1.13,0.14-2.06,0.21-2.79,0.21c-1.27,0-1.9-0.63-1.9-1.9
				v-15.31h2.3v15.01l5.19-0.14v-14.87h2.3V849.81z"/>
			<path d="M1250.29,849.81h-2.57l-5.12-14.73l0.33-0.49h4.36v-10.13h-6.28v25.35h-2.44V822.3h9.21c0.57,0,1.04,0.18,1.41,0.54
				s0.54,0.83,0.54,1.41v10.44c0,1.32-0.89,1.99-2.67,1.99c-0.18,0-0.43-0.01-0.77-0.03s-0.59-0.03-0.74-0.03
				C1247.14,841.01,1248.71,845.4,1250.29,849.81z"/>
			<path d="M1263.49,847.82c0,1.32-0.66,1.99-1.99,1.99h-5.87c-1.31,0-1.97-0.66-1.97-1.99v-13.13c0-1.32,0.66-1.99,1.97-1.99h5.87
				c1.32,0,1.99,0.66,1.99,1.99V847.82z M1261.15,847.75v-12.99H1256v12.99H1261.15z"/>
			<path d="M1276.79,847.82c0,1.32-0.66,1.99-1.97,1.99h-5.55c-1.31,0-1.97-0.66-1.97-1.99v-13.13c0-1.32,0.66-1.99,1.97-1.99h5.55
				c1.31,0,1.97,0.66,1.97,1.99v3.41h-2.3v-3.34h-4.85v12.99h4.85v-3.81h2.3V847.82z"/>
			<path d="M1290.19,849.81h-2.55l-4.71-8.72v8.72h-2.34V822.3h2.34v17.47l4.39-7.07h2.51v0.07l-4.97,7.56L1290.19,849.81z"/>
			<path d="M1295.06,849.81h-2.67v-3.09h2.67V849.81z"/>
			<path d="M1115.29,893.01h-2.44V865.5h2.44V893.01z"/>
			<path d="M1136.78,893.01h-2.34V878l-5.1,0.14v14.87h-2.32V878l-5.1,0.14v14.87h-2.34v-17.1h2.34v0.47
				c0.91-0.12,1.83-0.24,2.74-0.37c1.11-0.14,2.03-0.21,2.76-0.21c0.71,0,1.24,0.22,1.58,0.65c0.98-0.13,1.96-0.26,2.94-0.4
				c1.28-0.16,2.24-0.25,2.9-0.25c1.29,0,1.93,0.64,1.93,1.92V893.01z"/>
			<path d="M1157.35,897.51c0,1.32-0.66,1.99-1.99,1.99h-5.55c-1.35,0-2.02-0.84-2.02-2.51c0-0.2,0.01-0.5,0.03-0.89
				s0.03-0.68,0.03-0.85h2.3v2.27h4.89v-4.5h-3.85c-1.04,0-1.91-0.35-2.6-1.05s-1.04-1.57-1.04-2.63v-10c0-1.01,0.3-1.85,0.91-2.52
				s1.41-1.01,2.41-1.01c0.27,0,1.66,0.19,4.17,0.58v-0.47h2.32V897.51z M1155.03,890.95v-12.92c-1.85-0.12-2.93-0.18-3.23-0.18
				c-1.29,0-1.93,0.66-1.93,1.97v9.16c0,1.31,0.64,1.97,1.93,1.97H1155.03z"/>
			<path d="M1171.03,891.02c0,1.32-0.66,1.99-1.99,1.99h-5.87c-1.31,0-1.97-0.66-1.97-1.99v-13.13c0-1.32,0.66-1.99,1.97-1.99h5.87
				c1.32,0,1.99,0.66,1.99,1.99V891.02z M1168.69,890.95v-12.99h-5.15v12.99H1168.69z"/>
			<path d="M1184.67,893.01h-2.34V878l-5.15,0.14v14.87h-2.34v-17.1h2.34v0.47c0.91-0.12,1.83-0.24,2.76-0.37
				c1.13-0.14,2.05-0.21,2.78-0.21c1.3,0,1.95,0.64,1.95,1.92V893.01z"/>
			<path d="M1198.27,893.01h-2.34V878l-5.15,0.14v14.87h-2.34v-17.1h2.34v0.47c0.91-0.12,1.83-0.24,2.76-0.37
				c1.13-0.14,2.05-0.21,2.78-0.21c1.3,0,1.95,0.64,1.95,1.92V893.01z"/>
			<path d="M1211.72,893.01h-2.3v-0.47c-0.93,0.13-1.85,0.25-2.78,0.37c-1.15,0.14-2.07,0.21-2.76,0.21c-1.28,0-1.92-0.63-1.92-1.9
				v-6.24c0-1.31,0.66-1.97,1.99-1.97h5.5v-5.15h-5.03v2.92h-2.27v-2.88c0-1.32,0.66-1.99,1.97-1.99h5.63
				c1.31,0,1.97,0.66,1.97,1.99V893.01z M1209.45,890.88v-6.05h-5.22v6.15L1209.45,890.88z"/>
			<path d="M1232.43,889.34c0,1.05-0.35,1.93-1.04,2.63s-1.56,1.05-2.6,1.05h-3.85v6.49h-2.34v-23.59h2.34v0.47
				c0.93-0.12,1.85-0.23,2.78-0.35c1.17-0.15,2.09-0.23,2.76-0.23c1.3,0,1.95,0.64,1.95,1.92V889.34z M1230.09,888.99V878
				l-5.15,0.14v12.81h3.23C1229.45,890.95,1230.09,890.3,1230.09,888.99z"/>
			<path d="M1245.84,893.01h-2.3v-0.47c-0.93,0.13-1.85,0.25-2.78,0.37c-1.15,0.14-2.07,0.21-2.76,0.21c-1.28,0-1.92-0.63-1.92-1.9
				v-6.24c0-1.31,0.66-1.97,1.99-1.97h5.5v-5.15h-5.03v2.92h-2.27v-2.88c0-1.32,0.66-1.99,1.97-1.99h5.63
				c1.31,0,1.97,0.66,1.97,1.99V893.01z M1243.57,890.88v-6.05h-5.22v6.15L1243.57,890.88z"/>
			<path d="M1259.39,893.01h-2.32v-0.47c-2.51,0.39-3.9,0.58-4.17,0.58c-1,0-1.8-0.34-2.41-1.01s-0.91-1.51-0.91-2.52v-10
				c0-1.05,0.35-1.93,1.04-2.63s1.56-1.05,2.6-1.05h3.85V865.5h2.32V893.01z M1257.07,890.88v-12.92h-3.23
				c-1.29,0-1.93,0.66-1.93,1.99v9.14c0,1.31,0.64,1.97,1.93,1.97C1254.14,891.06,1255.22,891,1257.07,890.88z"/>
			<path d="M1272.96,893.01h-2.32v-0.47c-2.51,0.39-3.9,0.58-4.17,0.58c-1,0-1.8-0.34-2.41-1.01s-0.91-1.51-0.91-2.52v-10
				c0-1.05,0.35-1.93,1.04-2.63s1.56-1.05,2.6-1.05h3.85V865.5h2.32V893.01z M1270.64,890.88v-12.92h-3.23
				c-1.29,0-1.93,0.66-1.93,1.99v9.14c0,1.31,0.64,1.97,1.93,1.97C1267.71,891.06,1268.79,891,1270.64,890.88z"/>
			<path d="M1279.25,893.01h-2.3V865.5h2.3V893.01z"/>
			<path d="M1292.79,891.02c0,1.32-0.66,1.99-1.97,1.99h-5.63c-1.31,0-1.97-0.66-1.97-1.99v-13.13c0-1.32,0.66-1.99,1.97-1.99h5.63
				c1.31,0,1.97,0.66,1.97,1.99v6.15l-0.79,0.83h-6.5v6.19h5.03v-3.13h2.27V891.02z M1290.52,883.01v-5.15h-5.03v5.15H1290.52z"/>
			<path d="M1309.86,893.01h-3.32c-1.31,0-1.97-0.66-1.97-1.99v-13.06h-2.06v-2.06h2.06v-5.33h2.3v5.33h2.99v2.06h-2.99v12.99h2.99
				V893.01z"/>
			<path d="M1322.67,891.02c0,1.32-0.66,1.99-1.99,1.99h-5.87c-1.31,0-1.97-0.66-1.97-1.99v-13.13c0-1.32,0.66-1.99,1.97-1.99h5.87
				c1.32,0,1.99,0.66,1.99,1.99V891.02z M1320.33,890.95v-12.99h-5.15v12.99H1320.33z"/>
			<path d="M1345.33,893.01h-2.44v-13.22h-6.63v13.22h-2.44V865.5h2.44v12.09h6.63V865.5h2.44V893.01z"/>
			<path d="M1359.11,893.01h-2.3v-0.47c-0.93,0.13-1.85,0.25-2.78,0.37c-1.15,0.14-2.07,0.21-2.76,0.21c-1.28,0-1.92-0.63-1.92-1.9
				v-6.24c0-1.31,0.66-1.97,1.99-1.97h5.5v-5.15h-5.03v2.92h-2.27v-2.88c0-1.32,0.66-1.99,1.97-1.99h5.63
				c1.31,0,1.97,0.66,1.97,1.99V893.01z M1356.84,890.88v-6.05h-5.22v6.15L1356.84,890.88z"/>
			<path d="M1378.24,875.91l-3.53,17.14h-2.09l-2.51-12.99l-2.51,12.99h-2.06l-3.53-17.14h2.2l2.41,13.18l2.5-13.18h2.04l2.5,13.18
				l2.41-13.18H1378.24z"/>
			<path d="M1390.79,893.01h-2.3v-0.47c-0.93,0.13-1.85,0.25-2.78,0.37c-1.15,0.14-2.07,0.21-2.76,0.21c-1.28,0-1.92-0.63-1.92-1.9
				v-6.24c0-1.31,0.66-1.97,1.99-1.97h5.5v-5.15h-5.03v2.92h-2.27v-2.88c0-1.32,0.66-1.99,1.97-1.99h5.63
				c1.31,0,1.97,0.66,1.97,1.99V893.01z M1388.52,890.88v-6.05h-5.22v6.15L1388.52,890.88z"/>
			<path d="M1397.1,872.16h-2.37v-2.95h2.37V872.16z M1397.06,893.01h-2.3v-17.1h2.3V893.01z"/>
			<path d="M1403.51,872.16h-2.37v-2.95h2.37V872.16z M1403.48,893.01h-2.3v-17.1h2.3V893.01z"/>
			<path d="M1409.86,893.01h-2.67v-3.09h2.67V893.01z"/>
		</g>
	</g>
</g>
<g id="Boat" class="st39">
</g>
<g id="Start" class="st39">
	<g class="st40">
		<ellipse class="st42" cx="1238" cy="688" rx="88.5" ry="86.5"/>
		<ellipse class="st43" cx="1238.5" cy="687.5" rx="81" ry="76"/>
		<g>
			<path d="M1217.3,692.93c0,0.57-0.18,1.04-0.54,1.41s-0.82,0.54-1.4,0.54h-6.93c-0.57,0-1.05-0.18-1.42-0.54s-0.55-0.83-0.55-1.41
				v-6.98h2.44v6.77h5.94v-6.56l-7.59-9.18c-0.53-0.63-0.79-1.33-0.79-2.09v-5.57c0-0.57,0.18-1.04,0.55-1.41s0.84-0.54,1.42-0.54
				h6.93c0.57,0,1.04,0.18,1.4,0.54s0.54,0.83,0.54,1.41v6.4h-2.44v-6.19h-5.94v5.8l7.63,9.18c0.5,0.61,0.76,1.29,0.76,2.06V692.93z
				"/>
			<path d="M1231.1,669.53h-4.25v25.35h-2.44v-25.35h-4.29v-2.16h10.99V669.53z"/>
			<path d="M1245.05,694.88h-2.43l-0.97-6.12h-5.47l-0.97,6.12h-2.36v-0.07l4.9-27.51h2.41L1245.05,694.88z M1241.34,686.6
				l-2.41-14.91l-2.43,14.91H1241.34z"/>
			<path d="M1260.07,694.88h-2.57l-5.12-14.73l0.33-0.49h4.36v-10.13h-6.28v25.35h-2.44v-27.51h9.21c0.57,0,1.04,0.18,1.41,0.54
				s0.54,0.83,0.54,1.41v10.44c0,1.32-0.89,1.99-2.67,1.99c-0.18,0-0.43-0.01-0.77-0.03s-0.59-0.03-0.74-0.03
				C1256.92,686.08,1258.5,690.48,1260.07,694.88z"/>
			<path d="M1273.2,669.53h-4.25v25.35h-2.44v-25.35h-4.29v-2.16h10.99V669.53z"/>
		</g>
		<ellipse cx="1238.53" cy="689" rx="73.45" ry="73"/>
		<ellipse class="st42" cx="1238.5" cy="689" rx="68" ry="68.5"/>
		<g>
			<path d="M1226.92,655.37c0,0.77-0.25,1.39-0.74,1.89s-1.12,0.74-1.89,0.74h-8.65v14.55h-3.26v-36.68h11.91
				c0.77,0,1.39,0.24,1.89,0.73s0.74,1.11,0.74,1.88V655.37z M1223.66,655.09v-16.34h-8.02v16.34H1223.66z"/>
			<path d="M1234.96,672.55h-3.07v-36.68h3.07V672.55z"/>
			<path d="M1253.14,672.55h-3.07v-0.63c-1.23,0.17-2.47,0.34-3.7,0.49c-1.53,0.19-2.76,0.28-3.68,0.28c-1.7,0-2.55-0.84-2.55-2.53
				v-8.32c0-1.75,0.88-2.63,2.65-2.63h7.34v-6.87h-6.7v3.89h-3.02v-3.84c0-1.77,0.88-2.65,2.63-2.65h7.5c1.75,0,2.63,0.88,2.63,2.65
				V672.55z M1250.12,669.72v-8.06h-6.96v8.2L1250.12,669.72z"/>
			<path d="M1271.1,649.75l-5.48,22.62l-2.27,8.84h-3.07l2.3-8.84l-5.63-22.62h3.21l3.89,17.95l3.94-17.95H1271.1z"/>
		</g>
		<g>
			<path d="M1217.72,727h-3.23l-1.29-8.16h-7.29l-1.29,8.16h-3.14v-0.09l6.54-36.68h3.21L1217.72,727z M1212.77,715.96l-3.21-19.88
				l-3.23,19.88H1212.77z"/>
			<path d="M1234.71,733c0,1.77-0.88,2.65-2.65,2.65h-7.41c-1.8,0-2.7-1.12-2.7-3.35c0-0.27,0.01-0.66,0.04-1.18s0.04-0.9,0.04-1.14
				h3.07V733h6.52v-6h-5.13c-1.39,0-2.55-0.46-3.47-1.39s-1.38-2.1-1.38-3.5v-13.34c0-1.34,0.41-2.46,1.22-3.36s1.88-1.35,3.21-1.35
				c0.36,0,2.21,0.26,5.55,0.77v-0.63h3.09V733z M1231.62,724.26v-17.23c-2.47-0.16-3.91-0.23-4.31-0.23
				c-1.72,0-2.58,0.88-2.58,2.63v12.21c0,1.75,0.86,2.63,2.58,2.63H1231.62z"/>
			<path d="M1252.73,727h-3.07v-0.63c-1.23,0.17-2.47,0.34-3.7,0.49c-1.53,0.19-2.76,0.28-3.68,0.28c-1.7,0-2.55-0.84-2.55-2.53
				v-8.32c0-1.75,0.88-2.63,2.65-2.63h7.34v-6.87h-6.7v3.89h-3.02v-3.84c0-1.77,0.88-2.65,2.63-2.65h7.5c1.75,0,2.63,0.88,2.63,2.65
				V727z M1249.71,724.16v-8.06h-6.96v8.2L1249.71,724.16z"/>
			<path d="M1261.15,699.2h-3.16v-3.94h3.16V699.2z M1261.1,727h-3.07v-22.8h3.07V727z"/>
			<path d="M1279.5,727h-3.12v-20.02l-6.87,0.19V727h-3.12v-22.8h3.12v0.63c1.22-0.16,2.45-0.32,3.68-0.49
				c1.5-0.19,2.73-0.28,3.7-0.28c1.73,0,2.6,0.85,2.6,2.55V727z"/>
		</g>
	</g>
</g>
<g id="Game_over" class="st39">
</g>
</svg>
