<?xml version="1.0" encoding="utf-8"?>
<!-- Generator: Adobe Illustrator 23.0.0, SVG Export Plug-In . SVG Version: 6.00 Build 0)  -->
<svg version="1.1" xmlns="http://www.w3.org/2000/svg" xmlns:xlink="http://www.w3.org/1999/xlink" x="0px" y="0px"
	 viewBox="0 0 450 600" style="enable-background:new 0 0 450 600;" xml:space="preserve">
<style type="text/css">
	.st0{fill:#286BA5;stroke:#000000;stroke-miterlimit:10;}
	.st1{fill:url(#SVGID_1_);}
	.st2{fill:#FFFFFF;}
	.st3{clip-path:url(#SVGID_3_);fill:url(#SVGID_4_);}
	.st4{clip-path:url(#SVGID_3_);fill:url(#SVGID_5_);}
	.st5{fill:#070707;}
	.st6{clip-path:url(#SVGID_7_);}
	.st7{fill:#46A147;}
	.st8{fill:url(#SVGID_8_);}
	.st9{opacity:0.16;}
	.st10{fill:url(#SVGID_9_);}
	.st11{fill:#47631C;}
	.st12{fill:#597A2B;}
	.st13{fill:#3D5416;}
	.st14{fill:#334215;}
	.st15{fill:url(#SVGID_10_);}
	.st16{fill:#5F5F5F;}
	.st17{fill:#484848;}
	.st18{fill:#212121;}
	.st19{fill:#303030;}
	.st20{fill:#393939;}
	.st21{fill:#282828;}
	.st22{fill:#202020;}
	.st23{fill:none;stroke:#000000;stroke-miterlimit:10;}
	.st24{fill:#286BA5;}
	.st25{fill:#286BA5;stroke:#000000;stroke-width:8;stroke-linecap:round;stroke-miterlimit:10;}
	.st26{stroke:#FFFF00;stroke-width:3;stroke-miterlimit:10;}
	.st27{fill:#FCE001;}
	.st28{fill:#301C00;}
	.st29{fill:#FDE758;}
	.st30{fill:url(#SVGID_11_);}
	.st31{fill:url(#SVGID_12_);}
	.st32{fill:#F29667;}
	.st33{fill:#FBAC7B;}
	.st34{fill:#EF9462;}
	.st35{stroke:#000000;stroke-miterlimit:10;}
	.st36{fill:#FEAA7B;}
	.st37{fill:#F29465;}
	.st38{fill:#F40B16;}
	.st39{display:none;}
	.st40{display:inline;}
	.st41{fill:#FFFFFF;stroke:#FFFF00;stroke-width:3;stroke-miterlimit:10;}
	.st42{fill:#D82A36;stroke:#A30D0D;stroke-miterlimit:10;}
	.st43{fill:#93292D;stroke:#A30D0D;stroke-miterlimit:10;}
</style>
<g id="Background">
</g>
<g id="SKY">
</g>
<g id="Hill_and_lake">
</g>
<g id="Palm">
	<g>
		<defs>
			<rect id="SVGID_6_" x="19.08" y="-155.46" width="1600" height="900"/>
		</defs>
		<clipPath id="SVGID_1_">
			<use xlink:href="#SVGID_6_"  style="overflow:visible;"/>
		</clipPath>
		<g style="clip-path:url(#SVGID_1_);">
			<g>
				<path class="st7" d="M237.24,222.12c-5.37-3.86-11.75-6.04-17.13-9.9c-0.88-0.63-1.81-1.33-2.15-2.35
					c-0.45-1.32,0.21-2.72,0.89-3.92c2.29-4.05,5.04-7.83,8.17-11.26c-2.75,3.11-5.67,6.06-8.76,8.83c-1.54,1.39-3.22,2.77-5.25,3.2
					c-3.6,0.76-7.65-1.01-10.72-3.09c-6.83-4.61-13.66-9.22-20.5-13.83c-0.36-0.25-0.77-0.56-0.77-1c0-0.35,0.26-0.63,0.51-0.88
					c7.01-6.93,14.02-13.86,21.04-20.8c-7.87,5.29-15.56,10.38-23.43,15.67c-10.62-3.32-21.23-6.63-31.85-9.95
					c-2.49-0.78-5.34-1.92-6.03-4.43c-0.75-2.72,1.5-5.23,3.56-7.13c8-7.38,16-14.75,24-22.13c-12.3,7.39-24.6,14.78-36.89,22.17
					c-3.02,1.82-6.1,3.66-9.54,4.47c-5.43,1.29-11.24-0.14-16.19-2.77s-9.19-6.41-13.38-10.15c-2.36-2.11-4.96-4.96-4.07-7.97
					c0.47-1.6,1.84-2.75,3.14-3.79c9.53-7.67,19.05-15.34,28.58-23.01c-11.62,9.76-25.06,17.55-39.96,20.64
					c-6.19-6.09-12.55-12.41-15.82-20.44c-1.8-4.43-2.59-9.21-4.27-13.68c-4.54-12.07-13.53-25.59-23.59-33.69
					c30.37-3.52,57.44,9.19,86.18,19.98c24.92,9.36,50,19.58,70.96,36.06s37.61,40.2,39.88,66.65
					C234.75,204.35,235.19,212.45,237.24,222.12z"/>
				<g>
					<path class="st7" d="M229.45,210.87c-0.26,0.71-0.76,1.49-1.53,2.35c-3.56,3.98-7.54,7.66-11.63,11.2
						c-7.78,6.74-16.15,12.89-24.13,19.43c-6.87,5.63-13.27,11.72-19.27,18.09c-3.11,3.3-6.11,6.68-9.03,10.13
						c-1.28,1.52-7.83,7.48-7.52,9.28c-1.46-8.54-2.91-17.08-4.37-25.62c-2.47-14.47-3.25-25.98-10.56-39.24
						c-0.4-0.72-0.8-1.45-1.2-2.17c6.32,23.13,9.33,46.87,8.95,70.44c-13.03,0.95-25.27-0.18-38.35-1.74
						c-9.85-22.14-17.7-44.93-23.45-68.08c2.47,20.66,4.95,41.31,7.42,61.97c-10.73-1.82-22.31-3.15-33.02-1.99
						c-2.98-15.99-5.97-31.99-8.95-47.98c-1.14,15.94-0.54,32.04,1.78,48c-10.93,3.33-22.11,5.75-33.68,6.85
						c-1.39-7.17-2.78-14.34-4.18-21.5c-1.05,4.93-2.09,9.86-3.14,14.78c-0.55,2.59-1.12,5.23-2.54,7.52
						c-3.37,5.44-10.64,7.68-17.31,9.51c10.68-32.12,22.96-65.37,50.29-87.82c31.9-26.2,79.62-33.68,123.23-25.97
						c20.56,3.64,41.48,10.7,56.75,24.42C227.53,205.88,230.58,207.82,229.45,210.87z"/>

						<linearGradient id="SVGID_3_" gradientUnits="userSpaceOnUse" x1="-3330.4587" y1="-1638.8258" x2="-3454.4285" y2="-1686.8761" gradientTransform="matrix(0.1416 -0.8039 -0.9032 -0.1591 -910.4027 -2777.8013)">
						<stop  offset="0" style="stop-color:#70BE49"/>
						<stop  offset="1" style="stop-color:#46A147"/>
					</linearGradient>
					<path style="fill:url(#SVGID_3_);" d="M236.07,196.76c0.33,6.38-6.93,10.34-12.94,13.54c-25.89,13.74-46.09,33.82-63.29,55.9
						c-1.46-8.54-2.91-17.08-4.37-25.62c-2.47-14.47-3.25-25.98-10.56-39.24c-0.4-0.72-0.8-1.45-1.2-2.17
						c6.32,23.13,9.33,46.87,8.95,70.44c-13.03,0.95-25.27-0.18-38.35-1.74c-9.85-22.14-17.7-44.93-23.45-68.08
						c2.47,20.66,4.95,41.31,7.42,61.97c-10.73-1.82-22.31-3.15-33.02-1.99c-2.98-15.99-5.97-31.99-8.95-47.98
						c-1.14,15.94-0.54,32.04,1.78,48c-10.93,3.33-22.11,5.75-33.68,6.85c-1.39-7.17-2.78-14.34-4.18-21.5
						c-1.05,4.93-2.09,9.86-3.14,14.78c-0.55,2.59-1.12,5.23-2.54,7.52c-3.37,5.44-10.64,7.68-17.31,9.51
						c10.68-32.12,22.96-65.37,50.29-87.82c31.9-26.2,79.62-33.68,123.23-25.97C196.39,167.69,221.07,177.29,236.07,196.76z"/>
					<g class="st9">
						<path class="st2" d="M164.97,177.6c-10.77,0.7-20.93,1.31-30.94,2.64c-9.99,1.27-19.76,3.12-29.36,5.56
							c-9.59,2.47-19.02,5.53-28.3,9.3c-9.32,3.75-18.36,8.28-27.87,13.38c1.43-2.27,2.98-4.5,4.65-6.64c1.76-2.03,3.55-4.08,5.48-6
							c2-1.81,3.98-3.71,6.11-5.39c1.07-0.84,2.17-1.63,3.27-2.44c1.11-0.79,2.17-1.67,3.35-2.35c9.14-5.97,19.35-10.34,29.94-13.03
							c10.59-2.71,21.59-3.75,32.43-3.04C144.57,170.35,155.31,172.71,164.97,177.6z"/>
					</g>
				</g>
				<g>
					<path class="st7" d="M210.03,216.9c0.26,0.71,0.76,1.49,1.53,2.35c3.56,3.98,7.54,7.66,11.63,11.2
						c7.78,6.74,16.15,12.89,24.13,19.43c6.87,5.63,13.27,11.72,19.27,18.09c3.11,3.3,6.11,6.68,9.03,10.13
						c1.28,1.52,7.83,7.48,7.52,9.28c1.46-8.54,2.91-17.08,4.37-25.62c2.47-14.47,3.25-25.98,10.56-39.23
						c0.4-0.72,0.8-1.45,1.2-2.17c-6.32,23.13-9.33,46.87-8.95,70.44c13.03,0.95,25.27-0.18,38.35-1.74
						c9.85-22.14,17.7-44.94,23.45-68.08c-2.47,20.66-4.95,41.31-7.42,61.97c10.73-1.82,22.31-3.15,33.02-1.99
						c2.98-15.99,5.97-31.99,8.95-47.98c1.14,15.94,0.54,32.04-1.78,48c10.93,3.33,22.11,5.75,33.68,6.85
						c1.39-7.17,2.78-14.34,4.18-21.5c1.05,4.93,2.09,9.86,3.14,14.78c0.55,2.59,1.12,5.23,2.54,7.52
						c3.37,5.44,10.64,7.68,17.31,9.51c-10.68-32.12-22.96-65.37-50.29-87.82c-31.9-26.2-79.62-33.68-123.23-25.97
						c-20.56,3.64-41.48,10.7-56.75,24.42C211.95,211.91,208.9,213.86,210.03,216.9z"/>

						<linearGradient id="SVGID_4_" gradientUnits="userSpaceOnUse" x1="-4321.2358" y1="3330.9846" x2="-4445.2051" y2="3282.9343" gradientTransform="matrix(-0.1416 -0.8039 0.9032 -0.1591 -3278.9082 -2777.8013)">
						<stop  offset="0" style="stop-color:#70BE49"/>
						<stop  offset="1" style="stop-color:#46A147"/>
					</linearGradient>
					<path style="fill:url(#SVGID_4_);" d="M203.41,202.8c-0.33,6.38,6.93,10.34,12.94,13.54c25.89,13.74,46.09,33.82,63.29,55.9
						c1.46-8.54,2.91-17.08,4.37-25.62c2.47-14.47,3.25-25.98,10.56-39.24c0.4-0.72,0.8-1.45,1.2-2.17
						c-6.32,23.13-9.33,46.87-8.95,70.44c13.03,0.95,25.27-0.18,38.35-1.74c9.85-22.14,17.7-44.93,23.45-68.08
						c-2.47,20.66-4.95,41.31-7.42,61.97c10.73-1.82,22.31-3.15,33.02-1.99c2.98-15.99,5.97-31.99,8.95-47.98
						c1.14,15.94,0.54,32.04-1.78,48c10.93,3.33,22.11,5.75,33.68,6.85c1.39-7.17,2.78-14.34,4.18-21.5
						c1.05,4.93,2.09,9.86,3.14,14.78c0.55,2.59,1.12,5.23,2.54,7.52c3.37,5.44,10.64,7.68,17.31,9.51
						c-10.68-32.12-22.96-65.37-50.29-87.82c-31.9-26.2-79.62-33.68-123.23-25.97C243.09,173.72,218.41,183.33,203.41,202.8z"/>
					<g class="st9">
						<path class="st2" d="M274.51,183.63c9.66-4.88,20.4-7.25,31.22-8.01c10.84-0.7,21.84,0.33,32.43,3.04
							c10.59,2.69,20.79,7.06,29.94,13.03c1.18,0.67,2.25,1.56,3.35,2.35c1.1,0.81,2.2,1.61,3.27,2.44
							c2.14,1.68,4.12,3.58,6.11,5.39c1.92,1.92,3.72,3.97,5.48,6c1.67,2.14,3.22,4.37,4.65,6.64c-9.51-5.1-18.55-9.63-27.87-13.38
							c-9.28-3.78-18.7-6.83-28.3-9.3c-9.6-2.45-19.37-4.29-29.36-5.56C295.44,184.94,285.28,184.33,274.51,183.63z"/>
					</g>
				</g>
				<path class="st7" d="M235.32,197.59c-4.76,3.92-7.71,8.38-12.47,12.3c-0.78,0.64-1.63,1.32-2.81,1.64
					c-1.51,0.41-3.04,0.09-4.33-0.26c-4.36-1.19-8.4-2.7-12.01-4.5c3.28,1.57,6.36,3.27,9.23,5.1c1.43,0.91,2.86,1.91,3.18,3.24
					c0.57,2.34-1.74,5.2-4.31,7.43c-5.72,4.96-11.43,9.93-17.15,14.89c-0.3,0.26-0.69,0.56-1.19,0.6c-0.39,0.03-0.69-0.12-0.94-0.27
					c-7.23-4.1-14.47-8.19-21.7-12.29c5.32,4.81,10.43,9.52,15.75,14.32c-4.56,7.38-9.12,14.76-13.68,22.15
					c-1.07,1.73-2.57,3.74-5.45,4.41c-3.11,0.73-5.76-0.56-7.73-1.77c-7.65-4.72-15.31-9.44-22.96-14.16
					c7.33,7.59,14.66,15.18,21.99,22.77c1.8,1.86,3.63,3.77,4.27,6c1.02,3.52-1.04,7.52-4.39,11.06c-3.35,3.54-7.93,6.7-12.46,9.82
					c-2.55,1.76-5.96,3.74-9.28,3.41c-1.76-0.18-2.94-0.99-4.01-1.77c-7.86-5.71-15.73-11.43-23.59-17.14
					c10.04,6.93,17.74,15.25,20.03,24.95c-7.32,4.66-14.93,9.45-24.21,12.33c-5.12,1.59-10.54,2.52-15.7,4.03
					c-13.91,4.07-29.82,11.24-39.71,18.66c-1.56-20.01,14.85-39.19,29.24-59.33c12.48-17.47,25.94-35.1,46.1-50.53
					s48.12-28.59,78.02-32.37C215.16,200.77,224.29,199.79,235.32,197.59z"/>
				<path class="st7" d="M401.83,35.48c-4.75,4.61-8.01,10.51-12.76,15.13c-0.77,0.75-1.62,1.54-2.69,1.71
					c-1.37,0.21-2.64-0.69-3.7-1.57c-3.58-2.97-6.82-6.33-9.66-10.02c2.58,3.25,4.97,6.65,7.16,10.17c1.09,1.76,2.16,3.65,2.23,5.73
					c0.11,3.68-2.34,7.36-4.92,10.01c-5.74,5.92-11.47,11.83-17.21,17.75c-0.31,0.32-0.69,0.66-1.12,0.58
					c-0.34-0.06-0.58-0.37-0.77-0.66c-5.59-8.12-11.19-16.24-16.78-24.36c3.82,8.67,7.49,17.14,11.31,25.82
					c-5.13,9.87-10.25,19.74-15.38,29.61c-1.2,2.31-2.82,4.92-5.42,5.16c-2.81,0.26-4.89-2.4-6.39-4.76
					c-5.86-9.17-11.71-18.34-17.57-27.51c5.12,13.4,10.23,26.81,15.35,40.21c1.26,3.29,2.53,6.65,2.73,10.18
					c0.32,5.57-2.11,11.04-5.57,15.45c-3.46,4.41-7.93,7.93-12.34,11.39c-2.49,1.95-5.75,4.01-8.56,2.61
					c-1.49-0.74-2.38-2.29-3.18-3.75c-5.88-10.72-11.76-21.45-17.63-32.17c7.57,13.15,12.88,27.75,13.31,42.96
					c-7.08,5.03-14.42,10.18-22.9,11.99c-4.68,1-9.52,0.93-14.22,1.81c-12.68,2.35-27.57,8.83-37.31,17.31
					c1.87-30.52,19.12-54.93,34.8-81.33c13.59-22.89,28.05-45.78,47.95-63.53c19.9-17.75,46.18-29.97,72.62-27.56
					C383.9,34.82,391.95,35.81,401.83,35.48z"/>
				<g>
					<path class="st11" d="M222.32,220.17c-3.07,4.38,11.59-13.23,15-27.59c3.41-14.36,17.01-18.21,17.01-18.21
						s-11.51,6.75-10.33,33.62s-1.49,76.34-1.49,76.34l-12.17,19.24l-20.79-42.93c0,0-4.2-35.7,0.34-40.15"/>
					<path class="st12" d="M240.91,300.92l-28.5,27.35l-7.97,0.37c0,0,12.69-87.7,1.56-102.45c-11.13-14.76-19.12-17.09-19.12-17.09
						l24.9,12.23c0,0,29.4,2.8,30.95,27.42C244.27,273.37,240.91,300.92,240.91,300.92z"/>
					<path class="st13" d="M241.44,412.39c0,0,8.13-89.35-58.5-70.83c0,0,5.66-0.7,10.47,1.38c3.74,1.62,6.98,4.92,6.64,11.56
						c-0.77,15.16-13.63,97.34-9.73,104.9C194.23,466.95,241.44,412.39,241.44,412.39z"/>
					<path class="st11" d="M203.08,361.28c0,0-4.52-36.55,0.63-41.12s16.87-9.7,16.87-9.7s0.66,4.82-2.83,9.32
						s13.16-13.61,17.1-28.34s19.31-18.74,19.31-18.74s-13.04,6.97-11.87,34.49c1.17,27.51-2.15,78.2-2.15,78.2l-13.86,19.77
						L203.08,361.28z"/>
					<path class="st14" d="M326.95,536.94c0,0-9.43-2.11-40.88-4.11c-31.44-1.99-50.31-11.36-50.31-39.09s-1.57-117.89,33.54-103.8
						c0,0-28.82-17.13-44.02,33.11l-3.67-5.67c0,0-2.62-6.95-9.96,13.55c-7.34,20.5-20.44,22.47-22.01,26.83s-1.57,41.08-7.34,49.78
						c-5.76,8.7-5.24-1.06-9.43,8.42s-2.1,13.08-29.35,15.74c-27.25,2.66-11,3.01-62.36,5.52c0,0,5.24,0.55,29.87,0.19"/>
				</g>

					<radialGradient id="SVGID_5_" cx="-4539.7983" cy="-566.846" r="92.9916" gradientTransform="matrix(-0.8874 0.4609 -0.4609 -0.8874 -4015.813 1901.3251)" gradientUnits="userSpaceOnUse">
					<stop  offset="0" style="stop-color:#70BE49"/>
					<stop  offset="1" style="stop-color:#46A147"/>
				</radialGradient>
				<path style="fill:url(#SVGID_5_);" d="M216.65,292.73c1.42,2.6,3.22,4.45,5.01,6.79c4.17-7.19,9.9-13.47,16.68-18.29
					c-5.68,8.02-13.71,22.61-11.02,32.64c3.04,11.36,14,24.93,20.67,34.59c2.48,3.59,14.11,24.25,18.14,23.79
					c1.61-0.18,2.8-1.53,3.83-2.79c2.11-2.57,4.22-5.14,6.33-7.72c-0.47,6.92-2.3,17.76,0.17,24.36c2.04,5.44,8.7,10.75,12.48,15.16
					c7.75,9.07,16.27,18.36,27.65,21.94c5.05,1.59,11.13,1.75,15.05-1.82c4.17-3.79,4.33-10.18,4.18-15.81l-0.77-30.17
					c-0.02-0.65-0.4-1.23-0.99-1.49c-4.09-1.79-8.2-3.07-12.3-4.47c-1.62-0.55-1.43-2.86,0.25-3.19c0.03-0.01,0.06-0.01,0.09-0.02
					c2.97-0.59,5.88-2.34,7.08-5.12c1.24-2.87,0.45-6.17-0.37-9.19c-7.45-27.37-16.52-54.31-27.12-80.62
					c-2.43-6.04-5.15-12.32-10.27-16.35c-3.2-2.51-6.99-3.9-10.99-4.72c-1.8-0.37-1.77-2.95,0.03-3.28
					c1.51-0.28,3.02-0.56,4.53-0.84c1.08-0.2,1.68-1.38,1.2-2.37c-5.2-10.84-10.75-21.76-19.44-30.02
					c-12.71-12.06-30.23-17.66-47.05-13.47c-0.99,0.25-1.53,1.31-1.15,2.25c1.74,4.34,3.49,8.68,5.27,13.01
					c14.29,34.83,29.33,69.45,46.05,103.18c8.39,16.93,17.11,33.67,26.34,50.17c9.43,16.86,19.44,33.37,29.09,50.1
					c0.16,0.27-0.26,0.47-0.42,0.22c-10.62-16.13-20.25-32.95-29.64-49.81c-18.31-32.88-35.48-66.41-51.42-100.5
					c-8-17.12-15.28-34.61-22.4-52.11c-1.55-3.81-3.09-7.63-4.61-11.46c-0.48-1.2-2.1-1.44-2.88-0.4
					c-8.7,11.46-13.53,25.84-13.42,40.23C200.65,263.35,208.24,277.27,216.65,292.73z"/>
			</g>
			<g>
				<path class="st16" d="M227.73,510.54c1.39,4.32,0.89,32.2,5.62,30.84l31.99-9.21c4.73-1.36,7.47-6.01,6.09-10.32l-18.37-42.91
					c-1.39-4.32-4.43-12.43-8.37-4.97"/>
				<path class="st17" d="M219.37,529.66l31,16.95c1.64,0.9,3.76,0.36,4.7-1.19l7.4-12.13c0.95-1.55,0.38-3.56-1.26-4.45l-31-16.95
					c-1.64-0.9-3.76-0.36-4.7,1.19l-7.4,12.13C217.16,526.76,217.73,528.77,219.37,529.66z"/>
				<path class="st17" d="M279.04,531.07h25.88c4.59,0,8.34-3.56,8.34-7.9l-5.12-14.87c8.95-15.12-0.57-12.2-6.31-10.82
					l-20.89-18.66c-4.59,0-34.69-11.06-34.69-6.72l24.44,51.07C270.7,527.52,274.45,531.07,279.04,531.07z"/>
				<path class="st17" d="M225.14,549.02l14.86,6.24c8,3.36,17.45-0.09,21-7.67l0.75-1.61c3.55-7.58-0.1-16.52-8.1-19.88
					l-11.74-8.46c-3.81-1.6-10.52-8.29-14.19-7.09c-4.04,1.32-8.08,13.02-9.93,16.99l-0.75,1.61
					C213.5,536.72,217.14,545.66,225.14,549.02z"/>
				<path class="st18" d="M243.5,556.08l61.77,0.03c4.61,0.27,19.49-6.37,26.28-12.23l10.09-28.48c0.32-4.84-4.47-2.68-9.08-2.95
					l-38.99,2.27c-4.61-0.27-15.2,7.83-15.51,12.67l-24.24,16.61C251.32,547.94,238.89,555.81,243.5,556.08z"/>
				<path class="st19" d="M295.86,539.66l32.32-14.56c1.57,0-7.4-6.58-8.28-10.08c-0.71-2.83,10.64,7.09,10.64,6.35l9.85-7.03
					c0-4.35-27.27-17.6-31.86-17.6l-12.22,9.33c0.79,3.36-2.43,3.93-2.43,8.27v12.57C293.89,531.25,291.27,539.66,295.86,539.66z"/>
				<polygon class="st20" points="252.57,546.37 293.95,540.78 297.11,505.69 269.52,525.85 241.92,517.63 				"/>
			</g>
			<g>
				<path class="st17" d="M124.64,557.22l14.6-14.6c4.13-4.13,4.13-10.9,0-15.03l-2.5-2.5c-4.13-4.13-10.9-4.13-15.03,0
					l-11.36,17.35c-4.13,4.13-7.37,8.15-3.24,12.28l2.5,2.5C113.75,561.35,120.51,561.35,124.64,557.22z"/>
				<path class="st16" d="M151.88,557.53l51.74-22.21c4.31-2.49,5.8-8.05,3.31-12.36l-14.04-24.31c-2.49-4.31-8.05-5.8-12.36-3.31
					l-52.98,27.78c-1.23,0.65,3.52,3.14,4.18,4.37c1.03,1.89-3.34-5.27-1.28-1.71l16.25,23.09
					C149.18,553.16,147.57,560.02,151.88,557.53z"/>
				<path class="st17" d="M189.87,495.41c-4.98,0-21.38,7.06-21.38,12.04l-5.56,11.04c0,4.98,9.63,17.96,14.61,17.96h32.78
					c4.98,0,9.05-4.07,9.05-9.05"/>
				<path class="st20" d="M167.29,556.19l51.36,4.81c4.96,0.46,9.39-3.21,9.85-8.17l-7.43-21.52c0.46-4.96-7.02-7.23-11.97-7.7
					l-43.61-6.41c-4.96-0.46-3.97,3.46-4.44,8.41l-1.94,20.72C158.66,551.3,162.33,555.73,167.29,556.19z"/>
				<polyline class="st21" points="164.22,539.02 151.88,557.96 225.38,560.25 				"/>
				<polygon class="st19" points="151.82,557.83 170.2,542.44 165.5,517.21 133.86,530.89 				"/>
				<polyline class="st22" points="135.57,530.47 111.2,558.26 152.67,558.26 				"/>
			</g>
		</g>
	</g>
</g>
<g id="Title">
</g>
<g id="Ken">
</g>
<g id="Booble" class="st39">
</g>
<g id="Boat" class="st39">
</g>
<g id="Start" class="st39">
</g>
<g id="Game_over" class="st39">
</g>
</svg>
