<?xml version="1.0" encoding="utf-8"?>
<!-- Generator: Adobe Illustrator 23.0.0, SVG Export Plug-In . SVG Version: 6.00 Build 0)  -->
<svg version="1.1" xmlns="http://www.w3.org/2000/svg" xmlns:xlink="http://www.w3.org/1999/xlink" x="0px" y="0px"
	 viewBox="0 0 1600 500" style="enable-background:new 0 0 1600 500;" xml:space="preserve">
<style type="text/css">
	.st0{fill:#286BA5;stroke:#000000;stroke-miterlimit:10;}
	.st1{fill:url(#SVGID_1_);}
	.st2{fill:#FFFFFF;}
	.st3{clip-path:url(#SVGID_3_);fill:url(#SVGID_4_);}
	.st4{clip-path:url(#SVGID_3_);fill:url(#SVGID_5_);}
	.st5{fill:#070707;}
	.st6{clip-path:url(#SVGID_7_);}
	.st7{fill:#46A147;}
	.st8{fill:url(#SVGID_8_);}
	.st9{opacity:0.16;}
	.st10{fill:url(#SVGID_9_);}
	.st11{fill:#47631C;}
	.st12{fill:#597A2B;}
	.st13{fill:#3D5416;}
	.st14{fill:#334215;}
	.st15{fill:url(#SVGID_10_);}
	.st16{fill:#5F5F5F;}
	.st17{fill:#484848;}
	.st18{fill:#212121;}
	.st19{fill:#303030;}
	.st20{fill:#393939;}
	.st21{fill:#282828;}
	.st22{fill:#202020;}
	.st23{fill:none;stroke:#000000;stroke-miterlimit:10;}
	.st24{fill:#286BA5;}
	.st25{fill:#286BA5;stroke:#000000;stroke-width:8;stroke-linecap:round;stroke-miterlimit:10;}
	.st26{stroke:#FFFF00;stroke-width:3;stroke-miterlimit:10;}
	.st27{fill:#FCE001;}
	.st28{fill:#301C00;}
	.st29{fill:#FDE758;}
	.st30{fill:url(#SVGID_11_);}
	.st31{fill:url(#SVGID_12_);}
	.st32{fill:#F29667;}
	.st33{fill:#FBAC7B;}
	.st34{fill:#EF9462;}
	.st35{stroke:#000000;stroke-miterlimit:10;}
	.st36{fill:#FEAA7B;}
	.st37{fill:#F29465;}
	.st38{fill:#F40B16;}
	.st39{display:none;}
	.st40{display:inline;}
	.st41{fill:#FFFFFF;stroke:#FFFF00;stroke-width:3;stroke-miterlimit:10;}
	.st42{fill:#D82A36;stroke:#A30D0D;stroke-miterlimit:10;}
	.st43{fill:#93292D;stroke:#A30D0D;stroke-miterlimit:10;}
</style>
<g id="Background">
</g>
<g id="SKY">
	<g>
		
			<image style="overflow:visible;opacity:0.9;" width="2947" height="2947" xlink:href="7826BF55.png"  transform="matrix(0.24 0 0 0.24 1013.6 -120.44)">
		</image>
		<g>
			<linearGradient id="SVGID_1_" gradientUnits="userSpaceOnUse" x1="1367.2184" y1="331.0743" x2="1367.2184" y2="104.0743">
				<stop  offset="1.059638e-07" style="stop-color:#FFFFFF;stop-opacity:0"/>
				<stop  offset="0.0724" style="stop-color:#FFFFFF;stop-opacity:0.0724"/>
				<stop  offset="1" style="stop-color:#FFFFFF"/>
			</linearGradient>
			<circle class="st1" cx="1367.22" cy="233.11" r="113.5"/>
		</g>
	</g>
	<polygon class="st2" points="825.51,262.2 825.51,259.41 822.51,259.41 822.51,262.2 822.51,262.41 825.51,262.41 	"/>
	<polygon class="st2" points="846.97,370.53 846.97,373.33 846.97,373.53 849.97,373.53 849.97,373.33 849.97,370.53 	"/>
	<polygon class="st2" points="922.66,321.05 922.66,323.84 922.66,324.05 925.66,324.05 925.66,323.84 925.66,321.05 	"/>
	<polygon class="st2" points="820.14,276.29 820.14,279.08 820.14,279.29 823.14,279.29 823.14,279.08 823.14,276.29 	"/>
	<polygon class="st2" points="821,242.96 821,242.76 821,239.96 818,239.96 818,242.76 818,242.96 	"/>
	<polygon class="st2" points="904.65,272.28 904.65,272.08 904.65,269.28 901.65,269.28 901.65,272.08 901.65,272.28 	"/>
	<polygon class="st2" points="953.75,266.28 953.75,269.07 953.75,269.28 956.75,269.28 956.75,269.07 956.75,266.28 	"/>
	<polygon class="st2" points="860.38,158.32 860.38,161.12 860.38,161.32 863.38,161.32 863.38,161.12 863.38,158.32 	"/>
	<polygon class="st2" points="774.2,200.24 774.2,203.04 774.2,203.24 777.2,203.24 777.2,203.04 777.2,200.24 	"/>
	<polygon class="st2" points="890.52,242.71 890.52,245.51 890.52,245.71 893.52,245.71 893.52,245.51 893.52,242.71 	"/>
	<polygon class="st2" points="853.37,115.22 853.37,115.02 853.37,112.22 850.37,112.22 850.37,115.02 850.37,115.22 	"/>
	<polygon class="st2" points="783.27,123.11 783.27,122.91 783.27,120.11 780.27,120.11 780.27,122.91 780.27,123.11 	"/>
	<polygon class="st2" points="742.62,149.16 742.62,151.96 742.62,152.16 745.62,152.16 745.62,151.96 745.62,149.16 	"/>
	<polygon class="st2" points="745.75,194.28 745.75,197.07 745.75,197.28 748.75,197.28 748.75,197.07 748.75,194.28 	"/>
	<polygon class="st2" points="829.19,186.86 829.19,189.65 829.19,189.86 832.19,189.86 832.19,189.65 832.19,186.86 	"/>
	<polygon class="st2" points="699.37,103.62 699.37,100.83 696.37,100.83 696.37,103.62 696.37,103.83 699.37,103.83 	"/>
	<polygon class="st2" points="626.46,145.73 626.46,142.94 623.46,142.94 623.46,145.73 623.46,145.94 626.46,145.94 	"/>
	<polygon class="st2" points="628.83,232.93 628.83,235.73 628.83,235.93 631.83,235.93 631.83,235.73 631.83,232.93 	"/>
	<polygon class="st2" points="578.87,258.42 578.87,261.22 578.87,261.42 581.87,261.42 581.87,261.22 581.87,258.42 	"/>
	<polygon class="st2" points="594.68,236.62 594.68,236.42 594.68,233.62 591.68,233.62 591.68,236.42 591.68,236.62 	"/>
	<polygon class="st2" points="661.97,212.74 661.97,215.54 661.97,215.74 664.97,215.74 664.97,215.54 664.97,212.74 	"/>
	<polygon class="st2" points="595.68,102.85 595.68,105.64 595.68,105.85 598.68,105.85 598.68,105.64 598.68,102.85 	"/>
	<polygon class="st2" points="448.52,130.27 448.52,127.47 445.52,127.47 445.52,130.27 445.52,130.47 448.52,130.47 	"/>
	<polygon class="st2" points="425.72,182.98 425.72,185.78 425.72,185.98 428.72,185.98 428.72,185.78 428.72,182.98 	"/>
	<polygon class="st2" points="530.27,187.93 530.27,187.72 530.27,184.93 527.27,184.93 527.27,187.72 527.27,187.93 	"/>
	<polygon class="st2" points="340.03,93.31 340.03,96.1 340.03,96.31 343.03,96.31 343.03,96.1 343.03,93.31 	"/>
	<polygon class="st2" points="378.15,215.47 378.15,218.27 378.15,218.47 381.15,218.47 381.15,218.27 381.15,215.47 	"/>
	<polygon class="st2" points="412.98,249.68 412.98,252.47 412.98,252.68 415.98,252.68 415.98,252.47 415.98,249.68 	"/>
	<polygon class="st2" points="438.07,148.84 438.07,151.64 438.07,151.84 441.07,151.84 441.07,151.64 441.07,148.84 	"/>
	<polygon class="st2" points="424.22,144.05 424.22,143.85 424.22,141.05 421.22,141.05 421.22,143.85 421.22,144.05 	"/>
	<polygon class="st2" points="421.47,160.67 421.47,163.46 421.47,163.67 424.47,163.67 424.47,163.46 424.47,160.67 	"/>
	<polygon class="st2" points="406.97,211.59 406.97,214.38 406.97,214.59 409.97,214.59 409.97,214.38 409.97,211.59 	"/>
	<polygon class="st2" points="443.57,204.39 443.57,207.19 443.57,207.39 446.57,207.39 446.57,207.19 446.57,204.39 	"/>
	<polygon class="st2" points="505.37,242.69 505.37,245.49 505.37,245.69 508.37,245.69 508.37,245.49 508.37,242.69 	"/>
	<polygon class="st2" points="460.05,263.73 460.05,263.53 460.05,260.73 457.05,260.73 457.05,263.53 457.05,263.73 	"/>
	<polygon class="st2" points="508.8,316.23 508.8,319.03 508.8,319.23 511.8,319.23 511.8,319.03 511.8,316.23 	"/>
	<polygon class="st2" points="513.08,312.33 513.08,315.13 513.08,315.33 516.08,315.33 516.08,315.13 516.08,312.33 	"/>
	<polygon class="st2" points="537.6,295.18 537.6,294.97 537.6,292.18 534.6,292.18 534.6,294.97 534.6,295.18 	"/>
	<polygon class="st2" points="551.17,296.46 551.17,299.25 551.17,299.46 554.17,299.46 554.17,299.25 554.17,296.46 	"/>
	<polygon class="st2" points="526.43,335.21 526.43,335.01 526.43,332.21 523.43,332.21 523.43,335.01 523.43,335.21 	"/>
	<polygon class="st2" points="559.38,338.74 559.38,341.54 559.38,341.74 562.38,341.74 562.38,341.54 562.38,338.74 	"/>
	<polygon class="st2" points="599.17,336.4 599.17,339.2 599.17,339.4 602.17,339.4 602.17,339.2 602.17,336.4 	"/>
	<polygon class="st2" points="593.45,323.48 593.45,326.28 593.45,326.48 596.45,326.48 596.45,326.28 596.45,323.48 	"/>
	<polygon class="st2" points="527.98,294.9 527.98,294.7 527.98,291.9 524.98,291.9 524.98,294.7 524.98,294.9 	"/>
	<polygon class="st2" points="537.46,345.87 537.46,343.07 534.46,343.07 534.46,345.87 534.46,346.07 537.46,346.07 	"/>
	<polygon class="st2" points="610.25,392.95 610.25,395.75 610.25,395.95 613.25,395.95 613.25,395.75 613.25,392.95 	"/>
	<polygon class="st2" points="526.3,372.03 526.3,374.82 526.3,375.03 529.3,375.03 529.3,374.82 529.3,372.03 	"/>
	<polygon class="st2" points="448.29,334.62 448.29,337.41 448.29,337.62 451.29,337.62 451.29,337.41 451.29,334.62 	"/>
	<polygon class="st2" points="390.08,393.6 390.08,396.4 390.08,396.6 393.08,396.6 393.08,396.4 393.08,393.6 	"/>
	<polygon class="st2" points="511.94,407.44 511.94,410.24 511.94,410.44 514.94,410.44 514.94,410.24 514.94,407.44 	"/>
	<polygon class="st2" points="457.86,310.51 457.86,313.3 457.86,313.51 460.86,313.51 460.86,313.3 460.86,310.51 	"/>
	<polygon class="st2" points="488.6,431.67 488.6,434.47 488.6,434.67 491.6,434.67 491.6,434.47 491.6,431.67 	"/>
	<polygon class="st2" points="459.55,347.78 459.55,347.57 459.55,344.78 456.55,344.78 456.55,347.57 456.55,347.78 	"/>
	<polygon class="st2" points="471.19,437.47 471.19,440.27 471.19,440.47 474.19,440.47 474.19,440.27 474.19,437.47 	"/>
	<polygon class="st2" points="458.44,416.99 458.44,419.79 458.44,419.99 461.44,419.99 461.44,419.79 461.44,416.99 	"/>
	<polygon class="st2" points="420.21,409.73 420.21,412.53 420.21,412.73 423.21,412.73 423.21,412.53 423.21,409.73 	"/>
	<polygon class="st2" points="347.82,173.64 347.82,176.44 347.82,176.64 350.82,176.64 350.82,176.44 350.82,173.64 	"/>
	<polygon class="st2" points="251.17,242.56 251.17,245.36 251.17,245.56 254.17,245.56 254.17,245.36 254.17,242.56 	"/>
	<polygon class="st2" points="199.15,149.43 199.15,152.22 199.15,152.43 202.15,152.43 202.15,152.22 202.15,149.43 	"/>
	<polygon class="st2" points="142.83,160.56 142.83,163.35 142.83,163.56 145.83,163.56 145.83,163.35 145.83,160.56 	"/>
	<polygon class="st2" points="22.89,288.9 22.89,291.7 22.89,291.9 25.89,291.9 25.89,291.7 25.89,288.9 	"/>
	<polygon class="st2" points="23.88,259.17 23.88,261.96 23.88,262.17 26.88,262.17 26.88,261.96 26.88,259.17 	"/>
	<polygon class="st2" points="13.44,113.9 13.44,116.7 13.44,116.9 16.44,116.9 16.44,116.7 16.44,113.9 	"/>
	<polygon class="st2" points="7.98,182.54 7.98,185.34 7.98,185.54 10.98,185.54 10.98,185.34 10.98,182.54 	"/>
	<path class="st2" d="M29.28,211.33c0,0.83,0.67,1.5,1.5,1.5v-3C29.95,209.83,29.28,210.5,29.28,211.33z"/>
	<polygon class="st2" points="187.12,175.56 187.12,175.36 187.12,172.56 184.12,172.56 184.12,175.36 184.12,175.56 	"/>
	<polygon class="st2" points="168.4,154.48 168.4,157.27 168.4,157.48 171.4,157.48 171.4,157.27 171.4,154.48 	"/>
	<polygon class="st2" points="224.78,180.45 224.78,183.25 224.78,183.45 227.78,183.45 227.78,183.25 227.78,180.45 	"/>
	<polygon class="st2" points="246.01,145.11 246.01,144.9 246.01,142.11 243.01,142.11 243.01,144.9 243.01,145.11 	"/>
	<polygon class="st2" points="263.25,216.66 263.25,219.45 263.25,219.66 266.25,219.66 266.25,219.45 266.25,216.66 	"/>
	<polygon class="st2" points="306.8,216.36 306.8,219.16 306.8,219.36 309.8,219.36 309.8,219.16 309.8,216.36 	"/>
	<polygon class="st2" points="347.26,267.05 347.26,269.84 347.26,270.05 350.26,270.05 350.26,269.84 350.26,267.05 	"/>
	<polygon class="st2" points="282.54,202.02 282.54,204.81 282.54,205.02 285.54,205.02 285.54,204.81 285.54,202.02 	"/>
	<polygon class="st2" points="395.09,269.79 395.09,267 392.09,267 392.09,269.79 392.09,270 395.09,270 	"/>
	<polygon class="st2" points="427.9,216.22 427.9,216.01 427.9,213.22 424.9,213.22 424.9,216.01 424.9,216.22 	"/>
	<polygon class="st2" points="426.66,221.03 426.66,223.82 426.66,224.03 429.66,224.03 429.66,223.82 429.66,221.03 	"/>
	<polygon class="st2" points="509.7,190.66 509.7,190.87 512.7,190.87 512.7,190.66 512.7,187.87 509.7,187.87 	"/>
	<polygon class="st2" points="401.63,258.98 401.63,261.77 401.63,261.98 404.63,261.98 404.63,261.77 404.63,258.98 	"/>
	<polygon class="st2" points="466.64,257.27 466.64,260.06 466.64,260.27 469.64,260.27 469.64,260.06 469.64,257.27 	"/>
	<polygon class="st2" points="426.08,269.71 426.08,272.51 426.08,272.71 429.08,272.71 429.08,272.51 429.08,269.71 	"/>
	<polygon class="st2" points="474.11,281.81 474.11,284.6 474.11,284.81 477.11,284.81 477.11,284.6 477.11,281.81 	"/>
	<polygon class="st2" points="544.21,329.31 544.21,332.1 544.21,332.31 547.21,332.31 547.21,332.1 547.21,329.31 	"/>
	<polygon class="st2" points="617.24,349.81 617.24,352.6 617.24,352.81 620.24,352.81 620.24,352.6 620.24,349.81 	"/>
	<polygon class="st2" points="643.34,368.3 643.34,371.1 643.34,371.3 646.34,371.3 646.34,371.1 646.34,368.3 	"/>
	<polygon class="st2" points="768.12,367.87 768.12,370.66 768.12,370.87 771.12,370.87 771.12,370.66 771.12,367.87 	"/>
	<polygon class="st2" points="797.02,377.93 797.02,380.72 797.02,380.93 800.02,380.93 800.02,380.72 800.02,377.93 	"/>
	<polygon class="st2" points="799.24,322.28 799.24,325.07 799.24,325.28 802.24,325.28 802.24,325.07 802.24,322.28 	"/>
	<polygon class="st2" points="818.4,307.48 818.4,310.28 818.4,310.48 821.4,310.48 821.4,310.28 821.4,307.48 	"/>
	<polygon class="st2" points="805.51,336.77 805.51,339.56 805.51,339.77 808.51,339.77 808.51,339.56 808.51,336.77 	"/>
	<polygon class="st2" points="879.61,328.73 879.61,331.53 879.61,331.73 882.61,331.73 882.61,331.53 882.61,328.73 	"/>
	<polygon class="st2" points="843.25,359.81 843.25,362.6 843.25,362.81 846.25,362.81 846.25,362.6 846.25,359.81 	"/>
	<polygon class="st2" points="867.22,422.84 867.22,425.63 867.22,425.84 870.22,425.84 870.22,425.63 870.22,422.84 	"/>
	<polygon class="st2" points="793.01,435.23 793.01,438.02 793.01,438.23 796.01,438.23 796.01,438.02 796.01,435.23 	"/>
	<polygon class="st2" points="765.38,384.67 765.38,384.46 765.38,381.67 762.38,381.67 762.38,384.46 762.38,384.67 	"/>
	<polygon class="st2" points="773.17,400.96 773.17,403.76 773.17,403.96 776.17,403.96 776.17,403.76 776.17,400.96 	"/>
	<polygon class="st2" points="850.72,363.33 850.72,366.12 850.72,366.33 853.72,366.33 853.72,366.12 853.72,363.33 	"/>
	<polygon class="st2" points="902.21,384.03 902.21,386.83 902.21,387.03 905.21,387.03 905.21,386.83 905.21,384.03 	"/>
	<polygon class="st2" points="888.97,345.03 888.97,347.82 888.97,348.03 891.97,348.03 891.97,347.82 891.97,345.03 	"/>
	<polygon class="st2" points="870.09,291.41 870.09,291.21 870.09,288.41 867.09,288.41 867.09,291.21 867.09,291.41 	"/>
	<polygon class="st2" points="916.42,336.09 916.42,338.89 916.42,339.09 919.42,339.09 919.42,338.89 919.42,336.09 	"/>
	<polygon class="st2" points="941.31,330.48 941.31,333.28 941.31,333.48 944.31,333.48 944.31,333.28 944.31,330.48 	"/>
	<polygon class="st2" points="975.02,380.45 975.02,383.24 975.02,383.45 978.02,383.45 978.02,383.24 978.02,380.45 	"/>
	<polygon class="st2" points="966.24,394.08 966.24,396.88 966.24,397.08 969.24,397.08 969.24,396.88 969.24,394.08 	"/>
	<polygon class="st2" points="934.9,334.67 934.9,337.47 934.9,337.67 937.9,337.67 937.9,337.47 937.9,334.67 	"/>
	<polygon class="st2" points="929.22,404.83 929.22,407.62 929.22,407.83 932.22,407.83 932.22,407.62 932.22,404.83 	"/>
	<polygon class="st2" points="971.97,373.01 971.97,375.8 971.97,376.01 974.97,376.01 974.97,375.8 974.97,373.01 	"/>
	<polygon class="st2" points="1005.65,332.16 1005.65,334.96 1005.65,335.16 1008.65,335.16 1008.65,334.96 1008.65,332.16 	"/>
	<polygon class="st2" points="1012.52,333.67 1012.52,330.87 1009.52,330.87 1009.52,333.67 1009.52,333.87 1012.52,333.87 	"/>
	<polygon class="st2" points="1011.9,405.21 1011.9,408.01 1011.9,408.21 1014.9,408.21 1014.9,408.01 1014.9,405.21 	"/>
	<polygon class="st2" points="1062.56,421.98 1062.56,424.77 1062.56,424.98 1065.56,424.98 1065.56,424.77 1065.56,421.98 	"/>
	<polygon class="st2" points="1048.91,365.48 1048.91,368.28 1048.91,368.48 1051.91,368.48 1051.91,368.28 1051.91,365.48 	"/>
	<polygon class="st2" points="1043.18,407.38 1043.18,410.18 1043.18,410.38 1046.18,410.38 1046.18,410.18 1046.18,407.38 	"/>
	<polygon class="st2" points="1095.52,408.99 1095.52,411.79 1095.52,411.99 1098.52,411.99 1098.52,411.79 1098.52,408.99 	"/>
	<polygon class="st2" points="1087.02,386.74 1087.02,389.53 1087.02,389.74 1090.02,389.74 1090.02,389.53 1090.02,386.74 	"/>
	<polygon class="st2" points="1091.77,428.24 1091.77,431.03 1091.77,431.24 1094.77,431.24 1094.77,431.03 1094.77,428.24 	"/>
	<polygon class="st2" points="1173.72,432.05 1173.72,434.84 1173.72,435.05 1176.72,435.05 1176.72,434.84 1176.72,432.05 	"/>
	<polygon class="st2" points="1230.47,410.94 1230.47,413.73 1230.47,413.94 1233.47,413.94 1233.47,413.73 1233.47,410.94 	"/>
	<polygon class="st2" points="1425.46,405.03 1425.46,407.82 1425.46,408.03 1428.46,408.03 1428.46,407.82 1428.46,405.03 	"/>
	<polygon class="st2" points="1574.36,196.01 1574.36,198.81 1574.36,199.01 1577.36,199.01 1577.36,198.81 1577.36,196.01 	"/>
	<polygon class="st2" points="1528.28,154.51 1528.28,154.31 1528.28,151.51 1525.28,151.51 1525.28,154.31 1525.28,154.51 	"/>
	<polygon class="st2" points="1525.81,198 1525.81,200.79 1525.81,201 1528.81,201 1528.81,200.79 1528.81,198 	"/>
	<polygon class="st2" points="1181.33,336.2 1181.33,338.99 1181.33,339.2 1184.33,339.2 1184.33,338.99 1184.33,336.2 	"/>
	<polygon class="st2" points="1135.94,337.65 1135.94,340.45 1135.94,340.65 1138.94,340.65 1138.94,340.45 1138.94,337.65 	"/>
	<polygon class="st2" points="1197.65,343.16 1197.65,345.96 1197.65,346.16 1200.65,346.16 1200.65,345.96 1200.65,343.16 	"/>
	<polygon class="st2" points="1183.01,326.07 1183.01,325.87 1183.01,323.07 1180.01,323.07 1180.01,325.87 1180.01,326.07 	"/>
	<polygon class="st2" points="1166.35,258.26 1166.35,261.05 1166.35,261.26 1169.35,261.26 1169.35,261.05 1169.35,258.26 	"/>
	<polygon class="st2" points="1154.35,220.57 1154.35,223.36 1154.35,223.57 1157.35,223.57 1157.35,223.36 1157.35,220.57 	"/>
	<polygon class="st2" points="1182.99,142.75 1182.99,145.54 1182.99,145.75 1185.99,145.75 1185.99,145.54 1185.99,142.75 	"/>
	<polygon class="st2" points="1067.81,164.52 1067.81,167.31 1067.81,167.52 1070.81,167.52 1070.81,167.31 1070.81,164.52 	"/>
	<polygon class="st2" points="981.29,278.28 981.29,281.07 981.29,281.28 984.29,281.28 984.29,281.07 984.29,278.28 	"/>
	<polygon class="st2" points="1111.18,303.62 1111.18,306.41 1111.18,306.62 1114.18,306.62 1114.18,306.41 1114.18,303.62 	"/>
	<polygon class="st2" points="1121.93,322.73 1121.93,322.52 1121.93,319.73 1118.93,319.73 1118.93,322.52 1118.93,322.73 	"/>
	<polygon class="st2" points="1165.58,382.51 1165.58,385.3 1165.58,385.51 1168.58,385.51 1168.58,385.3 1168.58,382.51 	"/>
	<polygon class="st2" points="1541.36,272.34 1541.36,275.14 1541.36,275.34 1544.36,275.34 1544.36,275.14 1544.36,272.34 	"/>
	<polygon class="st2" points="1558.24,228.21 1558.24,231 1558.24,231.21 1561.24,231.21 1561.24,231 1561.24,228.21 	"/>
	<polygon class="st2" points="1589.5,162.16 1589.5,164.96 1589.5,165.16 1592.5,165.16 1592.5,164.96 1592.5,162.16 	"/>
	<polygon class="st2" points="1548.89,105.3 1548.89,108.09 1548.89,108.3 1551.89,108.3 1551.89,108.09 1551.89,105.3 	"/>
	<polygon class="st2" points="1286.71,89.99 1286.71,92.79 1286.71,92.99 1289.71,92.99 1289.71,92.79 1289.71,89.99 	"/>
	<polygon class="st2" points="1267.63,100.87 1267.63,103.66 1267.63,103.87 1270.63,103.87 1270.63,103.66 1270.63,100.87 	"/>
	<polygon class="st2" points="1182.59,160.47 1182.59,163.26 1182.59,163.47 1185.59,163.47 1185.59,163.26 1185.59,160.47 	"/>
	<polygon class="st2" points="1131.26,122.46 1131.26,125.26 1131.26,125.46 1134.26,125.46 1134.26,125.26 1134.26,122.46 	"/>
	<polygon class="st2" points="1168.99,136.9 1168.99,139.7 1168.99,139.9 1171.99,139.9 1171.99,139.7 1171.99,136.9 	"/>
	<polygon class="st2" points="1142.8,115.28 1142.8,118.07 1142.8,118.28 1145.8,118.28 1145.8,118.07 1145.8,115.28 	"/>
	<polygon class="st2" points="1154.46,119.68 1154.46,122.48 1154.46,122.68 1157.46,122.68 1157.46,122.48 1157.46,119.68 	"/>
	<polygon class="st2" points="1174.41,96.32 1174.41,93.52 1171.41,93.52 1171.41,96.32 1171.41,96.52 1174.41,96.52 	"/>
	<polygon class="st2" points="1124.4,124.36 1124.4,127.15 1124.4,127.36 1127.4,127.36 1127.4,127.15 1127.4,124.36 	"/>
	<polygon class="st2" points="1097.75,150.25 1097.75,153.04 1097.75,153.25 1100.75,153.25 1100.75,153.04 1100.75,150.25 	"/>
	<polygon class="st2" points="1021.05,138.47 1021.05,141.26 1021.05,141.47 1024.05,141.47 1024.05,141.26 1024.05,138.47 	"/>
	<polygon class="st2" points="1012.64,98.06 1012.64,97.86 1012.64,95.06 1009.64,95.06 1009.64,97.86 1009.64,98.06 	"/>
	<polygon class="st2" points="1012.2,128.59 1012.2,128.39 1012.2,125.59 1009.2,125.59 1009.2,128.39 1009.2,128.59 	"/>
	<polygon class="st2" points="1099.55,117.35 1099.55,120.14 1099.55,120.35 1102.55,120.35 1102.55,120.14 1102.55,117.35 	"/>
	<polygon class="st2" points="957.17,108.13 957.17,107.92 957.17,105.13 954.17,105.13 954.17,107.92 954.17,108.13 	"/>
	<polygon class="st2" points="891.42,137.45 891.42,137.25 891.42,134.45 888.42,134.45 888.42,137.25 888.42,137.45 	"/>
	<polygon class="st2" points="867.99,140.44 867.99,137.64 864.99,137.64 864.99,140.44 864.99,140.64 867.99,140.64 	"/>
	<polygon class="st2" points="841.66,136.74 841.66,136.94 844.66,136.94 844.66,136.74 844.66,133.94 841.66,133.94 	"/>
	<polygon class="st2" points="842.2,104.15 842.2,101.35 839.2,101.35 839.2,104.15 839.2,104.35 842.2,104.35 	"/>
	<polygon class="st2" points="784.53,133.38 784.53,130.59 781.53,130.59 781.53,133.38 781.53,133.59 784.53,133.59 	"/>
	<polygon class="st2" points="735.69,127.98 735.69,130.78 735.69,130.98 738.69,130.98 738.69,130.78 738.69,127.98 	"/>
	<polygon class="st2" points="561.04,120.88 561.04,120.67 561.04,117.88 558.04,117.88 558.04,120.67 558.04,120.88 	"/>
	<polygon class="st2" points="564.06,156.7 564.06,156.49 564.06,153.7 561.06,153.7 561.06,156.49 561.06,156.7 	"/>
	<polygon class="st2" points="584.67,129.32 584.67,132.11 584.67,132.32 587.67,132.32 587.67,132.11 587.67,129.32 	"/>
	<polygon class="st2" points="572.84,184.21 572.84,187.01 572.84,187.21 575.84,187.21 575.84,187.01 575.84,184.21 	"/>
	<polygon class="st2" points="560.84,102.34 560.84,102.13 560.84,99.34 557.84,99.34 557.84,102.13 557.84,102.34 	"/>
	<polygon class="st2" points="612.6,181.9 612.6,184.69 612.6,184.9 615.6,184.9 615.6,184.69 615.6,181.9 	"/>
	<polygon class="st2" points="561.26,243.95 561.26,246.74 561.26,246.95 564.26,246.95 564.26,246.74 564.26,243.95 	"/>
	<polygon class="st2" points="576.96,329.68 576.96,332.48 576.96,332.68 579.96,332.68 579.96,332.48 579.96,329.68 	"/>
	<polygon class="st2" points="651.29,335.88 651.29,338.68 651.29,338.88 654.29,338.88 654.29,338.68 654.29,335.88 	"/>
	<polygon class="st2" points="690.95,346.77 690.95,343.98 687.95,343.98 687.95,346.77 687.95,346.98 690.95,346.98 	"/>
	<polygon class="st2" points="745.72,303.34 745.72,306.14 745.72,306.34 748.72,306.34 748.72,306.14 748.72,303.34 	"/>
	<polygon class="st2" points="843.78,264.98 843.78,262.19 840.78,262.19 840.78,264.98 840.78,265.19 843.78,265.19 	"/>
	<polygon class="st2" points="851.2,210.51 851.2,210.3 851.2,207.51 848.2,207.51 848.2,210.3 848.2,210.51 	"/>
	<polygon class="st2" points="807.7,104.96 807.7,104.76 807.7,101.96 804.7,101.96 804.7,104.76 804.7,104.96 	"/>
	<polygon class="st2" points="742.27,175.62 742.27,178.41 742.27,178.62 745.27,178.62 745.27,178.41 745.27,175.62 	"/>
	<polygon class="st2" points="724.22,86.2 724.22,88.99 724.22,89.2 727.22,89.2 727.22,88.99 727.22,86.2 	"/>
	<polygon class="st2" points="652.1,133.04 652.1,130.25 649.1,130.25 649.1,133.04 649.1,133.25 652.1,133.25 	"/>
	<polygon class="st2" points="510.02,137.35 510.02,134.56 507.02,134.56 507.02,137.35 507.02,137.56 510.02,137.56 	"/>
	<polygon class="st2" points="450.69,106.62 450.69,106.41 450.69,103.62 447.69,103.62 447.69,106.41 447.69,106.62 	"/>
	<polygon class="st2" points="392.3,189.38 392.3,189.17 392.3,186.38 389.3,186.38 389.3,189.17 389.3,189.38 	"/>
	<polygon class="st2" points="340.78,185.98 340.78,185.77 340.78,182.98 337.78,182.98 337.78,185.77 337.78,185.98 	"/>
	<polygon class="st2" points="300.04,97.88 300.04,100.67 300.04,100.88 303.04,100.88 303.04,100.67 303.04,97.88 	"/>
	<polygon class="st2" points="322.77,187.77 322.77,190.56 322.77,190.77 325.77,190.77 325.77,190.56 325.77,187.77 	"/>
	<polygon class="st2" points="354.9,135.27 354.9,138.07 354.9,138.27 357.9,138.27 357.9,138.07 357.9,135.27 	"/>
	<polygon class="st2" points="427.43,110.01 427.43,109.8 427.43,107.01 424.43,107.01 424.43,109.8 424.43,110.01 	"/>
	<polygon class="st2" points="413.65,125.17 413.65,127.96 413.65,128.17 416.65,128.17 416.65,127.96 416.65,125.17 	"/>
	<polygon class="st2" points="397.84,141.93 397.84,144.72 397.84,144.93 400.84,144.93 400.84,144.72 400.84,141.93 	"/>
	<polygon class="st2" points="339.19,187.09 339.19,189.88 339.19,190.09 342.19,190.09 342.19,189.88 342.19,187.09 	"/>
	<polygon class="st2" points="269.3,160.6 269.3,163.39 269.3,163.6 272.3,163.6 272.3,163.39 272.3,160.6 	"/>
	<polygon class="st2" points="234.53,156.94 234.53,159.74 234.53,159.94 237.53,159.94 237.53,159.74 237.53,156.94 	"/>
	<polygon class="st2" points="210.89,133 210.89,135.79 210.89,136 213.89,136 213.89,135.79 213.89,133 	"/>
	<polygon class="st2" points="190.66,217.73 190.66,220.52 190.66,220.73 193.66,220.73 193.66,220.52 193.66,217.73 	"/>
	<polygon class="st2" points="204.52,212.31 204.52,215.11 204.52,215.31 207.52,215.31 207.52,215.11 207.52,212.31 	"/>
	<polygon class="st2" points="372.12,254.4 372.12,257.19 372.12,257.4 375.12,257.4 375.12,257.19 375.12,254.4 	"/>
	<polygon class="st2" points="330.08,135.89 330.08,138.69 330.08,138.89 333.08,138.89 333.08,138.69 333.08,135.89 	"/>
	<polygon class="st2" points="170.69,104.84 170.69,104.63 170.69,101.84 167.69,101.84 167.69,104.63 167.69,104.84 	"/>
	<polygon class="st2" points="128.39,144.97 128.39,147.77 128.39,147.97 131.39,147.97 131.39,147.77 131.39,144.97 	"/>
	<polygon class="st2" points="114.37,117.61 114.37,120.4 114.37,120.61 117.37,120.61 117.37,120.4 117.37,117.61 	"/>
	<polygon class="st2" points="114.37,152.31 114.37,155.1 114.37,155.31 117.37,155.31 117.37,155.1 117.37,152.31 	"/>
	<polygon class="st2" points="185.25,253.41 185.25,256.21 185.25,256.41 188.25,256.41 188.25,256.21 188.25,253.41 	"/>
	<polygon class="st2" points="243.18,247.37 243.18,250.16 243.18,250.37 246.18,250.37 246.18,250.16 246.18,247.37 	"/>
	<polygon class="st2" points="289.8,222.6 289.8,225.39 289.8,225.6 292.8,225.6 292.8,225.39 292.8,222.6 	"/>
	<polygon class="st2" points="347.54,199.26 347.54,202.05 347.54,202.26 350.54,202.26 350.54,202.05 350.54,199.26 	"/>
	<polygon class="st2" points="420.94,261.07 420.94,263.87 420.94,264.07 423.94,264.07 423.94,263.87 423.94,261.07 	"/>
	<polygon class="st2" points="449.77,202.27 449.77,205.07 449.77,205.27 452.77,205.27 452.77,205.07 452.77,202.27 	"/>
	<polygon class="st2" points="493.15,247.17 493.15,244.37 490.15,244.37 490.15,247.17 490.15,247.37 493.15,247.37 	"/>
	<polygon class="st2" points="532.84,222.89 532.84,222.69 532.84,219.89 529.84,219.89 529.84,222.69 529.84,222.89 	"/>
	<polygon class="st2" points="537.66,302.09 537.66,304.88 537.66,305.09 540.66,305.09 540.66,304.88 540.66,302.09 	"/>
	<polygon class="st2" points="527.16,350.95 527.16,348.15 524.16,348.15 524.16,350.95 524.16,351.15 527.16,351.15 	"/>
	<polygon class="st2" points="394.69,405.32 394.69,408.11 394.69,408.32 397.69,408.32 397.69,408.11 397.69,405.32 	"/>
	<polygon class="st2" points="437.17,417.37 437.17,420.16 437.17,420.37 440.17,420.37 440.17,420.16 440.17,417.37 	"/>
	<polygon class="st2" points="466.48,418.47 466.48,421.27 466.48,421.47 469.48,421.47 469.48,421.27 469.48,418.47 	"/>
	<polygon class="st2" points="460.43,381.68 460.43,381.47 460.43,378.68 457.43,378.68 457.43,381.47 457.43,381.68 	"/>
	<polygon class="st2" points="433.8,367.19 433.8,369.99 433.8,370.19 436.8,370.19 436.8,369.99 436.8,367.19 	"/>
	<polygon class="st2" points="492.37,385.84 492.37,388.63 492.37,388.84 495.37,388.84 495.37,388.63 495.37,385.84 	"/>
	<polygon class="st2" points="522.63,453.55 522.63,456.34 522.63,456.55 525.63,456.55 525.63,456.34 525.63,453.55 	"/>
	<polygon class="st2" points="536.27,439.13 536.27,441.92 536.27,442.13 539.27,442.13 539.27,441.92 539.27,439.13 	"/>
	<polygon class="st2" points="590.26,417.28 590.26,420.07 590.26,420.28 593.26,420.28 593.26,420.07 593.26,417.28 	"/>
	<polygon class="st2" points="1050.78,292.18 1050.78,294.98 1050.78,295.18 1053.78,295.18 1053.78,294.98 1053.78,292.18 	"/>
	<polygon class="st2" points="931.23,281.69 931.23,281.48 931.23,278.69 928.23,278.69 928.23,281.48 928.23,281.69 	"/>
	<polygon class="st2" points="857.92,259.44 857.92,259.23 857.92,256.44 854.92,256.44 854.92,259.23 854.92,259.44 	"/>
	<polygon class="st2" points="775.77,344.38 775.77,347.17 775.77,347.38 778.77,347.38 778.77,347.17 778.77,344.38 	"/>
	<polygon class="st2" points="690.58,373.89 690.58,376.68 690.58,376.89 693.58,376.89 693.58,376.68 693.58,373.89 	"/>
	<polygon class="st2" points="642.06,347.57 642.06,344.78 639.06,344.78 639.06,347.57 639.06,347.78 642.06,347.78 	"/>
	<polygon class="st2" points="685.74,395.39 685.74,398.19 685.74,398.39 688.74,398.39 688.74,398.19 688.74,395.39 	"/>
	<polygon class="st2" points="685.99,309.27 685.99,312.06 685.99,312.27 688.99,312.27 688.99,312.06 688.99,309.27 	"/>
	<polygon class="st2" points="763.27,391.23 763.27,394.02 763.27,394.23 766.27,394.23 766.27,394.02 766.27,391.23 	"/>
	<polygon class="st2" points="824.16,395.6 824.16,398.39 824.16,398.6 827.16,398.6 827.16,398.39 827.16,395.6 	"/>
	<polygon class="st2" points="903.66,339.46 903.66,336.67 900.66,336.67 900.66,339.46 900.66,339.67 903.66,339.67 	"/>
	<polygon class="st2" points="921.48,417.99 921.48,420.79 921.48,420.99 924.48,420.99 924.48,420.79 924.48,417.99 	"/>
	<polygon class="st2" points="966.91,370.34 966.91,367.55 963.91,367.55 963.91,370.34 963.91,370.55 966.91,370.55 	"/>
	<polygon class="st2" points="1045.77,378.76 1045.77,378.55 1045.77,375.76 1042.77,375.76 1042.77,378.55 1042.77,378.76 	"/>
	<polygon class="st2" points="1119.51,325.44 1119.51,328.24 1119.51,328.44 1122.51,328.44 1122.51,328.24 1122.51,325.44 	"/>
	<polygon class="st2" points="1155.23,169.08 1155.23,166.29 1152.23,166.29 1152.23,169.08 1152.23,169.29 1155.23,169.29 	"/>
	<polygon class="st2" points="1045.1,123.55 1045.1,126.35 1045.1,126.55 1048.1,126.55 1048.1,126.35 1048.1,123.55 	"/>
	<polygon class="st2" points="950.24,177.23 950.24,180.02 950.24,180.23 953.24,180.23 953.24,180.02 953.24,177.23 	"/>
	<polygon class="st2" points="855.37,260.26 855.37,263.05 855.37,263.26 858.37,263.26 858.37,263.05 858.37,260.26 	"/>
	<polygon class="st2" points="923.29,285.51 923.29,285.31 923.29,282.51 920.29,282.51 920.29,285.31 920.29,285.51 	"/>
	<polygon class="st2" points="1076.91,335.38 1076.91,338.17 1076.91,338.38 1079.91,338.38 1079.91,338.17 1079.91,335.38 	"/>
	<polygon class="st2" points="1087.09,220.03 1087.09,222.83 1087.09,223.03 1090.09,223.03 1090.09,222.83 1090.09,220.03 	"/>
	<polygon class="st2" points="1138.63,165.54 1138.63,165.33 1138.63,162.54 1135.63,162.54 1135.63,165.33 1135.63,165.54 	"/>
	<polygon class="st2" points="955.98,178.38 955.98,181.18 955.98,181.38 958.98,181.38 958.98,181.18 958.98,178.38 	"/>
	<polygon class="st2" points="880.53,169.55 880.53,166.75 877.53,166.75 877.53,169.55 877.53,169.75 880.53,169.75 	"/>
	<polygon class="st2" points="776.52,134.22 776.52,134.01 776.52,131.22 773.52,131.22 773.52,134.01 773.52,134.22 	"/>
	<polygon class="st2" points="701.66,197.31 701.66,200.1 701.66,200.31 704.66,200.31 704.66,200.1 704.66,197.31 	"/>
	<polygon class="st2" points="705.4,180.95 705.4,183.74 705.4,183.95 708.4,183.95 708.4,183.74 708.4,180.95 	"/>
	<polygon class="st2" points="710.09,212.13 710.09,214.93 710.09,215.13 713.09,215.13 713.09,214.93 713.09,212.13 	"/>
	<polygon class="st2" points="677.29,222.46 677.29,225.25 677.29,225.46 680.29,225.46 680.29,225.25 680.29,222.46 	"/>
	<polygon class="st2" points="656,169.19 656,171.98 656,172.19 659,172.19 659,171.98 659,169.19 	"/>
	<polygon class="st2" points="719.32,260.82 719.32,263.61 719.32,263.82 722.32,263.82 722.32,263.61 722.32,260.82 	"/>
	<polygon class="st2" points="754.37,275.21 754.37,278.01 754.37,278.21 757.37,278.21 757.37,278.01 757.37,275.21 	"/>
	<polygon class="st2" points="784.05,235.41 784.05,238.21 784.05,238.41 787.05,238.41 787.05,238.21 787.05,235.41 	"/>
	<polygon class="st2" points="774.72,221.9 774.72,221.7 774.72,218.9 771.72,218.9 771.72,221.7 771.72,221.9 	"/>
	<polygon class="st2" points="687.73,275.94 687.73,275.73 687.73,272.94 684.73,272.94 684.73,275.73 684.73,275.94 	"/>
	<polygon class="st2" points="620.18,261.81 620.18,261.6 620.18,258.81 617.18,258.81 617.18,261.6 617.18,261.81 	"/>
	<polygon class="st2" points="530.05,272.78 530.05,275.57 530.05,275.78 533.05,275.78 533.05,275.57 533.05,272.78 	"/>
	<polygon class="st2" points="572.62,421.8 572.62,424.6 572.62,424.8 575.62,424.8 575.62,424.6 575.62,421.8 	"/>
	<polygon class="st2" points="625.81,304.95 625.81,307.74 625.81,307.95 628.81,307.95 628.81,307.74 628.81,304.95 	"/>
	<polygon class="st2" points="750.16,318.29 750.16,321.08 750.16,321.29 753.16,321.29 753.16,321.08 753.16,318.29 	"/>
	<polygon class="st2" points="646.08,177.86 646.08,177.65 646.08,174.86 643.08,174.86 643.08,177.65 643.08,177.86 	"/>
	<polygon class="st2" points="566.52,196.22 566.52,199.01 566.52,199.22 569.52,199.22 569.52,199.01 569.52,196.22 	"/>
	<polygon class="st2" points="492.22,158.56 492.22,158.36 492.22,155.56 489.22,155.56 489.22,158.36 489.22,158.56 	"/>
	<polygon class="st2" points="439.95,143.08 439.95,142.88 439.95,140.08 436.95,140.08 436.95,142.88 436.95,143.08 	"/>
	<polygon class="st2" points="378.28,181.14 378.28,178.34 375.28,178.34 375.28,181.14 375.28,181.34 378.28,181.34 	"/>
	<polygon class="st2" points="348.75,104.03 348.75,101.24 345.75,101.24 345.75,104.03 345.75,104.24 348.75,104.24 	"/>
	<polygon class="st2" points="328.29,236.6 328.29,239.4 328.29,239.6 331.29,239.6 331.29,239.4 331.29,236.6 	"/>
	<polygon class="st2" points="396.39,127.04 396.39,126.84 396.39,124.04 393.39,124.04 393.39,126.84 393.39,127.04 	"/>
	<polygon class="st2" points="467.36,217.03 467.36,219.82 467.36,220.03 470.36,220.03 470.36,219.82 470.36,217.03 	"/>
	<polygon class="st2" points="553.85,193.76 553.85,193.56 553.85,190.76 550.85,190.76 550.85,193.56 550.85,193.76 	"/>
	<polygon class="st2" points="595.75,174.25 595.75,174.04 595.75,171.25 592.75,171.25 592.75,174.04 592.75,174.25 	"/>
	<polygon class="st2" points="628.52,278.96 628.52,278.75 628.52,275.96 625.52,275.96 625.52,278.75 625.52,278.96 	"/>
	<polygon class="st2" points="702.01,196.53 702.01,193.74 699.01,193.74 699.01,196.53 699.01,196.74 702.01,196.74 	"/>
</g>
<g id="Hill_and_lake">
</g>
<g id="Palm">
	<g>
		<defs>
			<rect id="SVGID_6_" x="-1025.92" y="-205.46" width="1600" height="900"/>
		</defs>
		<clipPath id="SVGID_3_">
			<use xlink:href="#SVGID_6_"  style="overflow:visible;"/>
		</clipPath>
	</g>
</g>
<g id="Title">
	<polyline class="st18" points="253.46,167.4 227.33,169.16 260,243.88 	"/>
	<path class="st18" d="M241.46,261.06h-58.21c-6.6,0-12-5.4-12-12v-86.49c0-6.6,5.4-12,12-12h58.21c6.6,0,12,5.4,12,12v86.49
		C253.46,255.66,248.06,261.06,241.46,261.06z"/>
	<path class="st17" d="M226.44,269.27h-58.21c-6.6,0-12-5.4-12-12v-86.49c0-6.6,5.4-12,12-12h58.21c6.6,0,12,5.4,12,12v86.49
		C238.44,263.87,233.04,269.27,226.44,269.27z"/>
	<polyline class="st18" points="200.98,150.36 183.46,122 177.13,158.56 	"/>
	<polyline class="st17" points="183.46,122 157.11,165.98 176.08,164.92 	"/>
	<path class="st24" d="M217.33,254.66h-36.5c-5.18,0-9.42-4.24-9.42-9.42v-67.66c0-5.18,4.24-9.42,9.42-9.42h36.5
		c5.18,0,9.42,4.24,9.42,9.42v67.66C226.75,250.42,222.51,254.66,217.33,254.66z"/>
	<path class="st25" d="M213.13,257.71h-27.24c-9.66,0-15.35-9.28-15.35-19.57l0.27-55.08c0-0.57,1.54-6.62,1.84-7.09
		c3.52-5.4,3.83-4.66,9.23-6.22c13.35-3.86,32.55-2.55,36.23,2.12"/>
	<polyline class="st16" points="260,243.88 238.39,187.18 230.92,267.4 	"/>
	<polyline class="st17" points="236.29,190.36 215.73,226.39 228.22,268.55 	"/>
	<polyline class="st18" points="255.26,203.61 249.77,199.09 242.39,232.48 	"/>
	<path class="st24" d="M225.35,174.81c0.79,3.52-6.68,11.68-17.8,11.49c-11.12-0.19-34.55,10.15-32.54-7.3
		c0.72-6.26,19.3-12.79,29.89-12.88C216.01,166.03,224.24,169.89,225.35,174.81z"/>
	<g>
		<path class="st26" d="M107.26,244.84c4.78,3.73,9.94,6.92,15.48,9.56c5.54,2.64,11.49,4.71,17.85,6.18
			c1.54,0.34,2.31,1.19,2.31,2.55c0,1.87-1.14,2.81-3.43,2.81c-5.22,0-12.55-2.61-21.99-7.83c-7.85-4.37-16.85-11.12-26.99-20.26
			v3.49l0.07,14.47v8.26H45.09v-3.83l0.15-27.75l0.22-33.2l-0.15-51.41h29.99c13.43,0,23.57,0.43,30.44,1.28
			c6.86,0.85,12.71,2.44,17.53,4.77c7.86,3.75,14.07,9.9,18.65,18.47c4.23,7.94,6.34,16.29,6.34,25.02c0,9.31-2.36,18.07-7.08,26.3
			C133.58,236.96,122.27,243.99,107.26,244.84z M100.18,239.57l3.58,0.08c10.24,0,18.89-3.26,25.95-9.79
			c4.47-4.09,7.9-9.19,10.29-15.32c2.24-5.62,3.36-11.35,3.36-17.19c0-9.93-2.83-18.81-8.5-26.64c-4.32-6.07-9.74-10.35-16.25-12.85
			c-6.51-2.5-15.68-3.83-27.51-4l-0.67,57.03v15.41l0.08,4C93.53,233.62,96.76,236.71,100.18,239.57z"/>
		<path class="st26" d="M320.43,150.19l-0.45,60.35l0.45,51.24c2.58,0.4,4.72,0.6,6.41,0.6c4.87,0,9.87-0.99,14.98-2.98
			c5.12-1.99,9.64-4.68,13.57-8.09c2.54-2.21,5.16-5.16,7.87-8.85c2.71-3.69,4.88-7.29,6.52-10.81c0.94-2.04,1.96-3.06,3.06-3.06
			c1.64,0,2.46,0.8,2.46,2.38c0,1.7-1.23,4.58-3.7,8.64c-2.46,4.06-5.17,7.7-8.1,10.94c-6.37,6.98-13.86,11.83-22.47,14.56
			c-5.18,1.65-10.15,2.47-14.93,2.47c-6.97,0-13.96-1.7-20.98-5.11c-11.25-5.39-19.81-13.93-25.68-25.62
			c-4.88-9.7-7.32-20-7.32-30.9c0-11.12,2.54-21.62,7.62-31.49c5.42-10.5,13.09-18.53,23-24.09c7.22-3.97,15.01-5.96,23.37-5.96
			c14.33,0,26.73,5.53,37.18,16.6c4.98,5.28,7.47,9.08,7.47,11.41c0,0.63-0.25,1.19-0.75,1.7s-1.04,0.77-1.64,0.77
			c-0.99,0-2.19-1.11-3.58-3.32c-4.27-6.75-9.92-12.1-16.92-16.04c-7.01-3.94-14.41-5.92-22.22-5.92
			C323.81,149.6,322.07,149.8,320.43,150.19z"/>
		<path class="st26" d="M447.95,172.37l11.13,25.7c6.42,14.75,12.02,27.29,16.8,37.61c4.78,10.33,8.34,17.53,10.68,21.61
			c1.44,2.61,2.18,4.34,2.22,5.18c0,2.14-1.29,3.21-3.88,3.21c-1.15,0-1.98-0.41-2.5-1.23c-0.52-0.82-1.83-3.7-3.92-8.64
			l-4.63-10.98l-7.32-17.28l-6.79-16l-5-11.66l-10.83-25.11l-13.66,9.38l-0.07,12.6v8.43l0.43,54.65l0.09,4.26h-45.76l0.45-72.69
			l-0.15-20.68l-0.3-18.13v-4.68h45.76l-0.36,13.61l-0.09,16.5l12.76-8.67c7.22-4.87,13.64-9.47,19.26-13.79
			c5.68-4.24,9.32-6.84,10.91-7.81c1.59-0.96,3.09-1.45,4.48-1.45c2.64,0,3.96,0.94,3.96,2.81c0,0.97-0.36,1.77-1.08,2.43
			c-0.72,0.65-2.4,1.7-5.03,3.13c-3.14,1.69-10.08,6.13-20.82,13.3L447.95,172.37z"/>
		<path class="st26" d="M494.31,244.33c0.9,0,1.94,0.77,3.13,2.3c3.73,4.65,8.3,8.38,13.7,11.19c5.4,2.81,10.74,4.21,16.01,4.21
			c5.82,0,8.73-2.01,8.73-6.04c0-2.55-1.02-5.43-3.06-8.64c-2.04-3.21-6.92-9.55-14.63-19.02c-9.71-11.97-16.18-20.85-19.42-26.64
			c-4.28-7.66-6.42-14.95-6.42-21.88c0-10.44,4.08-18.98,12.24-25.62c8.01-6.52,17.89-9.79,29.64-9.79c8.21,0,15.75,1.9,22.62,5.7
			c2.59,1.48,4.82,3.18,6.68,5.11c1.87,1.93,2.8,3.55,2.8,4.85c0,0.63-0.26,1.21-0.79,1.75c-0.52,0.54-1.06,0.81-1.6,0.81
			c-0.85,0-2.09-0.88-3.73-2.64c-2.69-2.89-6.22-5.29-10.6-7.19c-4.38-1.9-8.58-2.85-12.62-2.85c-2.49,0-4.52,0.61-6.08,1.83
			c-1.57,1.22-2.35,2.8-2.35,4.73c0,2.33,0.97,5.17,2.91,8.52c1.94,3.35,5.22,7.8,9.85,13.36c14.64,17.76,23.6,29.73,26.88,35.91
			c3.43,6.53,5.15,12.83,5.15,18.9c0,5.16-1.22,10.04-3.66,14.64c-2.44,4.6-5.82,8.37-10.15,11.32c-8.26,5.62-18.34,8.43-30.24,8.43
			c-10.95,0-20.58-3.23-28.89-9.7c-5.82-4.54-8.73-8.09-8.73-10.64c0-0.74,0.26-1.4,0.78-2S493.61,244.33,494.31,244.33z"/>
		<path class="st26" d="M626.53,171.9c-2.44,3.63-5.46,6.37-9.07,8.21c-3.61,1.84-7.8,2.77-12.58,2.77c-5.13,0-9.61-1.36-13.44-4.09
			c-4.63-3.23-6.94-7.86-6.94-13.87c0-4.77,1.49-8.88,4.48-12.34c4.68-5.45,10.87-8.17,18.59-8.17c7.02,0,12.69,2.27,17.02,6.81
			c4.18,4.43,6.27,10.41,6.27,17.96c0,4.82-0.9,9.31-2.69,13.45c-1.79,4.14-4.31,7.43-7.54,9.87c-4.73,3.69-11.22,5.53-19.49,5.53
			c-3.68,0-5.52-0.88-5.52-2.64c0-1.36,0.92-2.04,2.76-2.04l2.39,0.09c0.5,0.06,1,0.08,1.49,0.08c5.23,0,9.58-0.88,13.06-2.64
			c4.43-2.21,7.64-6.01,9.63-11.41C625.4,178.17,625.93,175.64,626.53,171.9z"/>
		<path class="st26" d="M737.69,204.47v-14.23l-0.15-22.58l-0.08-10.31l-0.08-6.48c0-3.07,0.92-4.6,2.76-4.6
			c1.09,0,1.85,0.35,2.28,1.06c0.42,0.71,0.63,2.06,0.63,4.04v1.19c-0.05,1.19-0.07,3.15-0.07,5.87l-0.3,28.68l-0.22,26.3
			l0.19,27.66l0.26,27.75c-10.25-7.32-25.26-17.44-45.02-30.36c-19.76-12.92-35.76-23.06-48-30.44l0.07,4.17l0.75,43.94l0.08,5.88
			c0,2.44-1,3.66-2.99,3.66c-2.04,0-3.06-1.5-3.06-4.51l0.08-5.96l0.07-9.62l0.3-43.67l-0.6-58.82
			C664.77,157.38,695.8,177.83,737.69,204.47z"/>
		<path class="st26" d="M879.69,213.52c3.58,2.95,6.26,6.17,8.03,9.66c1.77,3.49,2.65,7.25,2.65,11.28c0,6.53-2.22,12.54-6.64,18.04
			c-5.43,6.81-13.59,10.5-24.49,11.07c-6.02,0.34-14.48,0.51-25.38,0.51h-36.96l0.07-4l0.15-16.51l0.22-32.52l-0.3-35.41
			l-0.15-27.75h40.02c10,0,16.88,0.19,20.64,0.55c3.76,0.37,7.63,1.26,11.61,2.68c4.23,1.53,8.19,3.77,11.87,6.72
			c3.68,2.95,6.54,6.19,8.59,9.7c3.18,5.5,4.78,11.66,4.78,18.47c0,6.13-1.32,11.66-3.96,16.6
			C887.8,207.56,884.22,211.19,879.69,213.52z M873.64,215.73c-2.14,0.51-4.13,0.77-5.97,0.77c-3.93,0-7.11-0.74-9.52-2.21
			c-2.42-1.47-3.62-3.4-3.62-5.79c0-1.3,0.4-1.96,1.19-1.96c0.6,0,1.42,0.28,2.46,0.85c3.43,1.99,7.17,2.98,11.2,2.98
			c7.32,0,12.84-3.29,16.57-9.87c2.39-4.14,3.58-8.88,3.58-14.21c0-8.11-2.76-15.07-8.29-20.85c-3.93-4.2-8.62-7.23-14.07-9.11
			s-12.28-2.81-20.49-2.81h-4.11l-0.45,51.07l0.45,53.88l6.72,0.08c7.42,0,13.19-0.47,17.32-1.4c4.13-0.94,7.56-2.54,10.3-4.81
			c5.67-4.77,8.51-10.78,8.51-18.04c0-3.69-0.98-7.08-2.95-10.17C880.52,221.02,877.57,218.23,873.64,215.73z"/>
		<path class="st26" d="M954.98,140.91l59.69,123.17H962.9l-7.21-15.58h-25l-22.02-0.08l-3.72-0.08l-4.92,10.4
			c-1.44,3.13-2.45,5.07-3.02,5.83c-0.58,0.76-1.29,1.14-2.14,1.14c-1.7,0-2.56-0.85-2.56-2.55c0-0.74,0.49-2.11,1.46-4.13
			c0.97-2.01,4.37-8.64,10.2-19.88l45.19-86.73L954.98,140.91z M931.75,196.83l-13.04,25.02l-10.43,20.61l22.27,0.34l22.34-0.34
			L931.75,196.83z"/>
		<path class="st26" d="M1112.99,204.47v-14.23l-0.15-22.58l-0.07-10.31l-0.07-6.48c0-3.07,0.92-4.6,2.76-4.6
			c1.09,0,1.85,0.35,2.28,1.06c0.42,0.71,0.63,2.06,0.63,4.04v1.19c-0.05,1.19-0.08,3.15-0.08,5.87l-0.3,28.68l-0.22,26.3
			l0.19,27.66l0.26,27.75c-10.25-7.32-25.26-17.44-45.02-30.36c-19.76-12.92-35.76-23.06-48-30.44l0.07,4.17l0.75,43.94l0.07,5.88
			c0,2.44-1,3.66-2.99,3.66c-2.04,0-3.06-1.5-3.06-4.51l0.07-5.96l0.08-9.62l0.3-43.67l-0.6-58.82
			C1040.07,157.38,1071.1,177.83,1112.99,204.47z"/>
		<path class="st26" d="M1187.46,140.91l59.69,123.17h-51.77l-7.21-15.58h-25l-22.02-0.08l-3.72-0.08l-4.92,10.4
			c-1.44,3.13-2.45,5.07-3.02,5.83c-0.58,0.76-1.29,1.14-2.14,1.14c-1.7,0-2.56-0.85-2.56-2.55c0-0.74,0.49-2.11,1.46-4.13
			c0.97-2.01,4.37-8.64,10.2-19.88l45.19-86.73L1187.46,140.91z M1164.24,196.83l-13.04,25.02l-10.43,20.61l22.27,0.34l22.34-0.34
			L1164.24,196.83z"/>
		<path class="st26" d="M1345.48,204.47v-14.23l-0.15-22.58l-0.07-10.31l-0.07-6.48c0-3.07,0.92-4.6,2.76-4.6
			c1.09,0,1.85,0.35,2.28,1.06c0.42,0.71,0.63,2.06,0.63,4.04v1.19c-0.05,1.19-0.08,3.15-0.08,5.87l-0.3,28.68l-0.22,26.3
			l0.19,27.66l0.26,27.75c-10.25-7.32-25.26-17.44-45.02-30.36c-19.76-12.92-35.76-23.06-48-30.44l0.07,4.17l0.75,43.94l0.07,5.88
			c0,2.44-1,3.66-2.99,3.66c-2.04,0-3.06-1.5-3.06-4.51l0.07-5.96l0.08-9.62l0.3-43.67l-0.6-58.82
			C1272.55,157.38,1303.58,177.83,1345.48,204.47z"/>
		<path class="st26" d="M1419.95,140.91l59.69,123.17h-51.77l-7.21-15.58h-25l-22.02-0.08l-3.72-0.08l-4.92,10.4
			c-1.44,3.13-2.45,5.07-3.02,5.83c-0.58,0.76-1.29,1.14-2.14,1.14c-1.7,0-2.56-0.85-2.56-2.55c0-0.74,0.49-2.11,1.46-4.13
			c0.97-2.01,4.37-8.64,10.2-19.88l45.19-86.73L1419.95,140.91z M1396.72,196.83l-13.04,25.02l-10.43,20.61l22.27,0.34l22.34-0.34
			L1396.72,196.83z"/>
		<path class="st26" d="M1485.38,244.33c0.9,0,1.94,0.77,3.14,2.3c3.73,4.65,8.3,8.38,13.7,11.19c5.4,2.81,10.74,4.21,16.01,4.21
			c5.82,0,8.73-2.01,8.73-6.04c0-2.55-1.02-5.43-3.06-8.64c-2.04-3.21-6.92-9.55-14.63-19.02c-9.71-11.97-16.18-20.85-19.42-26.64
			c-4.28-7.66-6.42-14.95-6.42-21.88c0-10.44,4.08-18.98,12.24-25.62c8.01-6.52,17.89-9.79,29.64-9.79c8.21,0,15.75,1.9,22.62,5.7
			c2.59,1.48,4.82,3.18,6.68,5.11c1.87,1.93,2.8,3.55,2.8,4.85c0,0.63-0.26,1.21-0.78,1.75c-0.52,0.54-1.06,0.81-1.61,0.81
			c-0.85,0-2.09-0.88-3.73-2.64c-2.69-2.89-6.22-5.29-10.6-7.19c-4.38-1.9-8.59-2.85-12.62-2.85c-2.49,0-4.52,0.61-6.08,1.83
			c-1.57,1.22-2.35,2.8-2.35,4.73c0,2.33,0.97,5.17,2.91,8.52c1.94,3.35,5.22,7.8,9.85,13.36c14.64,17.76,23.6,29.73,26.88,35.91
			c3.43,6.53,5.15,12.83,5.15,18.9c0,5.16-1.22,10.04-3.66,14.64c-2.44,4.6-5.82,8.37-10.15,11.32c-8.26,5.62-18.34,8.43-30.24,8.43
			c-10.95,0-20.58-3.23-28.89-9.7c-5.82-4.54-8.73-8.09-8.73-10.64c0-0.74,0.26-1.4,0.78-2S1484.69,244.33,1485.38,244.33z"/>
	</g>
</g>
<g id="Ken">
</g>
<g id="Booble" class="st39">
</g>
<g id="Boat" class="st39">
</g>
<g id="Start" class="st39">
</g>
<g id="Game_over" class="st39">
</g>
</svg>
