<?xml version="1.0" encoding="utf-8"?>
<!-- Generator: Adobe Illustrator 23.0.0, SVG Export Plug-In . SVG Version: 6.00 Build 0)  -->
<svg version="1.1" xmlns="http://www.w3.org/2000/svg" xmlns:xlink="http://www.w3.org/1999/xlink" x="0px" y="0px"
	 viewBox="0 0 450 550" style="enable-background:new 0 0 450 550;" xml:space="preserve">
<style type="text/css">
	.st0{fill:#286BA5;stroke:#000000;stroke-miterlimit:10;}
	.st1{fill:url(#SVGID_1_);}
	.st2{fill:#FFFFFF;}
	.st3{clip-path:url(#SVGID_3_);fill:url(#SVGID_4_);}
	.st4{clip-path:url(#SVGID_3_);fill:url(#SVGID_5_);}
	.st5{fill:#070707;}
	.st6{clip-path:url(#SVGID_7_);}
	.st7{fill:#46A147;}
	.st8{fill:url(#SVGID_8_);}
	.st9{opacity:0.16;}
	.st10{fill:url(#SVGID_9_);}
	.st11{fill:#47631C;}
	.st12{fill:#597A2B;}
	.st13{fill:#3D5416;}
	.st14{fill:#334215;}
	.st15{fill:url(#SVGID_10_);}
	.st16{fill:#5F5F5F;}
	.st17{fill:#484848;}
	.st18{fill:#212121;}
	.st19{fill:#303030;}
	.st20{fill:#393939;}
	.st21{fill:#282828;}
	.st22{fill:#202020;}
	.st23{fill:none;stroke:#000000;stroke-miterlimit:10;}
	.st24{fill:#286BA5;}
	.st25{fill:#286BA5;stroke:#000000;stroke-width:8;stroke-linecap:round;stroke-miterlimit:10;}
	.st26{stroke:#FFFF00;stroke-width:3;stroke-miterlimit:10;}
	.st27{fill:#FCE001;}
	.st28{fill:#301C00;}
	.st29{fill:#FDE758;}
	.st30{fill:url(#SVGID_11_);}
	.st31{fill:url(#SVGID_12_);}
	.st32{fill:#F29667;}
	.st33{fill:#FBAC7B;}
	.st34{fill:#EF9462;}
	.st35{stroke:#000000;stroke-miterlimit:10;}
	.st36{fill:#FEAA7B;}
	.st37{fill:#F29465;}
	.st38{fill:#F40B16;}
	.st39{display:none;}
	.st40{display:inline;}
	.st41{fill:#FFFFFF;stroke:#FFFF00;stroke-width:3;stroke-miterlimit:10;}
	.st42{fill:#D82A36;stroke:#A30D0D;stroke-miterlimit:10;}
	.st43{fill:#93292D;stroke:#A30D0D;stroke-miterlimit:10;}
</style>
<g id="Background">
</g>
<g id="SKY">
</g>
<g id="Hill_and_lake">
</g>
<g id="Palm">
</g>
<g id="Title">
</g>
<g id="Ken">
	<g>
		<path class="st27" d="M432.82,36.4c9,9.16,3.3,54.15-28.5,100.37c-30.8,45.7-87.71,92.64-157.99,93.67
			c-70.2,4.04-130.71-38.41-165.62-81c-35.9-43.08-46.2-86.3-38.96-95.14c8.17-11.17,32.36,8.16,67.31,25.8
			c34.91,18.22,80.57,34.74,130.67,31.28c50.2-2.48,93.65-23.98,126.81-45.2C399.74,45.46,422.68,25.01,432.82,36.4z"/>
		<polygon class="st28" points="437.95,45.63 432.51,42.78 428.61,48.58 427.87,39.14 422.93,33.84 427.91,30.86 428.76,21.78
			432.58,29.38 438.04,29.07 435.42,36.75 		"/>
		<path class="st27" d="M432.82,36.4c9,9.16,3.3,54.15-28.5,100.37c-30.8,45.7-87.71,92.64-157.99,93.67
			c-70.2,4.04-130.71-38.41-165.62-81c-35.9-43.08-46.2-86.3-38.96-95.14c8.17-11.17,32.36,8.16,67.31,25.8
			c34.91,18.22,80.57,34.74,130.67,31.28c50.2-2.48,93.65-23.98,126.81-45.2C399.74,45.46,422.68,25.01,432.82,36.4z"/>
		<path class="st29" d="M242.93,183.67c73.04-1.16,132.26-48.2,164.35-93.96c12.86-17.96,21.62-35.72,27-51.27
			c-0.43-0.8-0.92-1.49-1.46-2.04c-10.14-11.39-33.07,9.06-66.28,29.77c-33.17,21.23-76.61,42.72-126.81,45.2
			c-50.11,3.46-95.77-13.07-130.67-31.28C74.1,62.45,49.91,43.12,41.74,54.29c-0.6,0.74-1.07,1.74-1.43,2.93
			c6.91,14.13,16.98,29.95,30.65,45.74C107.16,145.49,169.97,187.84,242.93,183.67z"/>

			<linearGradient id="SVGID_1_" gradientUnits="userSpaceOnUse" x1="17.8941" y1="-30.3963" x2="39.7237" y2="-30.3963" gradientTransform="matrix(0.999 -0.0457 0.0457 0.999 7.866 78.0753)">
			<stop  offset="0" style="stop-color:#0E5E0E"/>
			<stop  offset="0.1056" style="stop-color:#3F7A1D"/>
			<stop  offset="0.2277" style="stop-color:#71972D"/>
			<stop  offset="0.3529" style="stop-color:#9CAF3A"/>
			<stop  offset="0.4787" style="stop-color:#BFC445"/>
			<stop  offset="0.6054" style="stop-color:#DAD34D"/>
			<stop  offset="0.7336" style="stop-color:#EEDE53"/>
			<stop  offset="0.8639" style="stop-color:#F9E557"/>
			<stop  offset="1" style="stop-color:#FDE758"/>
			<stop  offset="1" style="stop-color:#FFFFFF"/>
		</linearGradient>
		<path class="st1" d="M45.35,60.85L45.35,60.85c-1.86,2.91-5.07,3.06-7.19,0.33l-12.4-16.02c-2.11-2.73-2.32-7.31-0.47-10.22
			l3.36-5.28l16.23,20.97C47,53.36,47.21,57.93,45.35,60.85z"/>

			<linearGradient id="SVGID_3_" gradientUnits="userSpaceOnUse" x1="415.9837" y1="2.868" x2="433.6676" y2="2.868" gradientTransform="matrix(1.0027 -0.0454 0.0492 1.0642 2.9553 81.2101)">
			<stop  offset="0" style="stop-color:#FFFFFF"/>
			<stop  offset="0" style="stop-color:#FDE758"/>
			<stop  offset="0.0961" style="stop-color:#F7E356"/>
			<stop  offset="0.2268" style="stop-color:#E5D951"/>
			<stop  offset="0.3774" style="stop-color:#C9C948"/>
			<stop  offset="0.543" style="stop-color:#A1B23B"/>
			<stop  offset="0.7208" style="stop-color:#6E952C"/>
			<stop  offset="0.906" style="stop-color:#307219"/>
			<stop  offset="1" style="stop-color:#0E5E0E"/>
		</linearGradient>
		<polygon style="fill:url(#SVGID_3_);" points="428.33,91.32 420.4,69.55 428.47,53.37 434.28,38.44 437,44.34 436.82,56.23
			433.31,74.7 		"/>
	</g>
	<g>
		<path class="st32" d="M223.13,498.89l14.74-20.29c0.33-0.43,7.63-15.6,7.76-16.1l7.07-23.27c0.58-3.31-15.77-32.01-20.88-31.09
			l-30.39,19.1c-5.11,0.92-9.69,6.23-10.19,11.81l-6.87,76.25c-0.49,5.57-8.57,24.5,0.16,28.7l19.51-0.09
			C209.16,542.99,214.78,504.02,223.13,498.89z"/>
		<path class="st32" d="M265.94,496.53l-13.86-16.64c-0.26-0.32-0.42-0.72-0.46-1.14c-0.29-3.35-3.73-17.78-3.91-18.21l-20.04-19.39
			c-1.08-3.25,7.93-28.72,13.12-28.63l35.67,8.11c5.18,0.09,10.52,4.7,11.85,10.25l18.38,75.86c1.34,5.55,15.58,27.94,3.51,33.76
			l-20.83,0.7C284.19,541.1,284.67,514.54,265.94,496.53z"/>
		<path class="st33" d="M234.12,312.03l-19.38,1.18c-5.91,0.36-5.87-1.59-6.24-6.75l13.96-11.63c-0.37-5.16-16.11-15.46-10.19-15.82
			l19.38-1.18c5.91-0.36,11.06,3.57,11.43,8.73l1.12,15.43C244.56,307.15,240.03,311.67,234.12,312.03z"/>
		<polyline class="st34" points="206.73,310.62 213.4,295.73 234.56,312.05 		"/>
		<path class="st33" d="M242.91,295.24l-19.32,1.72c-5.89,0.52-11.21-3.26-11.81-8.41l-1.79-15.39c-0.6-5.15,3.73-9.79,9.63-10.32
			l19.32-1.72c5.89-0.52,11.21,3.26,11.81,8.41l1.79,15.39C253.14,290.07,248.81,294.71,242.91,295.24z"/>
		<path class="st33" d="M256.12,270.5h-40.55v-26.79h34.7l-1.14,9.08l8.3,16.14C257.82,269.68,257.13,270.5,256.12,270.5z"/>

			<ellipse transform="matrix(0.9857 -0.1688 0.1688 0.9857 -37.7009 41.7658)" class="st35" cx="226.83" cy="242.65" rx="26.08" ry="12.46"/>
		<ellipse class="st35" cx="233.21" cy="258.69" rx="5.4" ry="5.68"/>

			<ellipse transform="matrix(0.9913 -0.1319 0.1319 0.9913 -33.6945 30.0769)" class="st35" cx="210.17" cy="269.36" rx="11.91" ry="29.6"/>
		<ellipse class="st33" cx="223.26" cy="259.83" rx="5.4" ry="5.68"/>
		<ellipse class="st33" cx="251.13" cy="285.88" rx="9.96" ry="7.72"/>
		<ellipse class="st2" cx="248.44" cy="300.93" rx="9.96" ry="7.72"/>
		<ellipse class="st35" cx="204.2" cy="289.57" rx="19.06" ry="11.58"/>
		<path class="st32" d="M270.47,372.75c-1.44-12.56,16.4-24.54,10.48-24.38l-105.64-6.22c-2.76,0.07-7.72,8.23,0.9,15.76
			c9.86,8.62,15.47,15.21,17.27,23.87l7.86,46.49c0.19,3.13,7.83-0.43,14.14-0.58c-0.54-0.75-0.9-1.56-1.01-2.43l-5.9-47.77
			c-0.47-3.85,3.97-7.24,9.88-7.55l34.9-1.83c5.91-0.31,11.13,2.58,11.6,6.43l5.9,47.77c0.08,0.66,0.01,1.31-0.18,1.93
			c2.18-1.5,6.75,0.77,6.61-1.58L270.47,372.75z"/>
		<path class="st36" d="M270.85,422.3l-5.9-47.77c-0.47-3.85-5.7-6.74-11.6-6.43l-34.9,1.83c-5.91,0.31-10.35,3.71-9.88,7.55
			l5.9,47.77c0.11,0.87,0.47,1.68,1.01,2.43c1.87,2.55,6.02,4.24,10.59,4l34.9-1.83c4.89-0.26,8.77-2.63,9.69-5.62
			C270.86,423.61,270.93,422.96,270.85,422.3z"/>
		<path class="st32" d="M242.1,399.46h10.06c0.2,0,0.36,0.16,0.36,0.36l0,0c0,0.2-0.16,0.36-0.36,0.36H242.1
			c-0.2,0-0.36-0.16-0.36-0.36l0,0C241.74,399.62,241.9,399.46,242.1,399.46z"/>
		<path class="st33" d="M187.32,361.43l84.86-4.44c5.91-0.31,10.43-4.42,10.04-9.14l-2.77-33.66c-0.39-4.72-5.54-8.33-11.46-8.02
			l-84.86,4.44c-5.91,0.31-10.43,4.42-10.04,9.14l2.77,33.66C176.25,358.13,181.41,361.74,187.32,361.43z"/>

			<ellipse transform="matrix(0.4246 -0.9054 0.9054 0.4246 -93.235 448.3246)" class="st37" cx="306.09" cy="297.51" rx="42.31" ry="11.18"/>

			<ellipse transform="matrix(0.8998 -0.4363 0.4363 0.8998 -116.5733 93.7551)" class="st37" cx="145.85" cy="300.7" rx="15.17" ry="43.11"/>
		<path class="st36" d="M320.52,271.64l-5.35-4.27c-2.29-1.82-3.23-5.08-2.1-7.23l29.41-55.6c1.14-2.15,3.94-2.42,6.23-0.59
			l5.35,4.27c2.29,1.82,3.23,5.08,2.1,7.23l-29.41,55.6C325.62,273.2,322.81,273.46,320.52,271.64z"/>
		<path class="st36" d="M177.17,318.16l-5.31,6.18c-2.27,2.64-5.55,3.02-7.29,0.85l-41.54-52.02c-1.74-2.18-1.3-6.12,0.97-8.76
			l5.31-6.18c2.27-2.64,5.55-3.02,7.29-0.85l41.54,52.02C179.88,311.58,179.44,315.52,177.17,318.16z"/>
		<path class="st36" d="M137.23,269.97l-8.83,3.7c-2.84,1.19-5.42,0.36-5.73-1.84l-9.83-69.49c-0.31-2.2,1.76-4.98,4.59-6.17
			l8.83-3.7c2.84-1.19,5.42-0.36,5.73,1.84l9.83,69.49C142.14,266.01,140.07,268.78,137.23,269.97z"/>
		<path class="st36" d="M320.19,259.62l3.83,6.69c1.64,2.86,1.53,6.75-0.24,8.64l-42.36,45.15c-1.77,1.89-4.56,1.09-6.2-1.77
			l-3.83-6.69c-1.64-2.86-1.53-6.75,0.24-8.64l42.36-45.15C315.76,255.96,318.55,256.75,320.19,259.62z"/>
		<ellipse class="st36" cx="276.21" cy="322.93" rx="22.57" ry="21.14"/>
		<path class="st36" d="M153.63,327.71c-0.12,12.31,9.6,21.72,21.68,21.14c11.97-0.58,21.68-9.46,21.68-21.14
			s-9.71-21.14-21.68-21.14C163.34,306.58,153.75,316.04,153.63,327.71z"/>
		<path class="st32" d="M343.13,175.4l-0.09,37.11c0,0.04,0.04,0.09,0.09,0.11l12.45,3.46c0.03,0.01,0.06,0,0.08-0.02l4.38-5.96
			c0-0.01,0.01-0.01,0.16-0.8L366,177.3c-1.52,2.7-4.55,4.36-4.58,4.44l-3.91,14.35c-0.02,0.08,0.59-4.66,0.59-4.75l0.66-17.84
			c0-0.09-1.98-2.07-2.01-1.99l-4.03,20.12c-0.02,0.08-0.61,1.17-0.61,1.08l-0.73-20.91c0-0.09,0.02-0.08,0,0l-2.29,2.22
			c-0.02,0.08-1.26,19.01-1.27,18.92l-1.14-10.94C346.69,181.92,343.14,175.31,343.13,175.4z"/>
		<polygon class="st32" points="107.81,174.13 112.64,202.4 122.25,208.21 133,205.91 129.3,169.52 125.96,181.77 122.62,160
			118.9,182.53 115.46,161.53 113.18,182.81 		"/>
		<path class="st38" d="M249.73,473.15h-4.03h-4.7c-12.77-16.83-49.05-33.15-49.05-37.88l8.06-9.82c6.05,4.21,16.61,8.41,18.4,8.41
			l44.89-1.43c5.93,0,10.63-13.99,15.14-11.36l6.91,3.68l3.02,5.69L249.73,473.15z"/>
	</g>
</g>
<g id="Booble" class="st39">
</g>
<g id="Boat" class="st39">
</g>
<g id="Start" class="st39">
</g>
<g id="Game_over" class="st39">
	<g class="st40">
		<path d="M595.27,142.61l42.13-84.76c2.85-6.17,4.81-9.99,5.87-11.44c1.06-1.45,2.44-2.18,4.12-2.18c1.5,0,2.77,0.55,3.78,1.64
			c1.02,1.09,1.53,2.43,1.53,4.01c0,1.58-0.53,3.46-1.59,5.65c-0.71,1.58-1.59,3.28-2.65,5.1l-4.24,7.84L536.44,276.75l-4.37,8.2
			c-3.8,7.29-6.21,11.6-7.23,12.94c-1.02,1.33-2.41,2-4.18,2c-2.83,0-4.24-1.69-4.24-5.08c0.02-1.82,1.31-4.79,3.87-8.93l30.2-56.51
			l-3.71-6.92c-26.87-49.68-45.85-84.31-56.94-103.86s-25.17-43.19-42.22-70.88h96.1L595.27,142.61z"/>
	</g>
</g>
</svg>
