<svg xmlns="http://www.w3.org/2000/svg" xmlns:xlink="http://www.w3.org/1999/xlink" viewBox="0 0 1600 900"><defs><style>.cls-1{isolation:isolate;}.cls-2{fill:url(#linear-gradient);}.cls-3{opacity:0.9;mix-blend-mode:screen;}.cls-4{fill:url(#linear-gradient-2);}.cls-5{fill:#fff;}</style><linearGradient id="linear-gradient" x1="800.75" y1="900.72" x2="800.75" y2="1.28" gradientUnits="userSpaceOnUse"><stop offset="0.01" stop-color="#ff7bac"/><stop offset="0.04" stop-color="#de78b9"/><stop offset="0.11" stop-color="#9a73d2"/><stop offset="0.17" stop-color="#696ee5"/><stop offset="0.22" stop-color="#4a6cf1"/><stop offset="0.24" stop-color="#3f6bf5"/><stop offset="0.26" stop-color="#3b65e9"/><stop offset="0.34" stop-color="#2c54c2"/><stop offset="0.42" stop-color="#2045a0"/><stop offset="0.5" stop-color="#163885"/><stop offset="0.59" stop-color="#0f2f6f"/><stop offset="0.7" stop-color="#092860"/><stop offset="0.82" stop-color="#062458"/><stop offset="1" stop-color="#052355"/></linearGradient><linearGradient id="linear-gradient-2" x1="1365.5" y1="249.46" x2="1365.5" y2="22.46" gradientUnits="userSpaceOnUse"><stop offset="0" stop-color="#fff" stop-opacity="0"/><stop offset="0.05" stop-color="#fff" stop-opacity="0.11"/><stop offset="0.15" stop-color="#fff" stop-opacity="0.32"/><stop offset="0.26" stop-color="#fff" stop-opacity="0.5"/><stop offset="0.37" stop-color="#fff" stop-opacity="0.65"/><stop offset="0.48" stop-color="#fff" stop-opacity="0.78"/><stop offset="0.6" stop-color="#fff" stop-opacity="0.88"/><stop offset="0.72" stop-color="#fff" stop-opacity="0.95"/><stop offset="0.85" stop-color="#fff" stop-opacity="0.99"/><stop offset="1" stop-color="#fff"/></linearGradient></defs><title>backgroundGame</title><g class="cls-1"><g id="Layer_1" data-name="Layer 1"><rect class="cls-2" x="1.5" y="1.28" width="1598.5" height="899.44"/><image class="cls-3" width="2947" height="2946" transform="translate(1011.88 -202) scale(0.24)" xlink:href="backgroundGame1.png"/><circle class="cls-4" cx="1365.5" cy="151.5" r="113.5"/><polygon class="cls-5" points="823.51 178.2 823.51 175.41 820.51 175.41 820.51 178.2 820.51 178.41 823.51 178.41 823.51 178.2"/><polygon class="cls-5" points="844.97 286.53 844.97 289.33 844.97 289.53 847.97 289.53 847.97 289.33 847.97 286.53 844.97 286.53"/><polygon class="cls-5" points="920.66 237.05 920.66 239.84 920.66 240.05 923.66 240.05 923.66 239.84 923.66 237.05 920.66 237.05"/><polygon class="cls-5" points="818.14 192.28 818.14 195.08 818.14 195.28 821.14 195.28 821.14 195.08 821.14 192.28 818.14 192.28"/><polygon class="cls-5" points="819 158.96 819 158.76 819 155.96 816 155.96 816 158.76 816 158.96 819 158.96"/><polygon class="cls-5" points="902.65 188.28 902.65 188.08 902.65 185.28 899.65 185.28 899.65 188.08 899.65 188.28 902.65 188.28"/><polygon class="cls-5" points="951.75 182.28 951.75 185.07 951.75 185.28 954.75 185.28 954.75 185.07 954.75 182.28 951.75 182.28"/><polygon class="cls-5" points="858.38 74.32 858.38 77.11 858.38 77.32 861.38 77.32 861.38 77.11 861.38 74.32 858.38 74.32"/><polygon class="cls-5" points="772.2 116.24 772.2 119.04 772.2 119.24 775.2 119.24 775.2 119.04 775.2 116.24 772.2 116.24"/><polygon class="cls-5" points="888.52 158.71 888.52 161.51 888.52 161.71 891.52 161.71 891.52 161.51 891.52 158.71 888.52 158.71"/><polygon class="cls-5" points="851.37 31.22 851.37 31.02 851.37 28.22 848.37 28.22 848.37 31.02 848.37 31.22 851.37 31.22"/><polygon class="cls-5" points="781.27 39.12 781.27 38.91 781.27 36.12 778.27 36.12 778.27 38.91 778.27 39.12 781.27 39.12"/><polygon class="cls-5" points="740.62 65.17 740.62 67.96 740.62 68.17 743.62 68.17 743.62 67.96 743.62 65.17 740.62 65.17"/><polygon class="cls-5" points="743.75 110.28 743.75 113.08 743.75 113.28 746.75 113.28 746.75 113.08 746.75 110.28 743.75 110.28"/><polygon class="cls-5" points="827.19 102.86 827.19 105.65 827.19 105.86 830.19 105.86 830.19 105.65 830.19 102.86 827.19 102.86"/><polygon class="cls-5" points="697.37 19.62 697.37 16.83 694.37 16.83 694.37 19.62 694.37 19.83 697.37 19.83 697.37 19.62"/><polygon class="cls-5" points="624.46 61.73 624.46 58.94 621.46 58.94 621.46 61.73 621.46 61.94 624.46 61.94 624.46 61.73"/><polygon class="cls-5" points="626.84 148.93 626.84 151.72 626.84 151.93 629.84 151.93 629.84 151.72 629.84 148.93 626.84 148.93"/><polygon class="cls-5" points="576.87 174.42 576.87 177.22 576.87 177.42 579.87 177.42 579.87 177.22 579.87 174.42 576.87 174.42"/><polygon class="cls-5" points="592.68 152.62 592.68 152.42 592.68 149.62 589.68 149.62 589.68 152.42 589.68 152.62 592.68 152.62"/><polygon class="cls-5" points="659.97 128.74 659.97 131.54 659.97 131.74 662.97 131.74 662.97 131.54 662.97 128.74 659.97 128.74"/><polygon class="cls-5" points="593.68 18.85 593.68 21.64 593.68 21.85 596.68 21.85 596.68 21.64 596.68 18.85 593.68 18.85"/><polygon class="cls-5" points="446.52 46.27 446.52 43.47 443.52 43.47 443.52 46.27 443.52 46.47 446.52 46.47 446.52 46.27"/><polygon class="cls-5" points="423.72 98.98 423.72 101.78 423.72 101.98 426.72 101.98 426.72 101.78 426.72 98.98 423.72 98.98"/><polygon class="cls-5" points="528.27 103.93 528.27 103.72 528.27 100.93 525.27 100.93 525.27 103.72 525.27 103.93 528.27 103.93"/><polygon class="cls-5" points="338.03 9.31 338.03 12.1 338.03 12.31 341.03 12.31 341.03 12.1 341.03 9.31 338.03 9.31"/><polygon class="cls-5" points="376.15 131.47 376.15 134.27 376.15 134.47 379.15 134.47 379.15 134.27 379.15 131.47 376.15 131.47"/><polygon class="cls-5" points="410.98 165.68 410.98 168.47 410.98 168.68 413.98 168.68 413.98 168.47 413.98 165.68 410.98 165.68"/><polygon class="cls-5" points="436.06 64.84 436.06 67.64 436.06 67.84 439.06 67.84 439.06 67.64 439.06 64.84 436.06 64.84"/><polygon class="cls-5" points="422.22 60.05 422.22 59.84 422.22 57.05 419.22 57.05 419.22 59.84 419.22 60.05 422.22 60.05"/><polygon class="cls-5" points="419.47 76.67 419.47 79.46 419.47 79.67 422.47 79.67 422.47 79.46 422.47 76.67 419.47 76.67"/><polygon class="cls-5" points="404.97 127.59 404.97 130.38 404.97 130.59 407.97 130.59 407.97 130.38 407.97 127.59 404.97 127.59"/><polygon class="cls-5" points="441.57 120.39 441.57 123.19 441.57 123.39 444.57 123.39 444.57 123.19 444.57 120.39 441.57 120.39"/><polygon class="cls-5" points="503.37 158.69 503.37 161.49 503.37 161.69 506.37 161.69 506.37 161.49 506.37 158.69 503.37 158.69"/><polygon class="cls-5" points="458.05 179.73 458.05 179.53 458.05 176.73 455.05 176.73 455.05 179.53 455.05 179.73 458.05 179.73"/><polygon class="cls-5" points="506.81 232.23 506.81 235.03 506.81 235.23 509.81 235.23 509.81 235.03 509.81 232.23 506.81 232.23"/><polygon class="cls-5" points="511.08 228.33 511.08 231.13 511.08 231.33 514.08 231.33 514.08 231.13 514.08 228.33 511.08 228.33"/><polygon class="cls-5" points="535.6 211.18 535.6 210.97 535.6 208.18 532.6 208.18 532.6 210.97 532.6 211.18 535.6 211.18"/><polygon class="cls-5" points="549.17 212.46 549.17 215.25 549.17 215.46 552.17 215.46 552.17 215.25 552.17 212.46 549.17 212.46"/><polygon class="cls-5" points="524.43 251.21 524.43 251.01 524.43 248.21 521.43 248.21 521.43 251.01 521.43 251.21 524.43 251.21"/><polygon class="cls-5" points="557.38 254.74 557.38 257.54 557.38 257.74 560.38 257.74 560.38 257.54 560.38 254.74 557.38 254.74"/><polygon class="cls-5" points="597.17 252.4 597.17 255.19 597.17 255.4 600.17 255.4 600.17 255.19 600.17 252.4 597.17 252.4"/><polygon class="cls-5" points="591.45 239.48 591.45 242.28 591.45 242.48 594.45 242.48 594.45 242.28 594.45 239.48 591.45 239.48"/><polygon class="cls-5" points="525.98 210.9 525.98 210.7 525.98 207.9 522.98 207.9 522.98 210.7 522.98 210.9 525.98 210.9"/><polygon class="cls-5" points="535.46 261.87 535.46 259.07 532.46 259.07 532.46 261.87 532.46 262.07 535.46 262.07 535.46 261.87"/><polygon class="cls-5" points="608.25 308.95 608.25 311.75 608.25 311.95 611.25 311.95 611.25 311.75 611.25 308.95 608.25 308.95"/><polygon class="cls-5" points="524.3 288.03 524.3 290.82 524.3 291.03 527.3 291.03 527.3 290.82 527.3 288.03 524.3 288.03"/><polygon class="cls-5" points="446.29 250.62 446.29 253.41 446.29 253.62 449.29 253.62 449.29 253.41 449.29 250.62 446.29 250.62"/><polygon class="cls-5" points="388.08 309.6 388.08 312.4 388.08 312.6 391.08 312.6 391.08 312.4 391.08 309.6 388.08 309.6"/><polygon class="cls-5" points="509.94 323.44 509.94 326.24 509.94 326.44 512.94 326.44 512.94 326.24 512.94 323.44 509.94 323.44"/><polygon class="cls-5" points="455.86 226.51 455.86 229.31 455.86 229.51 458.86 229.51 458.86 229.31 458.86 226.51 455.86 226.51"/><polygon class="cls-5" points="486.6 347.67 486.6 350.46 486.6 350.67 489.6 350.67 489.6 350.46 489.6 347.67 486.6 347.67"/><polygon class="cls-5" points="457.55 263.78 457.55 263.57 457.55 260.78 454.55 260.78 454.55 263.57 454.55 263.78 457.55 263.78"/><polygon class="cls-5" points="469.19 353.47 469.19 356.27 469.19 356.47 472.19 356.47 472.19 356.27 472.19 353.47 469.19 353.47"/><polygon class="cls-5" points="456.44 332.99 456.44 335.79 456.44 335.99 459.44 335.99 459.44 335.79 459.44 332.99 456.44 332.99"/><polygon class="cls-5" points="418.21 325.73 418.21 328.52 418.21 328.73 421.21 328.73 421.21 328.52 421.21 325.73 418.21 325.73"/><polygon class="cls-5" points="345.82 89.64 345.82 92.44 345.82 92.64 348.82 92.64 348.82 92.44 348.82 89.64 345.82 89.64"/><polygon class="cls-5" points="249.17 158.56 249.17 161.36 249.17 161.56 252.17 161.56 252.17 161.36 252.17 158.56 249.17 158.56"/><polygon class="cls-5" points="197.15 65.43 197.15 68.22 197.15 68.43 200.15 68.43 200.15 68.22 200.15 65.43 197.15 65.43"/><polygon class="cls-5" points="140.83 76.56 140.83 79.35 140.83 79.56 143.83 79.56 143.83 79.35 143.83 76.56 140.83 76.56"/><polygon class="cls-5" points="20.89 204.9 20.89 207.7 20.89 207.9 23.89 207.9 23.89 207.7 23.89 204.9 20.89 204.9"/><polygon class="cls-5" points="21.88 175.17 21.88 177.96 21.88 178.17 24.88 178.17 24.88 177.96 24.88 175.17 21.88 175.17"/><polygon class="cls-5" points="11.44 29.9 11.44 32.7 11.44 32.9 14.44 32.9 14.44 32.7 14.44 29.9 11.44 29.9"/><polygon class="cls-5" points="5.98 98.54 5.98 101.34 5.98 101.54 8.98 101.54 8.98 101.34 8.98 98.54 5.98 98.54"/><path class="cls-5" d="M27.28,127.33a1.5,1.5,0,0,0,1.5,1.5v-3A1.5,1.5,0,0,0,27.28,127.33Z"/><polygon class="cls-5" points="185.12 91.56 185.12 91.36 185.12 88.56 182.12 88.56 182.12 91.36 182.12 91.56 185.12 91.56"/><polygon class="cls-5" points="166.4 70.48 166.4 73.27 166.4 73.48 169.4 73.48 169.4 73.27 169.4 70.48 166.4 70.48"/><polygon class="cls-5" points="222.78 96.45 222.78 99.25 222.78 99.45 225.78 99.45 225.78 99.25 225.78 96.45 222.78 96.45"/><polygon class="cls-5" points="244.01 61.11 244.01 60.91 244.01 58.11 241.01 58.11 241.01 60.91 241.01 61.11 244.01 61.11"/><polygon class="cls-5" points="261.25 132.66 261.25 135.45 261.25 135.66 264.25 135.66 264.25 135.45 264.25 132.66 261.25 132.66"/><polygon class="cls-5" points="304.8 132.36 304.8 135.16 304.8 135.36 307.8 135.36 307.8 135.16 307.8 132.36 304.8 132.36"/><polygon class="cls-5" points="345.26 183.05 345.26 185.84 345.26 186.05 348.26 186.05 348.26 185.84 348.26 183.05 345.26 183.05"/><polygon class="cls-5" points="280.54 118.02 280.54 120.81 280.54 121.02 283.54 121.02 283.54 120.81 283.54 118.02 280.54 118.02"/><polygon class="cls-5" points="393.09 185.79 393.09 183 390.09 183 390.09 185.79 390.09 186 393.09 186 393.09 185.79"/><polygon class="cls-5" points="425.9 132.22 425.9 132.01 425.9 129.22 422.9 129.22 422.9 132.01 422.9 132.22 425.9 132.22"/><polygon class="cls-5" points="424.66 137.03 424.66 139.82 424.66 140.03 427.66 140.03 427.66 139.82 427.66 137.03 424.66 137.03"/><polygon class="cls-5" points="507.69 106.66 507.69 106.87 510.69 106.87 510.69 106.66 510.69 103.87 507.69 103.87 507.69 106.66"/><polygon class="cls-5" points="399.63 174.98 399.63 177.77 399.63 177.98 402.63 177.98 402.63 177.77 402.63 174.98 399.63 174.98"/><polygon class="cls-5" points="464.64 173.27 464.64 176.06 464.64 176.27 467.64 176.27 467.64 176.06 467.64 173.27 464.64 173.27"/><polygon class="cls-5" points="424.08 185.71 424.08 188.5 424.08 188.71 427.08 188.71 427.08 188.5 427.08 185.71 424.08 185.71"/><polygon class="cls-5" points="472.11 197.81 472.11 200.6 472.11 200.81 475.11 200.81 475.11 200.6 475.11 197.81 472.11 197.81"/><polygon class="cls-5" points="542.21 245.31 542.21 248.1 542.21 248.31 545.21 248.31 545.21 248.1 545.21 245.31 542.21 245.31"/><polygon class="cls-5" points="615.24 265.81 615.24 268.6 615.24 268.81 618.24 268.81 618.24 268.6 618.24 265.81 615.24 265.81"/><polygon class="cls-5" points="641.34 284.3 641.34 287.1 641.34 287.3 644.34 287.3 644.34 287.1 644.34 284.3 641.34 284.3"/><polygon class="cls-5" points="766.12 283.87 766.12 286.66 766.12 286.87 769.12 286.87 769.12 286.66 769.12 283.87 766.12 283.87"/><polygon class="cls-5" points="795.02 293.93 795.02 296.72 795.02 296.93 798.02 296.93 798.02 296.72 798.02 293.93 795.02 293.93"/><polygon class="cls-5" points="797.24 238.28 797.24 241.07 797.24 241.28 800.24 241.28 800.24 241.07 800.24 238.28 797.24 238.28"/><polygon class="cls-5" points="816.4 223.48 816.4 226.28 816.4 226.48 819.4 226.48 819.4 226.28 819.4 223.48 816.4 223.48"/><polygon class="cls-5" points="803.51 252.77 803.51 255.56 803.51 255.77 806.51 255.77 806.51 255.56 806.51 252.77 803.51 252.77"/><polygon class="cls-5" points="877.61 244.73 877.61 247.53 877.61 247.73 880.61 247.73 880.61 247.53 880.61 244.73 877.61 244.73"/><polygon class="cls-5" points="841.25 275.81 841.25 278.6 841.25 278.81 844.25 278.81 844.25 278.6 844.25 275.81 841.25 275.81"/><polygon class="cls-5" points="865.22 338.83 865.22 341.63 865.22 341.83 868.22 341.83 868.22 341.63 868.22 338.83 865.22 338.83"/><polygon class="cls-5" points="791.01 351.23 791.01 354.02 791.01 354.23 794.01 354.23 794.01 354.02 794.01 351.23 791.01 351.23"/><polygon class="cls-5" points="763.38 300.67 763.38 300.46 763.38 297.67 760.38 297.67 760.38 300.46 760.38 300.67 763.38 300.67"/><polygon class="cls-5" points="771.17 316.96 771.17 319.76 771.17 319.96 774.17 319.96 774.17 319.76 774.17 316.96 771.17 316.96"/><polygon class="cls-5" points="848.72 279.33 848.72 282.12 848.72 282.33 851.72 282.33 851.72 282.12 851.72 279.33 848.72 279.33"/><polygon class="cls-5" points="900.21 300.03 900.21 302.83 900.21 303.03 903.21 303.03 903.21 302.83 903.21 300.03 900.21 300.03"/><polygon class="cls-5" points="886.97 261.03 886.97 263.82 886.97 264.03 889.97 264.03 889.97 263.82 889.97 261.03 886.97 261.03"/><polygon class="cls-5" points="868.09 207.41 868.09 207.21 868.09 204.41 865.09 204.41 865.09 207.21 865.09 207.41 868.09 207.41"/><polygon class="cls-5" points="914.42 252.09 914.42 254.89 914.42 255.09 917.42 255.09 917.42 254.89 917.42 252.09 914.42 252.09"/><polygon class="cls-5" points="939.31 246.48 939.31 249.28 939.31 249.48 942.31 249.48 942.31 249.28 942.31 246.48 939.31 246.48"/><polygon class="cls-5" points="973.02 296.45 973.02 299.24 973.02 299.45 976.02 299.45 976.02 299.24 976.02 296.45 973.02 296.45"/><polygon class="cls-5" points="964.24 310.08 964.24 312.88 964.24 313.08 967.24 313.08 967.24 312.88 967.24 310.08 964.24 310.08"/><polygon class="cls-5" points="932.9 250.67 932.9 253.47 932.9 253.67 935.9 253.67 935.9 253.47 935.9 250.67 932.9 250.67"/><polygon class="cls-5" points="927.22 320.83 927.22 323.62 927.22 323.83 930.22 323.83 930.22 323.62 930.22 320.83 927.22 320.83"/><polygon class="cls-5" points="969.97 289.01 969.97 291.8 969.97 292.01 972.97 292.01 972.97 291.8 972.97 289.01 969.97 289.01"/><polygon class="cls-5" points="1003.65 248.16 1003.65 250.96 1003.65 251.16 1006.65 251.16 1006.65 250.96 1006.65 248.16 1003.65 248.16"/><polygon class="cls-5" points="1010.52 249.67 1010.52 246.87 1007.52 246.87 1007.52 249.67 1007.52 249.87 1010.52 249.87 1010.52 249.67"/><polygon class="cls-5" points="1009.9 321.21 1009.9 324.01 1009.9 324.21 1012.9 324.21 1012.9 324.01 1012.9 321.21 1009.9 321.21"/><polygon class="cls-5" points="1060.56 337.98 1060.56 340.77 1060.56 340.98 1063.56 340.98 1063.56 340.77 1063.56 337.98 1060.56 337.98"/><polygon class="cls-5" points="1046.91 281.48 1046.91 284.28 1046.91 284.48 1049.91 284.48 1049.91 284.28 1049.91 281.48 1046.91 281.48"/><polygon class="cls-5" points="1041.18 323.38 1041.18 326.18 1041.18 326.38 1044.18 326.38 1044.18 326.18 1044.18 323.38 1041.18 323.38"/><polygon class="cls-5" points="1093.52 324.99 1093.52 327.79 1093.52 327.99 1096.52 327.99 1096.52 327.79 1096.52 324.99 1093.52 324.99"/><polygon class="cls-5" points="1085.02 302.74 1085.02 305.53 1085.02 305.74 1088.02 305.74 1088.02 305.53 1088.02 302.74 1085.02 302.74"/><polygon class="cls-5" points="1089.77 344.24 1089.77 347.03 1089.77 347.24 1092.77 347.24 1092.77 347.03 1092.77 344.24 1089.77 344.24"/><polygon class="cls-5" points="1171.72 348.05 1171.72 350.84 1171.72 351.05 1174.72 351.05 1174.72 350.84 1174.72 348.05 1171.72 348.05"/><polygon class="cls-5" points="1228.47 326.94 1228.47 329.73 1228.47 329.94 1231.47 329.94 1231.47 329.73 1231.47 326.94 1228.47 326.94"/><polygon class="cls-5" points="1423.46 321.03 1423.46 323.82 1423.46 324.03 1426.46 324.03 1426.46 323.82 1426.46 321.03 1423.46 321.03"/><polygon class="cls-5" points="1572.36 112.01 1572.36 114.81 1572.36 115.01 1575.36 115.01 1575.36 114.81 1575.36 112.01 1572.36 112.01"/><polygon class="cls-5" points="1526.29 70.51 1526.29 70.31 1526.29 67.51 1523.29 67.51 1523.29 70.31 1523.29 70.51 1526.29 70.51"/><polygon class="cls-5" points="1523.81 114 1523.81 116.79 1523.81 117 1526.81 117 1526.81 116.79 1526.81 114 1523.81 114"/><polygon class="cls-5" points="1179.33 252.2 1179.33 254.99 1179.33 255.2 1182.33 255.2 1182.33 254.99 1182.33 252.2 1179.33 252.2"/><polygon class="cls-5" points="1133.94 253.65 1133.94 256.44 1133.94 256.65 1136.94 256.65 1136.94 256.44 1136.94 253.65 1133.94 253.65"/><polygon class="cls-5" points="1195.65 259.16 1195.65 261.96 1195.65 262.16 1198.65 262.16 1198.65 261.96 1198.65 259.16 1195.65 259.16"/><polygon class="cls-5" points="1181.01 242.07 1181.01 241.87 1181.01 239.07 1178.01 239.07 1178.01 241.87 1178.01 242.07 1181.01 242.07"/><polygon class="cls-5" points="1164.35 174.26 1164.35 177.05 1164.35 177.26 1167.35 177.26 1167.35 177.05 1167.35 174.26 1164.35 174.26"/><polygon class="cls-5" points="1152.35 136.57 1152.35 139.36 1152.35 139.57 1155.35 139.57 1155.35 139.36 1155.35 136.57 1152.35 136.57"/><polygon class="cls-5" points="1180.99 58.75 1180.99 61.54 1180.99 61.75 1183.99 61.75 1183.99 61.54 1183.99 58.75 1180.99 58.75"/><polygon class="cls-5" points="1065.81 80.52 1065.81 83.31 1065.81 83.52 1068.81 83.52 1068.81 83.31 1068.81 80.52 1065.81 80.52"/><polygon class="cls-5" points="979.29 194.28 979.29 197.07 979.29 197.28 982.29 197.28 982.29 197.07 982.29 194.28 979.29 194.28"/><polygon class="cls-5" points="1109.18 219.62 1109.18 222.41 1109.18 222.62 1112.18 222.62 1112.18 222.41 1112.18 219.62 1109.18 219.62"/><polygon class="cls-5" points="1119.93 238.72 1119.93 238.52 1119.93 235.72 1116.93 235.72 1116.93 238.52 1116.93 238.72 1119.93 238.72"/><polygon class="cls-5" points="1163.58 298.51 1163.58 301.3 1163.58 301.51 1166.58 301.51 1166.58 301.3 1166.58 298.51 1163.58 298.51"/><polygon class="cls-5" points="1539.36 188.34 1539.36 191.14 1539.36 191.34 1542.36 191.34 1542.36 191.14 1542.36 188.34 1539.36 188.34"/><polygon class="cls-5" points="1556.24 144.21 1556.24 147 1556.24 147.21 1559.24 147.21 1559.24 147 1559.24 144.21 1556.24 144.21"/><polygon class="cls-5" points="1587.5 78.17 1587.5 80.96 1587.5 81.17 1590.5 81.17 1590.5 80.96 1590.5 78.17 1587.5 78.17"/><polygon class="cls-5" points="1546.89 21.3 1546.89 24.09 1546.89 24.3 1549.89 24.3 1549.89 24.09 1549.89 21.3 1546.89 21.3"/><polygon class="cls-5" points="1284.71 5.99 1284.71 8.79 1284.71 8.99 1287.71 8.99 1287.71 8.79 1287.71 5.99 1284.71 5.99"/><polygon class="cls-5" points="1265.63 16.86 1265.63 19.66 1265.63 19.86 1268.63 19.86 1268.63 19.66 1268.63 16.86 1265.63 16.86"/><polygon class="cls-5" points="1174.29 2.16 1174.29 1.96 1174.29 -0.84 1171.29 -0.84 1171.29 1.96 1171.29 2.16 1174.29 2.16"/><polygon class="cls-5" points="1180.59 76.47 1180.59 79.26 1180.59 79.47 1183.59 79.47 1183.59 79.26 1183.59 76.47 1180.59 76.47"/><polygon class="cls-5" points="1129.26 38.46 1129.26 41.26 1129.26 41.46 1132.26 41.46 1132.26 41.26 1132.26 38.46 1129.26 38.46"/><polygon class="cls-5" points="1166.99 52.9 1166.99 55.7 1166.99 55.9 1169.99 55.9 1169.99 55.7 1169.99 52.9 1166.99 52.9"/><polygon class="cls-5" points="1140.8 31.28 1140.8 34.07 1140.8 34.28 1143.8 34.28 1143.8 34.07 1143.8 31.28 1140.8 31.28"/><polygon class="cls-5" points="1152.46 35.68 1152.46 38.48 1152.46 38.68 1155.46 38.68 1155.46 38.48 1155.46 35.68 1152.46 35.68"/><polygon class="cls-5" points="1172.41 12.31 1172.41 9.52 1169.41 9.52 1169.41 12.31 1169.41 12.52 1172.41 12.52 1172.41 12.31"/><polygon class="cls-5" points="1122.4 40.35 1122.4 43.15 1122.4 43.35 1125.4 43.35 1125.4 43.15 1125.4 40.35 1122.4 40.35"/><polygon class="cls-5" points="1095.75 66.25 1095.75 69.04 1095.75 69.25 1098.75 69.25 1098.75 69.04 1098.75 66.25 1095.75 66.25"/><polygon class="cls-5" points="1019.05 54.47 1019.05 57.26 1019.05 57.47 1022.05 57.47 1022.05 57.26 1022.05 54.47 1019.05 54.47"/><polygon class="cls-5" points="1010.64 14.06 1010.64 13.86 1010.64 11.06 1007.64 11.06 1007.64 13.86 1007.64 14.06 1010.64 14.06"/><polygon class="cls-5" points="1010.2 44.59 1010.2 44.39 1010.2 41.59 1007.2 41.59 1007.2 44.39 1007.2 44.59 1010.2 44.59"/><polygon class="cls-5" points="1097.55 33.35 1097.55 36.14 1097.55 36.35 1100.55 36.35 1100.55 36.14 1100.55 33.35 1097.55 33.35"/><polygon class="cls-5" points="955.17 24.13 955.17 23.92 955.17 21.13 952.17 21.13 952.17 23.92 952.17 24.13 955.17 24.13"/><polygon class="cls-5" points="889.42 53.45 889.42 53.25 889.42 50.45 886.42 50.45 886.42 53.25 886.42 53.45 889.42 53.45"/><polygon class="cls-5" points="865.99 56.44 865.99 53.64 862.99 53.64 862.99 56.44 862.99 56.64 865.99 56.64 865.99 56.44"/><polygon class="cls-5" points="839.66 52.74 839.66 52.94 842.66 52.94 842.66 52.74 842.66 49.94 839.66 49.94 839.66 52.74"/><polygon class="cls-5" points="840.2 20.15 840.2 17.35 837.2 17.35 837.2 20.15 837.2 20.35 840.2 20.35 840.2 20.15"/><polygon class="cls-5" points="782.53 49.38 782.53 46.59 779.53 46.59 779.53 49.38 779.53 49.59 782.53 49.59 782.53 49.38"/><polygon class="cls-5" points="733.69 43.98 733.69 46.78 733.69 46.98 736.69 46.98 736.69 46.78 736.69 43.98 733.69 43.98"/><polygon class="cls-5" points="559.04 36.88 559.04 36.67 559.04 33.88 556.04 33.88 556.04 36.67 556.04 36.88 559.04 36.88"/><polygon class="cls-5" points="562.06 72.7 562.06 72.49 562.06 69.7 559.06 69.7 559.06 72.49 559.06 72.7 562.06 72.7"/><polygon class="cls-5" points="582.67 45.32 582.67 48.11 582.67 48.32 585.67 48.32 585.67 48.11 585.67 45.32 582.67 45.32"/><polygon class="cls-5" points="570.84 100.21 570.84 103.01 570.84 103.21 573.84 103.21 573.84 103.01 573.84 100.21 570.84 100.21"/><polygon class="cls-5" points="558.84 18.34 558.84 18.13 558.84 15.34 555.84 15.34 555.84 18.13 555.84 18.34 558.84 18.34"/><polygon class="cls-5" points="610.6 97.9 610.6 100.69 610.6 100.9 613.6 100.9 613.6 100.69 613.6 97.9 610.6 97.9"/><polygon class="cls-5" points="559.26 159.95 559.26 162.74 559.26 162.95 562.26 162.95 562.26 162.74 562.26 159.95 559.26 159.95"/><polygon class="cls-5" points="574.96 245.68 574.96 248.47 574.96 248.68 577.96 248.68 577.96 248.47 577.96 245.68 574.96 245.68"/><polygon class="cls-5" points="649.29 251.88 649.29 254.68 649.29 254.88 652.29 254.88 652.29 254.68 652.29 251.88 649.29 251.88"/><polygon class="cls-5" points="688.95 262.77 688.95 259.98 685.95 259.98 685.95 262.77 685.95 262.98 688.95 262.98 688.95 262.77"/><polygon class="cls-5" points="743.72 219.34 743.72 222.13 743.72 222.34 746.72 222.34 746.72 222.13 746.72 219.34 743.72 219.34"/><polygon class="cls-5" points="841.78 180.99 841.78 178.19 838.78 178.19 838.78 180.99 838.78 181.19 841.78 181.19 841.78 180.99"/><polygon class="cls-5" points="849.2 126.51 849.2 126.3 849.2 123.51 846.2 123.51 846.2 126.3 846.2 126.51 849.2 126.51"/><polygon class="cls-5" points="805.7 20.96 805.7 20.76 805.7 17.96 802.7 17.96 802.7 20.76 802.7 20.96 805.7 20.96"/><polygon class="cls-5" points="740.27 91.62 740.27 94.41 740.27 94.62 743.27 94.62 743.27 94.41 743.27 91.62 740.27 91.62"/><polygon class="cls-5" points="722.22 2.19 722.22 4.99 722.22 5.2 725.22 5.2 725.22 4.99 725.22 2.19 722.22 2.19"/><polygon class="cls-5" points="650.1 49.04 650.1 46.25 647.1 46.25 647.1 49.04 647.1 49.25 650.1 49.25 650.1 49.04"/><polygon class="cls-5" points="616.6 3.56 616.6 0.77 613.6 0.77 613.6 3.56 613.6 3.77 616.6 3.77 616.6 3.56"/><polygon class="cls-5" points="508.02 53.35 508.02 50.55 505.02 50.55 505.02 53.35 505.02 53.55 508.02 53.55 508.02 53.35"/><polygon class="cls-5" points="448.69 22.62 448.69 22.41 448.69 19.62 445.69 19.62 445.69 22.41 445.69 22.62 448.69 22.62"/><polygon class="cls-5" points="390.3 105.38 390.3 105.17 390.3 102.38 387.3 102.38 387.3 105.17 387.3 105.38 390.3 105.38"/><polygon class="cls-5" points="338.78 101.98 338.78 101.77 338.78 98.98 335.78 98.98 335.78 101.77 335.78 101.98 338.78 101.98"/><polygon class="cls-5" points="298.04 13.88 298.04 16.67 298.04 16.88 301.04 16.88 301.04 16.67 301.04 13.88 298.04 13.88"/><polygon class="cls-5" points="320.77 103.77 320.77 106.56 320.77 106.77 323.77 106.77 323.77 106.56 323.77 103.77 320.77 103.77"/><polygon class="cls-5" points="352.9 51.27 352.9 54.07 352.9 54.27 355.9 54.27 355.9 54.07 355.9 51.27 352.9 51.27"/><polygon class="cls-5" points="425.43 26.01 425.43 25.8 425.43 23.01 422.43 23.01 422.43 25.8 422.43 26.01 425.43 26.01"/><polygon class="cls-5" points="411.65 41.17 411.65 43.96 411.65 44.17 414.65 44.17 414.65 43.96 414.65 41.17 411.65 41.17"/><polygon class="cls-5" points="395.84 57.93 395.84 60.72 395.84 60.93 398.84 60.93 398.84 60.72 398.84 57.93 395.84 57.93"/><polygon class="cls-5" points="337.19 103.09 337.19 105.88 337.19 106.09 340.19 106.09 340.19 105.88 340.19 103.09 337.19 103.09"/><polygon class="cls-5" points="267.3 76.6 267.3 79.39 267.3 79.6 270.3 79.6 270.3 79.39 270.3 76.6 267.3 76.6"/><polygon class="cls-5" points="232.53 72.94 232.53 75.73 232.53 75.94 235.53 75.94 235.53 75.73 235.53 72.94 232.53 72.94"/><polygon class="cls-5" points="208.89 49 208.89 51.79 208.89 52 211.89 52 211.89 51.79 211.89 49 208.89 49"/><polygon class="cls-5" points="188.66 133.73 188.66 136.52 188.66 136.73 191.66 136.73 191.66 136.52 191.66 133.73 188.66 133.73"/><polygon class="cls-5" points="202.52 128.31 202.52 131.11 202.52 131.31 205.52 131.31 205.52 131.11 205.52 128.31 202.52 128.31"/><polygon class="cls-5" points="370.12 170.4 370.12 173.19 370.12 173.4 373.12 173.4 373.12 173.19 373.12 170.4 370.12 170.4"/><polygon class="cls-5" points="328.08 51.89 328.08 54.69 328.08 54.89 331.08 54.89 331.08 54.69 331.08 51.89 328.08 51.89"/><polygon class="cls-5" points="168.69 20.84 168.69 20.63 168.69 17.84 165.69 17.84 165.69 20.63 165.69 20.84 168.69 20.84"/><polygon class="cls-5" points="126.39 60.98 126.39 63.77 126.39 63.98 129.38 63.98 129.38 63.77 129.38 60.98 126.39 60.98"/><polygon class="cls-5" points="112.38 33.61 112.38 36.4 112.38 36.61 115.38 36.61 115.38 36.4 115.38 33.61 112.38 33.61"/><polygon class="cls-5" points="112.37 68.31 112.37 71.1 112.37 71.31 115.37 71.31 115.37 71.1 115.37 68.31 112.37 68.31"/><polygon class="cls-5" points="183.25 169.41 183.25 172.21 183.25 172.41 186.25 172.41 186.25 172.21 186.25 169.41 183.25 169.41"/><polygon class="cls-5" points="241.18 163.37 241.18 166.16 241.18 166.37 244.18 166.37 244.18 166.16 244.18 163.37 241.18 163.37"/><polygon class="cls-5" points="287.8 138.6 287.8 141.4 287.8 141.6 290.8 141.6 290.8 141.4 290.8 138.6 287.8 138.6"/><polygon class="cls-5" points="345.54 115.26 345.54 118.05 345.54 118.26 348.54 118.26 348.54 118.05 348.54 115.26 345.54 115.26"/><polygon class="cls-5" points="418.94 177.07 418.94 179.87 418.94 180.07 421.94 180.07 421.94 179.87 421.94 177.07 418.94 177.07"/><polygon class="cls-5" points="447.76 118.27 447.76 121.07 447.76 121.27 450.76 121.27 450.76 121.07 450.76 118.27 447.76 118.27"/><polygon class="cls-5" points="491.15 163.17 491.15 160.38 488.15 160.38 488.15 163.17 488.15 163.38 491.15 163.38 491.15 163.17"/><polygon class="cls-5" points="530.84 138.9 530.84 138.69 530.84 135.9 527.84 135.9 527.84 138.69 527.84 138.9 530.84 138.9"/><polygon class="cls-5" points="535.66 218.09 535.66 220.88 535.66 221.09 538.66 221.09 538.66 220.88 538.66 218.09 535.66 218.09"/><polygon class="cls-5" points="525.16 266.95 525.16 264.15 522.16 264.15 522.16 266.95 522.16 267.15 525.16 267.15 525.16 266.95"/><polygon class="cls-5" points="392.69 321.32 392.69 324.11 392.69 324.32 395.69 324.32 395.69 324.11 395.69 321.32 392.69 321.32"/><polygon class="cls-5" points="435.17 333.37 435.17 336.16 435.17 336.37 438.17 336.37 438.17 336.16 438.17 333.37 435.17 333.37"/><polygon class="cls-5" points="464.48 334.47 464.48 337.27 464.48 337.47 467.48 337.47 467.48 337.27 467.48 334.47 464.48 334.47"/><polygon class="cls-5" points="458.43 297.68 458.43 297.47 458.43 294.68 455.43 294.68 455.43 297.47 455.43 297.68 458.43 297.68"/><polygon class="cls-5" points="431.81 283.19 431.81 285.99 431.81 286.19 434.81 286.19 434.81 285.99 434.81 283.19 431.81 283.19"/><polygon class="cls-5" points="490.37 301.84 490.37 304.63 490.37 304.84 493.37 304.84 493.37 304.63 493.37 301.84 490.37 301.84"/><polygon class="cls-5" points="520.63 369.55 520.63 372.34 520.63 372.55 523.63 372.55 523.63 372.34 523.63 369.55 520.63 369.55"/><polygon class="cls-5" points="534.27 355.13 534.27 357.93 534.27 358.13 537.27 358.13 537.27 357.93 537.27 355.13 534.27 355.13"/><polygon class="cls-5" points="588.26 333.28 588.26 336.07 588.26 336.28 591.26 336.28 591.26 336.07 591.26 333.28 588.26 333.28"/><polygon class="cls-5" points="1048.78 208.18 1048.78 210.98 1048.78 211.18 1051.78 211.18 1051.78 210.98 1051.78 208.18 1048.78 208.18"/><polygon class="cls-5" points="929.23 197.69 929.23 197.48 929.23 194.69 926.23 194.69 926.23 197.48 926.23 197.69 929.23 197.69"/><polygon class="cls-5" points="855.92 175.44 855.92 175.23 855.92 172.44 852.92 172.44 852.92 175.23 852.92 175.44 855.92 175.44"/><polygon class="cls-5" points="773.77 260.38 773.77 263.17 773.77 263.38 776.77 263.38 776.77 263.17 776.77 260.38 773.77 260.38"/><polygon class="cls-5" points="688.58 289.89 688.58 292.68 688.58 292.89 691.58 292.89 691.58 292.68 691.58 289.89 688.58 289.89"/><polygon class="cls-5" points="640.06 263.57 640.06 260.78 637.06 260.78 637.06 263.57 637.06 263.78 640.06 263.78 640.06 263.57"/><polygon class="cls-5" points="683.74 311.39 683.74 314.19 683.74 314.39 686.74 314.39 686.74 314.19 686.74 311.39 683.74 311.39"/><polygon class="cls-5" points="683.99 225.27 683.99 228.06 683.99 228.27 686.99 228.27 686.99 228.06 686.99 225.27 683.99 225.27"/><polygon class="cls-5" points="761.27 307.23 761.27 310.02 761.27 310.23 764.27 310.23 764.27 310.02 764.27 307.23 761.27 307.23"/><polygon class="cls-5" points="822.16 311.6 822.16 314.39 822.16 314.6 825.16 314.6 825.16 314.39 825.16 311.6 822.16 311.6"/><polygon class="cls-5" points="901.66 255.46 901.66 252.67 898.66 252.67 898.66 255.46 898.66 255.67 901.66 255.67 901.66 255.46"/><polygon class="cls-5" points="919.48 333.99 919.48 336.79 919.48 336.99 922.48 336.99 922.48 336.79 922.48 333.99 919.48 333.99"/><polygon class="cls-5" points="964.91 286.34 964.91 283.55 961.91 283.55 961.91 286.34 961.91 286.55 964.91 286.55 964.91 286.34"/><polygon class="cls-5" points="1043.77 294.76 1043.77 294.55 1043.77 291.76 1040.77 291.76 1040.77 294.55 1040.77 294.76 1043.77 294.76"/><polygon class="cls-5" points="1117.51 241.44 1117.51 244.24 1117.51 244.44 1120.51 244.44 1120.51 244.24 1120.51 241.44 1117.51 241.44"/><polygon class="cls-5" points="1153.23 85.08 1153.23 82.29 1150.23 82.29 1150.23 85.08 1150.23 85.29 1153.23 85.29 1153.23 85.08"/><polygon class="cls-5" points="1043.1 39.55 1043.1 42.34 1043.1 42.55 1046.1 42.55 1046.1 42.34 1046.1 39.55 1043.1 39.55"/><polygon class="cls-5" points="948.24 93.23 948.24 96.03 948.24 96.23 951.24 96.23 951.24 96.03 951.24 93.23 948.24 93.23"/><polygon class="cls-5" points="853.37 176.26 853.37 179.05 853.37 179.26 856.37 179.26 856.37 179.05 856.37 176.26 853.37 176.26"/><polygon class="cls-5" points="921.29 201.51 921.29 201.31 921.29 198.51 918.29 198.51 918.29 201.31 918.29 201.51 921.29 201.51"/><polygon class="cls-5" points="1074.91 251.38 1074.91 254.18 1074.91 254.38 1077.91 254.38 1077.91 254.18 1077.91 251.38 1074.91 251.38"/><polygon class="cls-5" points="1085.09 136.03 1085.09 138.83 1085.09 139.03 1088.09 139.03 1088.09 138.83 1088.09 136.03 1085.09 136.03"/><polygon class="cls-5" points="1136.63 81.54 1136.63 81.33 1136.63 78.54 1133.63 78.54 1133.63 81.33 1133.63 81.54 1136.63 81.54"/><polygon class="cls-5" points="953.98 94.38 953.98 97.18 953.98 97.38 956.98 97.38 956.98 97.18 956.98 94.38 953.98 94.38"/><polygon class="cls-5" points="878.53 85.55 878.53 82.75 875.53 82.75 875.53 85.55 875.53 85.75 878.53 85.75 878.53 85.55"/><polygon class="cls-5" points="774.52 50.22 774.52 50.01 774.52 47.22 771.52 47.22 771.52 50.01 771.52 50.22 774.52 50.22"/><polygon class="cls-5" points="699.65 113.31 699.65 116.1 699.65 116.31 702.65 116.31 702.65 116.1 702.65 113.31 699.65 113.31"/><polygon class="cls-5" points="703.4 96.95 703.4 99.74 703.4 99.95 706.4 99.95 706.4 99.74 706.4 96.95 703.4 96.95"/><polygon class="cls-5" points="708.09 128.13 708.09 130.93 708.09 131.13 711.09 131.13 711.09 130.93 711.09 128.13 708.09 128.13"/><polygon class="cls-5" points="675.29 138.46 675.29 141.25 675.29 141.46 678.29 141.46 678.29 141.25 678.29 138.46 675.29 138.46"/><polygon class="cls-5" points="654 85.19 654 87.98 654 88.19 657 88.19 657 87.98 657 85.19 654 85.19"/><polygon class="cls-5" points="717.32 176.82 717.32 179.61 717.32 179.82 720.32 179.82 720.32 179.61 720.32 176.82 717.32 176.82"/><polygon class="cls-5" points="752.37 191.22 752.37 194.01 752.37 194.22 755.37 194.22 755.37 194.01 755.37 191.22 752.37 191.22"/><polygon class="cls-5" points="782.05 151.41 782.05 154.21 782.05 154.41 785.05 154.41 785.05 154.21 785.05 151.41 782.05 151.41"/><polygon class="cls-5" points="772.72 137.9 772.72 137.7 772.72 134.9 769.72 134.9 769.72 137.7 769.72 137.9 772.72 137.9"/><polygon class="cls-5" points="685.73 191.94 685.73 191.73 685.73 188.94 682.73 188.94 682.73 191.73 682.73 191.94 685.73 191.94"/><polygon class="cls-5" points="618.18 177.81 618.18 177.6 618.18 174.81 615.18 174.81 615.18 177.6 615.18 177.81 618.18 177.81"/><polygon class="cls-5" points="528.05 188.78 528.05 191.57 528.05 191.78 531.05 191.78 531.05 191.57 531.05 188.78 528.05 188.78"/><polygon class="cls-5" points="570.62 337.8 570.62 340.6 570.62 340.8 573.62 340.8 573.62 340.6 573.62 337.8 570.62 337.8"/><polygon class="cls-5" points="623.81 220.95 623.81 223.74 623.81 223.95 626.81 223.95 626.81 223.74 626.81 220.95 623.81 220.95"/><polygon class="cls-5" points="748.16 234.29 748.16 237.08 748.16 237.29 751.16 237.29 751.16 237.08 751.16 234.29 748.16 234.29"/><polygon class="cls-5" points="644.08 93.86 644.08 93.65 644.08 90.86 641.08 90.86 641.08 93.65 641.08 93.86 644.08 93.86"/><polygon class="cls-5" points="564.52 112.22 564.52 115.01 564.52 115.22 567.52 115.22 567.52 115.01 567.52 112.22 564.52 112.22"/><polygon class="cls-5" points="490.22 74.56 490.22 74.36 490.22 71.56 487.22 71.56 487.22 74.36 487.22 74.56 490.22 74.56"/><polygon class="cls-5" points="437.95 59.08 437.95 58.88 437.95 56.08 434.95 56.08 434.95 58.88 434.95 59.08 437.95 59.08"/><polygon class="cls-5" points="376.28 97.14 376.28 94.34 373.28 94.34 373.28 97.14 373.28 97.34 376.28 97.34 376.28 97.14"/><polygon class="cls-5" points="346.75 20.03 346.75 17.24 343.75 17.24 343.75 20.03 343.75 20.24 346.75 20.24 346.75 20.03"/><polygon class="cls-5" points="326.29 152.6 326.29 155.4 326.29 155.6 329.29 155.6 329.29 155.4 329.29 152.6 326.29 152.6"/><polygon class="cls-5" points="394.39 43.04 394.39 42.84 394.39 40.04 391.39 40.04 391.39 42.84 391.39 43.04 394.39 43.04"/><polygon class="cls-5" points="465.36 133.03 465.36 135.82 465.36 136.03 468.36 136.03 468.36 135.82 468.36 133.03 465.36 133.03"/><polygon class="cls-5" points="551.85 109.76 551.85 109.56 551.85 106.76 548.85 106.76 548.85 109.56 548.85 109.76 551.85 109.76"/><polygon class="cls-5" points="593.75 90.25 593.75 90.04 593.75 87.25 590.75 87.25 590.75 90.04 590.75 90.25 593.75 90.25"/><polygon class="cls-5" points="626.52 194.96 626.52 194.75 626.52 191.96 623.52 191.96 623.52 194.75 623.52 194.96 626.52 194.96"/><polygon class="cls-5" points="700.01 112.53 700.01 109.74 697.01 109.74 697.01 112.53 697.01 112.74 700.01 112.74 700.01 112.53"/></g></g></svg>
