<svg id="Layer_1" data-name="Layer 1" xmlns="http://www.w3.org/2000/svg" xmlns:xlink="http://www.w3.org/1999/xlink" viewBox="0 0 1600 340"><defs><style>.cls-1{fill:url(#linear-gradient);}.cls-2{fill:url(#linear-gradient-2);}.cls-3{fill:url(#linear-gradient-3);}.cls-4{fill:url(#linear-gradient-4);}</style><linearGradient id="linear-gradient" x1="202.83" y1="-275.6" x2="1401.28" y2="416.33" gradientUnits="userSpaceOnUse"><stop offset="0.01" stop-color="#052355"/><stop offset="0.58" stop-color="#3f6bf5"/><stop offset="0.61" stop-color="#436df3"/><stop offset="0.65" stop-color="#4e75ed"/><stop offset="0.68" stop-color="#6281e2"/><stop offset="0.71" stop-color="#7d91d3"/><stop offset="0.74" stop-color="#a0a7c0"/><stop offset="0.77" stop-color="#cac1a9"/><stop offset="0.8" stop-color="#fce08e"/><stop offset="0.81" stop-color="#f6dc8f"/><stop offset="0.85" stop-color="#a0a2a0"/><stop offset="0.89" stop-color="#5b74ad"/><stop offset="0.93" stop-color="#2a53b7"/><stop offset="0.95" stop-color="#0b3fbd"/><stop offset="0.97" stop-color="#0037bf"/></linearGradient><linearGradient id="linear-gradient-2" x1="42.06" y1="149.37" x2="696.06" y2="149.37" gradientUnits="userSpaceOnUse"><stop offset="0" stop-color="#d1bdb2"/><stop offset="0.01" stop-color="#bfaa98"/><stop offset="0.03" stop-color="#a38e6f"/><stop offset="0.05" stop-color="#8b764d"/><stop offset="0.07" stop-color="#776231"/><stop offset="0.09" stop-color="#68531b"/><stop offset="0.12" stop-color="#5d480c"/><stop offset="0.15" stop-color="#574203"/><stop offset="0.19" stop-color="#554000"/><stop offset="0.34" stop-color="#796534"/><stop offset="0.49" stop-color="#998461"/><stop offset="0.64" stop-color="#b19d84"/><stop offset="0.78" stop-color="#c3af9d"/><stop offset="0.9" stop-color="#cdb9ad"/><stop offset="1" stop-color="#d1bdb2"/></linearGradient><linearGradient id="linear-gradient-3" x1="-152.74" y1="208.87" x2="854.26" y2="208.87" gradientTransform="matrix(-1, 0, 0, 1, 1754, 0)" gradientUnits="userSpaceOnUse"><stop offset="0" stop-color="#d1bdb2"/><stop offset="0.05" stop-color="#b7a38d"/><stop offset="0.13" stop-color="#8d7951"/><stop offset="0.2" stop-color="#6f5a25"/><stop offset="0.26" stop-color="#5c470a"/><stop offset="0.29" stop-color="#554000"/><stop offset="0.42" stop-color="#796534"/><stop offset="0.55" stop-color="#998461"/><stop offset="0.68" stop-color="#b19d84"/><stop offset="0.8" stop-color="#c3af9d"/><stop offset="0.91" stop-color="#cdb9ad"/><stop offset="1" stop-color="#d1bdb2"/></linearGradient><linearGradient id="linear-gradient-4" x1="0.06" y1="193.63" x2="1600.18" y2="193.63" gradientUnits="userSpaceOnUse"><stop offset="0" stop-color="#436a00"/><stop offset="0.01" stop-color="#456e00"/><stop offset="0.04" stop-color="#4c7f00"/><stop offset="0.09" stop-color="#518a00"/><stop offset="0.16" stop-color="#549100"/><stop offset="0.34" stop-color="#559300"/><stop offset="0.47" stop-color="#5e8900"/><stop offset="0.76" stop-color="#6b7a00"/><stop offset="1" stop-color="#707500"/></linearGradient></defs><title>Artboard 1</title><ellipse class="cls-1" cx="802.06" cy="70.37" rx="798" ry="67.5"/><ellipse class="cls-2" cx="369.06" cy="149.37" rx="327" ry="91.5"/><ellipse class="cls-3" cx="1093.56" cy="208.87" rx="503.5" ry="131"/><path class="cls-4" d="M882.8,69.81m5.5-1,17.48-.25M874.06,91.87c-6,5,91.89-3,150.14-8.43,59-5.52,116.65-.91,175.86-1.57,29.87-.34-8.88.36,21,1,6.26.13-2.26-.21,4,0,.1,0-.11,0,0,0,19.92,4.83-4.28.83,16,2,11.81.67,2.51.7,15,2,2.22.23,11.23,1.09,9,1-3.33-.15-17.55,3.82-20,4-17.9,1.25-19.28-6.22,6-2,18,3,37.59-6.37,6.77-1.88-30.26,4.41-60.72,11.71-91.25,10.88-13.6-.37-27.06-.85-40.63.52-9.44,1-19,2.06-27.38,8.48-2.8,2.15-2.5,7.35.1,9.48,9.93,8.14,22.18,4.19,33.17,5.14,16,1.37,31.83-1.94,47.72-3.71a455.5,455.5,0,0,1,53.08-2.42,1.67,1.67,0,0,1,.14,3.33c-11.25,1.06-22.55,1.63-33.78,2.42-21.34,1.5-47.55.13-65.84,16.88-3.05,2.8-2.54,8.82,1.13,10.28,1.23.49,2.47.92,3.7,1.34a1.66,1.66,0,0,1-.26,3.21c-5.91,1.08-12.11.69-18.07,1-10,.49-19.93.73-29.89,1.11-22,.86-44,2.61-65.87,4.85-22.24,2.27-44.38,5.55-66.56,8.57-10.64,1.45-21.35,3-31.91,5.4-6.32,1.42-11.66,2.51-16.37,8.6-1.71,2.21-1.31,5.39.08,7.6,8.78,14,25.31,11.13,37.54,11.13,23.94,0,47.89.27,71.83.14,47.86-.26,95.17-7.09,142.91-9.48,22.83-1.14,46-.71,68.64-5.24,12.32-2.46,24.6-6.45,37-7.75,11.34-1.19,22.7-1.69,34.07-1.9,23.13-.43,46.24-1.73,69.36-1.93,10.18-.08,20.37-.06,30.55-.15l1.82,0a31,31,0,0,0-3.63,1.22c-4,1.67-4.57,7.5-2.15,11.4,6.51,10.53,17.41,12.91,27.12,14.07,15.76,1.87,31.32,5.11,47,7.67s31.74,2.29,47.58,4.13c5,.58,14.71,1.63,22.5,5a1.67,1.67,0,0,1-.7,3.2c-1.45-.05-2.9-.07-4.32,0-5.48.26-11,.65-16.42,1.22-10.89,1.12-21.79,1.42-32.71,1.88-13.12.56-31.76-5.58-42.78,6-1.64,1.73-2,6.13-.72,8.3,3.21,5.36,7.22,8.29,11.38,10.87a1.67,1.67,0,0,1-.56,3.06c-9.64,1.74-19.62,2-29,3.29-13.65,1.81-27.31,3.45-41,3.92-29.47,1-59,.21-88.44,1.16-58.16,1.88-116,9.91-173.73,19.2-58.8,9.47-117.52,16.27-176.81,16.74-29.26.23-58.54-.87-87.75-3.12-6.41-.5-12.87-1.4-19.32-2.15a1.46,1.46,0,0,1-.41-.11c-31.9-12.73-64.81-19.46-97.55-27.69-17.45-4.39-34.9-9.67-52.51-12.82-8.23-1.47-16.53-2.55-24.75-4.18a1.67,1.67,0,0,1,.24-3.3c2.76-.14,5.39-.23,7.67-.48,14.8-1.65,29.47-4.87,44.3-6.26,22.45-2.1,47.85,4.3,68.66-9.54,2.77-1.84,2.9-7.16.85-9.82-8.45-11-21.89-13.05-33.11-14.84a305.94,305.94,0,0,0-44.84-3.91c-37.46-.42-74.88-3.89-112.34-3.91-37.76,0-75.48,2.14-113.15,5.57-14.77,1.35-30.3,1.73-45.24,0l-.31-.06c-14.74-4.31-29.34-9.63-44.27-12.48-20.6-3.93-41.28-6.87-62-9.47-41.54-5.22-83-9.28-124.79-6-19,1.48-38.07,4.26-57.14,3.83-10-.22-20.12-.85-29.94-3.57a107.3,107.3,0,0,1-11.29-3.63,1.67,1.67,0,0,1,0-3.11c8.34-3.34,17.68-4.4,25.93-6.4,20.89-5.08,41.77-10.11,62.36-17.09,4.25-1.44,4.37-10.52-.13-11.61l-3.39-.83c-14.87-3.5-29.82-6.37-44.78-9.12-12.37-2.28-25-3-37.27-5.64a60.06,60.06,0,0,1-11.44-3.29c-1.37-.6-13.35-5.17-6-10a55,55,0,0,1,17.12-7.34c11.68-2.85,23.57-3.63,35.39-5,29.38-3.51,58.61-8.73,87.92-13.18a511.38,511.38,0,0,1,87.92-5.9c29.1.58,58.4-.66,87.25-5.93,13.42-2.45,24.45,1.9,37.66-1.85,14.35-4.09,28.39,4.61,43,3,3.76-.42,24.22.39,28,0-23.44-.12-61-19.89-84.47-19.46-30,.55-60,1.46-90.06,2.49C281.77,52,221.84,55.73,162.06,53.74c-27.81-.93-55.62-1.43-83.44-2.08C57.72,51.18,36,51,15.54,57.6a1.46,1.46,0,0,1-1.07,0,4.1,4.1,0,0,0-3.86.37,57.06,57.06,0,0,0-4.89,3.4,2.07,2.07,0,0,1-.32.19c-.56.25-1.13.49-1.68.75a4.23,4.23,0,0,0-2,2.21,1.65,1.65,0,0,1-.39.58l-.76.74A1.64,1.64,0,0,0,.06,67V338.2a1.66,1.66,0,0,0,1.66,1.67h1596.8a1.66,1.66,0,0,0,1.66-1.67V78.75a1.67,1.67,0,0,0-1.68-1.66c-16,0-31.81-5.11-47.73-7-21.09-2.43-42.41-1.21-63.56-3.27C1458,64,1429.11,60,1399.72,59.42s-58.67-.17-88-2.44c-28.7-2.22-57.2-7.66-86-8.4-29.34-.77-58.7-.42-88,1.21-59.38,3.31-120.09.49-178.1,13.81"/></svg>
