<svg xmlns="http://www.w3.org/2000/svg" xmlns:xlink="http://www.w3.org/1999/xlink" viewBox="0 0 1600 900"><defs><style>.cls-1,.cls-24{fill:none;}.cls-2{isolation:isolate;}.cls-3{clip-path:url(#clip-path);}.cls-4{fill:#46a147;}.cls-5{fill:url(#radial-gradient);}.cls-6{fill:#47631c;}.cls-7{fill:#597a2b;}.cls-8{fill:#3d5416;}.cls-9{fill:#334215;}.cls-10{fill:url(#linear-gradient);}.cls-11{opacity:0.16;}.cls-11,.cls-20,.cls-21,.cls-22,.cls-23,.cls-24,.cls-25,.cls-26,.cls-27,.cls-28,.cls-29,.cls-30,.cls-31,.cls-32{mix-blend-mode:screen;}.cls-12{fill:#fff;}.cls-13{fill:url(#linear-gradient-2);}.cls-14{fill:url(#linear-gradient-3);}.cls-15{fill:url(#linear-gradient-4);}.cls-16{fill:url(#radial-gradient-2);}.cls-17{clip-path:url(#clip-path-2);}.cls-18{fill:url(#linear-gradient-5);}.cls-19{fill:url(#linear-gradient-6);}.cls-20,.cls-27{opacity:0.25;}.cls-20{fill:url(#radial-gradient-3);}.cls-21,.cls-28{opacity:0.15;}.cls-21{fill:url(#radial-gradient-4);}.cls-22,.cls-29{opacity:0;}.cls-22{fill:url(#radial-gradient-5);}.cls-23{fill:url(#radial-gradient-6);}.cls-24{stroke:#fff;stroke-miterlimit:10;stroke-width:2px;opacity:0.03;}.cls-25{fill:url(#radial-gradient-7);}.cls-26{fill:url(#radial-gradient-8);}.cls-27{fill:url(#radial-gradient-9);}.cls-28{fill:url(#radial-gradient-10);}.cls-29{fill:url(#radial-gradient-11);}.cls-30{fill:url(#radial-gradient-12);}.cls-31{fill:url(#radial-gradient-13);}.cls-32{fill:url(#radial-gradient-14);}.cls-33{fill:#484848;}.cls-34{fill:#5f5f5f;}.cls-35{fill:#393939;}.cls-36{fill:#282828;}.cls-37{fill:#303030;}.cls-38{fill:#202020;}.cls-39{fill:#212121;}</style><clipPath id="clip-path"><rect class="cls-1" x="-1" width="1600" height="900"/></clipPath><radialGradient id="radial-gradient" cx="-176.73" cy="-289.42" r="123.31" gradientTransform="translate(386.65 385.28) rotate(-21.12)" gradientUnits="userSpaceOnUse"><stop offset="0" stop-color="#70be49"/><stop offset="1" stop-color="#46a147"/></radialGradient><linearGradient id="linear-gradient" x1="-941.5" y1="1091.01" x2="-1105.9" y2="1027.29" gradientTransform="translate(-403.28 -883.65) rotate(-73.16)" xlink:href="#radial-gradient"/><linearGradient id="linear-gradient-2" x1="-1108.95" y1="1836.83" x2="-1273.34" y2="1773.11" gradientTransform="matrix(-0.33, -0.74, -0.84, 0.38, 1151.17, -1148.52)" xlink:href="#radial-gradient"/><linearGradient id="linear-gradient-3" x1="-880.51" y1="471.45" x2="-1044.9" y2="407.73" gradientTransform="matrix(0.14, -0.8, -0.9, -0.16, 1823.64, -277.86)" xlink:href="#radial-gradient"/><linearGradient id="linear-gradient-4" x1="-950.08" y1="772.78" x2="-1114.47" y2="709.06" gradientTransform="matrix(-0.14, -0.8, 0.9, -0.16, 763.05, -277.86)" xlink:href="#radial-gradient"/><radialGradient id="radial-gradient-2" cx="950.26" cy="-156.15" r="123.31" gradientTransform="translate(2289.83 -24.63) rotate(152.55)" xlink:href="#radial-gradient"/><clipPath id="clip-path-2"><rect class="cls-1" x="-0.5" y="0.5" width="1600" height="900"/></clipPath><linearGradient id="linear-gradient-5" x1="357.78" y1="150.25" x2="654.72" y2="150.25" gradientUnits="userSpaceOnUse"><stop offset="0" stop-color="#fff" stop-opacity="0"/><stop offset="0.18" stop-color="#fff" stop-opacity="0.24"/><stop offset="0.4" stop-color="#fff" stop-opacity="0.5"/><stop offset="0.6" stop-color="#fff" stop-opacity="0.72"/><stop offset="0.78" stop-color="#fff" stop-opacity="0.87"/><stop offset="0.92" stop-color="#fff" stop-opacity="0.97"/><stop offset="1" stop-color="#fff"/></linearGradient><linearGradient id="linear-gradient-6" x1="347.04" y1="122.56" x2="665.19" y2="179.42" gradientUnits="userSpaceOnUse"><stop offset="0" stop-color="#fff" stop-opacity="0"/><stop offset="0.23" stop-color="#fff" stop-opacity="0.24"/><stop offset="0.77" stop-color="#fff" stop-opacity="0.78"/><stop offset="1" stop-color="#fff"/></linearGradient><radialGradient id="radial-gradient-3" cx="146.7" cy="108.64" r="45" gradientUnits="userSpaceOnUse"><stop offset="0.1"/><stop offset="0.15" stop-color="#191407"/><stop offset="0.21" stop-color="#2f260d"/><stop offset="0.27" stop-color="#403312"/><stop offset="0.36" stop-color="#4b3d16"/><stop offset="0.47" stop-color="#524217"/><stop offset="0.8" stop-color="#544418"/><stop offset="1"/></radialGradient><radialGradient id="radial-gradient-4" cx="199.73" cy="55.61" r="30" gradientUnits="userSpaceOnUse"><stop offset="0" stop-color="#230000"/><stop offset="0.73" stop-color="#93432a"/><stop offset="1" stop-color="#230000"/></radialGradient><radialGradient id="radial-gradient-5" cx="199.73" cy="55.61" r="15" gradientUnits="userSpaceOnUse"><stop offset="0.15" stop-color="#fff"/><stop offset="0.21" stop-color="#e2d1d2"/><stop offset="0.29" stop-color="#bf9a9c"/><stop offset="0.36" stop-color="#a67276"/><stop offset="0.42" stop-color="#975a5e"/><stop offset="0.45" stop-color="#915155"/><stop offset="0.56" stop-color="#6c3638"/><stop offset="0.68" stop-color="#44191a"/><stop offset="0.79" stop-color="#2c0707"/><stop offset="0.85" stop-color="#230000"/><stop offset="0.86" stop-color="#270201"/><stop offset="0.86" stop-color="#340805"/><stop offset="0.87" stop-color="#48120b"/><stop offset="0.88" stop-color="#652114"/><stop offset="0.89" stop-color="#8b331f"/><stop offset="0.9" stop-color="#b8492d"/><stop offset="0.9" stop-color="#d65836"/><stop offset="0.9" stop-color="#c95232"/><stop offset="0.91" stop-color="#9d3c25"/><stop offset="0.93" stop-color="#782a1a"/><stop offset="0.94" stop-color="#591b10"/><stop offset="0.95" stop-color="#410f09"/><stop offset="0.97" stop-color="#300604"/><stop offset="0.98" stop-color="#260201"/><stop offset="1" stop-color="#230000"/></radialGradient><radialGradient id="radial-gradient-6" cx="199.73" cy="55.61" r="12.5" gradientUnits="userSpaceOnUse"><stop offset="0.15" stop-color="#fff"/><stop offset="0.24" stop-color="#fafafa"/><stop offset="0.34" stop-color="#ebebeb"/><stop offset="0.46" stop-color="#d3d3d3"/><stop offset="0.58" stop-color="#b2b2b2"/><stop offset="0.7" stop-color="#868686"/><stop offset="0.83" stop-color="#515151"/><stop offset="0.96" stop-color="#141414"/><stop offset="1"/></radialGradient><radialGradient id="radial-gradient-7" cx="227.96" cy="27.38" r="6.05" gradientUnits="userSpaceOnUse"><stop offset="0.1" stop-color="#5a2539"/><stop offset="0.25" stop-color="#3d1926"/><stop offset="0.43" stop-color="#220e16"/><stop offset="0.61" stop-color="#0f060a"/><stop offset="0.8" stop-color="#040202"/><stop offset="1"/></radialGradient><radialGradient id="radial-gradient-8" cx="198.85" cy="56.49" r="2.75" gradientUnits="userSpaceOnUse"><stop offset="0.1" stop-color="#3b3276"/><stop offset="0.19" stop-color="#2f285f"/><stop offset="0.34" stop-color="#1e1a3d"/><stop offset="0.5" stop-color="#110e22"/><stop offset="0.66" stop-color="#08060f"/><stop offset="0.82" stop-color="#020204"/><stop offset="1"/></radialGradient><radialGradient id="radial-gradient-9" cx="1540.24" cy="69.89" r="45" gradientTransform="translate(1038.11 1565.29) rotate(-70.91)" xlink:href="#radial-gradient-3"/><radialGradient id="radial-gradient-10" cx="1593.27" cy="16.86" r="30" gradientTransform="translate(1038.11 1565.29) rotate(-70.91)" xlink:href="#radial-gradient-4"/><radialGradient id="radial-gradient-11" cx="1593.27" cy="16.86" r="15" gradientTransform="translate(1038.11 1565.29) rotate(-70.91)" xlink:href="#radial-gradient-5"/><radialGradient id="radial-gradient-12" cx="1593.27" cy="16.86" r="12.5" gradientTransform="translate(1038.11 1565.29) rotate(-70.91)" xlink:href="#radial-gradient-6"/><radialGradient id="radial-gradient-13" cx="1621.5" cy="-11.36" r="6.05" gradientTransform="translate(-63.7 40.65)" xlink:href="#radial-gradient-7"/><radialGradient id="radial-gradient-14" cx="1592.39" cy="17.75" r="2.75" gradientTransform="translate(1038.11 1565.29) rotate(-70.91)" xlink:href="#radial-gradient-8"/></defs><title>PalmStones</title><g class="cls-2"><g id="Layer_1" data-name="Layer 1"><g class="cls-3"><path class="cls-4" d="M155.76,285.83c-20.6-28.55-55.7-44.21-90.77-48.67s-70.56,1-105.29,7.3c-40.06,7.3-79.51,11.28-111.67,36,17,2.36,36.41,11.63,49.79,22.26,5,3.95,9.11,8.85,14.18,12.66,9.19,6.91,20.74,9.77,31.93,12.48,13.27-12.21,22.65-27.91,29.19-44.69l-14.63,39.63c-.76,2.07-1.54,4.3-1,6.45,1,4,5.94,5.5,10.06,6.29,7.31,1.4,14.71,2.81,22.14,2.44s15-2.71,20.31-7.87c3.35-3.27,5.61-7.47,7.81-11.59L44.7,268.14Q38.6,288.9,32.47,309.66c-1,3.56-1.9,8,.8,10.54,2.5,2.38,6.52,1.74,9.88.93l43-10.38c5.35-11.37,10.64-22.41,16-33.79l-9.77,38a1.8,1.8,0,0,0,0,1.35c.3.5,1,.58,1.56.62l32.74,1.77c4.9.26,10.72-.48,14.3-3.8,2-1.87,3-4.59,3.79-7.22a139.57,139.57,0,0,0,3.95-16A82.72,82.72,0,0,0,147.11,310c0,1.83.25,3.87,1.65,5.06a7,7,0,0,0,4.05,1.21c8.75.74,17.49-1.13,26.24-.4C170.12,306.31,164.11,297.39,155.76,285.83Z"/><path class="cls-5" d="M190.61,212.45c-1.49-3.63-3.6-6.33-5.61-9.68a77.54,77.54,0,0,1-24.66,21.66c8.67-9.73,21.38-27.8,19.31-41.41-2.35-15.42-14.81-34.91-22.18-48.62-2.75-5.09-15.06-34-20.43-34-2.15,0-3.92,1.61-5.46,3.11l-9.48,9.25c1.64-9.05,5.63-23.07,3.34-32.14-1.9-7.47-9.9-15.43-14.23-21.81-8.89-13.08-18.76-26.57-33.23-33-6.43-2.84-14.42-3.93-20.1.2-6.05,4.39-7.19,12.78-7.83,20.23l-3.4,39.87a2.21,2.21,0,0,0,1.09,2.11c5.13,3,10.35,5.24,15.56,7.68a2.19,2.19,0,0,1-.8,4.17h-.12c-4,.35-8.09,2.22-10.08,5.71s-1.49,8.07-.85,12.17a962.31,962.31,0,0,0,24,110.23c2.33,8.31,5,17,11.15,23a34.21,34.21,0,0,0,13.8,7.83,2.22,2.22,0,0,1-.53,4.32l-6.08.43a2.23,2.23,0,0,0-1.94,2.95c5.27,15.05,11,30.26,21.24,42.41,15,17.76,37.26,27.7,60,24.64a2.23,2.23,0,0,0,1.85-2.8q-2.49-9-5-17.92c-13.74-48-28.49-95.82-45.59-142.73-8.59-23.54-17.63-46.89-27.38-70-10-23.6-20.74-46.83-31-70.28-.17-.38.4-.58.58-.23,11.64,22.8,21.87,46.39,31.79,70q29,69,53.06,140c8,23.73,15.08,47.84,21.9,71.95q2.22,7.89,4.4,15.78a2.22,2.22,0,0,0,3.74,1,88,88,0,0,0,23.57-51.07C207.4,253.51,199.44,234.05,190.61,212.45Z"/><path class="cls-6" d="M179.3,299c5.21,8.31-19.68-25.13-25.47-52.4S124.94,212,124.94,212s19.55,12.82,17.55,63.83,2.54,145,2.54,145l20.66,36.54L201,375.8s7.13-67.79-.58-76.23"/><path class="cls-7" d="M147.73,452.32l48.4,51.93,13.54.7S188.12,338.43,207,310.4,239.49,278,239.49,278L197.2,301.19s-49.92,5.32-52.55,52.07S147.73,452.32,147.73,452.32Z"/><path class="cls-8" d="M146.84,664S133,494.32,246.19,529.49c0,0-9.61-1.34-17.78,2.61-6.36,3.08-11.85,9.35-11.28,21.95,1.3,28.78,23.14,184.83,16.51,199.18S146.84,664,146.84,664Z"/><path class="cls-6" d="M212,566.93s7.68-69.4-1.07-78.09-28.64-18.41-28.64-18.41a27.9,27.9,0,0,0,4.81,17.69c5.93,8.54-22.36-25.85-29-53.81s-32.8-35.59-32.8-35.59S147.38,412,145.4,464.2s3.65,148.49,3.65,148.49l23.53,37.54Z"/><path class="cls-9" d="M1.63,902.48s16-4,69.41-7.8,85.43-21.56,85.44-74.23,2.67-223.86-57-197.11c0,0,49-32.52,74.76,62.88l6.23-10.77s4.45-13.2,16.9,25.72,34.71,42.68,37.38,51,2.67,78,12.46,94.52,8.9-2,16,16,3.56,24.85,49.84,29.89S331.79,898.23,419,903c0,0-8.9,1-50.73.35"/><path class="cls-4" d="M164.47,317.82a12.9,12.9,0,0,0,.31,4.48,205.09,205.09,0,0,0,7,24.27c5.23,15.13,11.63,29.82,17.25,44.8a334.56,334.56,0,0,1,12,39.54q2.49,10.41,4.44,20.93c.58,3.09,4.78,16.25,3.11,18.67l23.62-34.4c13.35-19.43,22.44-35.67,41.14-50l3.06-2.35a447.07,447.07,0,0,0-61,96.64c16,10.28,32.51,17,50.36,23.62a695.55,695.55,0,0,0,77.93-83.31L290.56,506c15,4.66,30.81,10.62,43.71,19.63l45.23-63.89a402.09,402.09,0,0,1-36.05,68.81,230.34,230.34,0,0,0,38.34,33L402.26,535l-6.37,23.71c-1.12,4.16-2.25,8.4-2,12.7.49,10.23,8.22,18.46,15.49,25.68,8.9-54.14,16.56-111-2.67-162.4-22.44-60-78.34-103.44-139.65-121.95-28.9-8.72-60.68-12.68-89.9-3.08C170.44,311.86,165.16,312.61,164.47,317.82Z"/><path class="cls-10" d="M165.91,292.73c-4.91,9.08,1.59,19.81,7.06,28.57C196.48,359,208.24,402.07,214.75,446l23.62-34.4c13.35-19.43,22.44-35.68,41.14-50l3.06-2.35a447.74,447.74,0,0,0-61,96.64c16,10.28,32.52,17,50.37,23.62a695.55,695.55,0,0,0,77.93-83.31l-53.1,85.34c15,4.65,30.81,10.61,43.71,19.62l45.22-63.89a400.68,400.68,0,0,1-36.05,68.81A230.68,230.68,0,0,0,388,539l20.48-28.51-6.37,23.7c-1.12,4.16-2.25,8.4-2,12.7.49,10.23,8.22,18.46,15.49,25.69,8.9-54.14,16.56-111-2.67-162.41-22.44-60-78.34-103.44-139.65-121.94C237.2,277.39,198.83,274.57,165.91,292.73Z"/><g class="cls-11"><path class="cls-12" d="M270.5,313.28c15.73,1.26,31.15,6.17,45.45,13.24a156.69,156.69,0,0,1,67.74,66.12c7.42,14.13,12.69,29.43,14.32,45.13a305.12,305.12,0,0,0-23.43-39.55,247.63,247.63,0,0,0-64-62.48A301.3,301.3,0,0,0,270.5,313.28Z"/></g><path class="cls-4" d="M167.88,325.66a10.22,10.22,0,0,1,.07,3.72,167.82,167.82,0,0,1-4.4,20.95c-3.51,13.19-8.11,26.18-12,39.3a271.42,271.42,0,0,0-7.65,34.21c-.95,5.94-1.72,11.89-2.35,17.84-.28,2.61-3,14-1.34,15.78l-23.88-24.84c-13.5-14-22.93-26.07-40.83-35.16L72.58,396a334.42,334.42,0,0,1,62.33,70.58c-13.58,10.76-27.85,18.64-43.35,26.68A545.33,545.33,0,0,1,15.1,436l54.33,62.43c-13.12,6-26.82,13.17-37.69,22.44l-45.59-46a295.3,295.3,0,0,0,37.74,51.32A226,226,0,0,1-7.95,558.89l-20.61-20.47L-21,557c1.33,3.25,2.68,6.57,2.83,10.14.35,8.48-5.94,16.35-11.9,23.34-12.23-43.19-23.54-88.81-10.31-133.8,15.45-52.52,62.22-96.29,115.8-120.35,25.26-11.34,53.47-19.18,80.45-15.51C162.05,321.62,166.85,321.48,167.88,325.66Z"/><path class="cls-13" d="M164.62,305.25c5.12,6.75.12,16.51-4.1,24.49-18.15,34.37-25.34,71.45-27.75,108.49l-23.89-24.85c-13.49-14-22.92-26.07-40.83-35.15l-2.93-1.49a334.17,334.17,0,0,1,62.33,70.58C113.87,458.08,99.59,466,84.1,474A544.48,544.48,0,0,1,7.64,416.81L62,479.24c-13.13,6-26.82,13.17-37.69,22.43l-45.59-45.95A295.76,295.76,0,0,0,16.42,507a225.44,225.44,0,0,1-31.83,32.62L-36,519.19l7.58,18.55c1.33,3.25,2.67,6.57,2.82,10.13.36,8.48-5.94,16.36-11.89,23.34C-49.74,528-61,482.4-47.82,437.41-32.37,384.9,14.4,341.13,68,317.07,99.43,303,133.66,295.09,164.62,305.25Z"/><g class="cls-11"><path class="cls-12" d="M72.36,337.24a392,392,0,0,0-33,24.54,267.66,267.66,0,0,0-28.69,27.93,247.13,247.13,0,0,0-24,32,275,275,0,0,0-19.05,36.26c.14-3.5.33-7.05.74-10.58.58-3.47,1.16-7,2-10.46,1-3.4,1.82-6.88,3-10.25.59-1.68,1.24-3.34,1.88-5s1.21-3.38,2-5A140.5,140.5,0,0,1,.5,380.7a147.22,147.22,0,0,1,32.66-27.57C45.3,345.7,58.49,339.93,72.36,337.24Z"/></g><path class="cls-4" d="M182.73,267.69c17.82-30.36,51.28-49.26,85.78-57S338.84,205,374,208c40.56,3.48,80.21,3.73,114.55,25.27-16.66,3.95-35.14,15-47.46,26.86-4.57,4.4-8.24,9.67-12.93,13.94-8.5,7.74-19.72,11.69-30.6,15.43-14.37-10.9-25.18-25.65-33.28-41.73l18.3,38.07c1,2,1.94,4.14,1.59,6.32-.66,4.12-5.4,6.05-9.43,7.22-7.14,2.09-14.38,4.18-21.81,4.51s-15.2-1.28-21-5.92c-3.65-2.94-6.28-6.9-8.86-10.8q-15.76-23.79-31.51-47.59,8.06,20.08,16.1,40.19c1.38,3.44,2.64,7.74.19,10.56-2.26,2.61-6.33,2.34-9.75,1.85l-43.79-6.27c-6.4-10.82-12.7-21.31-19.1-32.13l13.3,36.9a1.75,1.75,0,0,1,.12,1.34c-.25.53-.92.67-1.5.76l-32.42,4.85c-4.86.73-10.72.54-14.59-2.43-2.2-1.67-3.41-4.29-4.46-6.83a140.73,140.73,0,0,1-5.45-15.57A82.29,82.29,0,0,1,193.62,291c.13,1.83.12,3.88-1.17,5.21a7,7,0,0,1-3.91,1.58c-8.64,1.55-17.52.52-26.16,2.07C170.36,289.43,175.51,280,182.73,267.69Z"/><path class="cls-4" d="M1457.55,437.07c-7.12-5.13-15.59-8-22.71-13.13a7,7,0,0,1-2.85-3.12c-.59-1.74.28-3.6,1.18-5.2A82.78,82.78,0,0,1,1444,400.69a144.14,144.14,0,0,1-11.61,11.71c-2.05,1.84-4.27,3.68-7,4.24-4.77,1-10.15-1.34-14.22-4.09L1384,394.22c-.48-.33-1-.75-1-1.33a1.76,1.76,0,0,1,.68-1.16l27.9-27.58c-10.44,7-20.64,13.77-31.07,20.78l-42.23-13.19c-3.3-1-7.09-2.54-8-5.87-1-3.6,2-6.94,4.73-9.45l31.83-29.35-48.93,29.4c-4,2.41-8.09,4.85-12.65,5.93-7.19,1.71-14.9-.18-21.47-3.67s-12.19-8.51-17.74-13.47c-3.13-2.79-6.58-6.57-5.4-10.57.62-2.12,2.44-3.64,4.16-5l37.89-30.5c-15.41,12.94-33.23,23.27-53,27.37-8.21-8.07-16.64-16.46-21-27.11-2.39-5.87-3.43-12.21-5.67-18.14-6-16-17.94-33.94-31.28-44.68,40.27-4.67,76.17,12.18,114.28,26.5,33,12.41,66.3,26,94.09,47.81S1450,364.22,1453,399.3C1454.25,413.5,1454.83,424.24,1457.55,437.07Z"/><path class="cls-4" d="M1447.22,422.14a10.06,10.06,0,0,1-2,3.12,169.38,169.38,0,0,1-15.42,14.86c-10.32,8.93-21.42,17.09-32,25.76a273.07,273.07,0,0,0-25.56,24q-6.18,6.57-12,13.44c-1.7,2-10.38,9.91-10,12.3l-5.79-34c-3.27-19.19-4.31-34.44-14-52l-1.59-2.87a333.86,333.86,0,0,1,11.87,93.4c-17.28,1.27-33.51-.24-50.85-2.3a546,546,0,0,1-31.09-90.28l9.85,82.18c-14.23-2.42-29.59-4.19-43.79-2.64L1213,443.46a295.84,295.84,0,0,0,2.36,63.66,225.51,225.51,0,0,1-44.66,9.08q-2.78-14.27-5.54-28.52L1161,507.29c-.73,3.43-1.49,6.94-3.36,10-4.47,7.21-14.11,10.18-23,12.61,14.17-42.59,30.45-86.68,66.69-116.45,42.29-34.75,105.58-44.66,163.41-34.44,27.27,4.83,55,14.2,75.26,32.39C1444.67,415.53,1448.72,418.11,1447.22,422.14Z"/><path class="cls-14" d="M1456,403.44c.44,8.46-9.19,13.72-17.16,17.95-34.33,18.22-61.12,44.84-83.93,74.12l-5.79-34c-3.27-19.19-4.31-34.45-14-52l-1.59-2.88A334.36,334.36,0,0,1,1345.4,500c-17.29,1.27-33.52-.24-50.86-2.3a546,546,0,0,1-31.09-90.28l9.85,82.18c-14.23-2.42-29.59-4.19-43.79-2.64l-11.87-63.63A295.84,295.84,0,0,0,1220,487a225.37,225.37,0,0,1-44.66,9.08q-2.77-14.27-5.54-28.52l-4.16,19.61c-.73,3.43-1.49,6.94-3.36,10-4.47,7.21-14.11,10.18-23,12.61,14.17-42.59,30.45-86.68,66.69-116.45,42.29-34.75,105.58-44.66,163.41-34.44C1403.38,364.89,1436.1,377.62,1456,403.44Z"/><g class="cls-11"><path class="cls-12" d="M1361.71,378a394.72,394.72,0,0,0-41.07,1.76,269.49,269.49,0,0,0-39.43,7,248.21,248.21,0,0,0-37.79,12.95A275.14,275.14,0,0,0,1207.28,419c2.08-2.82,4.24-5.65,6.56-8.33s4.89-5.13,7.5-7.55,5.38-4.67,8.24-6.8c1.44-1.05,2.91-2.06,4.37-3.08s2.9-2.12,4.47-3a140.11,140.11,0,0,1,39.43-16.67,147,147,0,0,1,42.51-4.44C1334.57,369.81,1348.73,372.46,1361.71,378Z"/></g><path class="cls-4" d="M1421.47,430.14a10.06,10.06,0,0,0,2,3.12,169.38,169.38,0,0,0,15.42,14.86c10.32,8.93,21.42,17.09,32,25.76a274.31,274.31,0,0,1,25.56,24q6.18,6.57,12,13.44c1.7,2,10.38,9.91,10,12.3l5.79-34c3.27-19.19,4.31-34.44,14-52l1.59-2.87a334.24,334.24,0,0,0-11.88,93.4c17.29,1.27,33.52-.24,50.85-2.3a545.12,545.12,0,0,0,31.1-90.28L1600,517.73c14.23-2.42,29.59-4.19,43.79-2.64l11.87-63.63a295.84,295.84,0,0,1-2.36,63.66A225.37,225.37,0,0,0,1698,524.2q2.77-14.26,5.54-28.52l4.16,19.61c.73,3.43,1.49,6.94,3.36,10,4.47,7.21,14.11,10.18,23,12.61-14.17-42.59-30.45-86.68-66.69-116.45C1625,386.67,1561.74,376.76,1503.91,387c-27.27,4.83-55,14.2-75.26,32.39C1424,423.53,1420,426.11,1421.47,430.14Z"/><path class="cls-15" d="M1412.69,411.44c-.44,8.46,9.18,13.72,17.16,17.95,34.33,18.22,61.12,44.84,83.93,74.12l5.79-34c3.27-19.19,4.31-34.45,14-52l1.59-2.88A334.36,334.36,0,0,0,1523.29,508c17.29,1.27,33.52-.24,50.85-2.3a545.12,545.12,0,0,0,31.1-90.28l-9.85,82.18c14.23-2.42,29.59-4.19,43.79-2.64l11.87-63.63a295.84,295.84,0,0,1-2.36,63.66,225.37,225.37,0,0,0,44.66,9.08q2.78-14.27,5.54-28.52l4.16,19.61c.73,3.43,1.48,6.94,3.36,10,4.47,7.21,14.11,10.18,23,12.61-14.17-42.59-30.45-86.68-66.69-116.45-42.29-34.75-105.58-44.66-163.42-34.44C1465.31,372.89,1432.59,385.62,1412.69,411.44Z"/><g class="cls-11"><path class="cls-12" d="M1507,386c13-5.56,27.13-8.21,41.35-8.88a147,147,0,0,1,42.51,4.44,140.11,140.11,0,0,1,39.43,16.67c1.57.85,3,2,4.47,3s2.93,2,4.37,3.08c2.86,2.13,5.53,4.52,8.24,6.8s5.07,5,7.5,7.55,4.48,5.51,6.56,8.33a275.14,275.14,0,0,0-36.14-19.28,249,249,0,0,0-37.79-12.95,269.49,269.49,0,0,0-39.43-7A394.72,394.72,0,0,0,1507,386Z"/></g><path class="cls-4" d="M1455,404.53c-6.31,5.2-10.23,11.11-16.54,16.31a10,10,0,0,1-3.72,2.18,11,11,0,0,1-5.75-.35,87,87,0,0,1-15.92-6,119.67,119.67,0,0,1,12.24,6.77c1.9,1.21,3.79,2.54,4.22,4.29.75,3.11-2.31,6.9-5.72,9.86l-22.74,19.74a2.79,2.79,0,0,1-1.57.8,2.13,2.13,0,0,1-1.25-.36l-28.78-16.29c7,6.38,13.84,12.62,20.89,19l-18.15,29.36c-1.42,2.3-3.41,5-7.22,5.85-4.13,1-7.64-.73-10.25-2.34l-30.45-18.77,29.16,30.19c2.39,2.47,4.81,5,5.67,7.95,1.35,4.67-1.38,10-5.83,14.67s-10.51,8.88-16.52,13c-3.38,2.33-7.9,5-12.3,4.51a10.34,10.34,0,0,1-5.32-2.35l-31.28-22.72c13.32,9.19,23.52,20.23,26.57,33.09-9.72,6.18-19.8,12.53-32.11,16.35-6.78,2.1-14,3.34-20.82,5.34-18.45,5.39-39.54,14.9-52.65,24.74-2.07-26.53,19.69-52,38.77-78.68,16.56-23.16,34.4-46.55,61.13-67s63.82-37.9,103.46-42.92C1428.27,408.76,1440.38,407.45,1455,404.53Z"/><path class="cls-4" d="M1675.81,189.57c-6.29,6.12-10.62,13.94-16.91,20.06a7,7,0,0,1-3.57,2.26c-1.82.28-3.5-.91-4.91-2.08a82.91,82.91,0,0,1-12.8-13.28,142.21,142.21,0,0,1,9.49,13.49c1.45,2.34,2.87,4.84,3,7.6.15,4.88-3.11,9.75-6.52,13.28q-11.41,11.78-22.82,23.54c-.41.42-.92.87-1.49.77a1.77,1.77,0,0,1-1-.87L1596,222c5.07,11.5,9.93,22.73,15,34.23l-20.39,39.26c-1.6,3.07-3.75,6.53-7.18,6.85-3.73.34-6.49-3.18-8.48-6.31l-23.31-36.49L1572,312.91c1.67,4.37,3.35,8.82,3.62,13.5.42,7.38-2.79,14.63-7.39,20.48s-10.51,10.51-16.37,15.11c-3.29,2.59-7.62,5.32-11.35,3.46-2-1-3.16-3-4.22-5l-23.38-42.67c10,17.44,17.07,36.81,17.64,57-9.39,6.67-19.12,13.49-30.37,15.9-6.2,1.32-12.62,1.23-18.85,2.39-16.81,3.12-36.56,11.71-49.48,23,2.48-40.47,25.36-72.85,46.15-107.86,18-30.36,37.2-60.71,63.58-84.24s61.23-39.74,96.3-36.55C1652,188.69,1662.71,190,1675.81,189.57Z"/><path class="cls-6" d="M1437.77,434.47c-4.07,5.8,15.37-17.55,19.89-36.59s22.56-24.15,22.56-24.15-15.27,8.95-13.71,44.57-2,101.23-2,101.23l-16.14,25.52-27.56-56.93s-5.57-47.35.46-53.24"/><path class="cls-7" d="M1462.42,541.56l-37.79,36.27-10.57.48s16.82-116.29,2.06-135.86-25.35-22.66-25.35-22.66l33,16.22s39,3.72,41,36.37S1462.42,541.56,1462.42,541.56Z"/><path class="cls-8" d="M1463.12,689.37s10.77-118.48-77.58-93.92c0,0,7.5-.94,13.88,1.82,5,2.15,9.26,6.53,8.81,15.33-1,20.1-18.07,129.08-12.89,139.1S1463.12,689.37,1463.12,689.37Z"/><path class="cls-6" d="M1412.25,621.6s-6-48.47.84-54.54,22.36-12.86,22.36-12.86a17.86,17.86,0,0,1-3.75,12.36c-4.64,6,17.45-18,22.67-37.58S1480,504.12,1480,504.12s-17.29,9.25-15.74,45.73-2.85,103.7-2.85,103.7L1443,679.77Z"/><path class="cls-9" d="M1576.51,854.54s-12.51-2.81-54.2-5.45-66.72-15.06-66.72-51.84-2.09-156.33,44.48-137.65c0,0-38.23-22.72-58.38,43.91l-4.86-7.53s-3.48-9.21-13.21,18-27.1,29.8-29.18,35.58-2.08,54.48-9.73,66-7-1.41-12.51,11.16-2.78,17.35-38.91,20.87-14.6,4-82.7,7.32c0,0,7,.72,39.61.25"/><path class="cls-16" d="M1442.19,526.72c1.87,3.45,4.27,5.9,6.63,9a77.52,77.52,0,0,1,22.12-24.25c-7.53,10.63-18.18,30-14.61,43.28,4,15.07,18.56,33.06,27.4,45.88,3.29,4.76,18.71,32.15,24.06,31.54,2.13-.25,3.72-2,5.08-3.7l8.4-10.23c-.63,9.18-3.06,23.55.23,32.31,2.71,7.21,11.54,14.25,16.55,20.1,10.28,12,21.57,24.35,36.66,29.1,6.7,2.11,14.77,2.32,20-2.41,5.52-5,5.73-13.5,5.54-21l-1-40a2.22,2.22,0,0,0-1.32-2c-5.42-2.38-10.87-4.07-16.31-5.92a2.19,2.19,0,0,1,.33-4.23l.12,0c3.94-.79,7.8-3.1,9.38-6.79s.6-8.19-.49-12.2a962.94,962.94,0,0,0-36-106.91c-3.22-8-6.83-16.33-13.61-21.67a34.17,34.17,0,0,0-14.58-6.26,2.22,2.22,0,0,1,0-4.35l6-1.1a2.23,2.23,0,0,0,1.6-3.15c-6.89-14.38-14.25-28.86-25.78-39.8-16.86-16-40.09-23.43-62.4-17.87a2.23,2.23,0,0,0-1.53,3q3.46,8.64,7,17.25c18.95,46.19,38.89,92.1,61.06,136.83,11.13,22.45,22.69,44.66,34.93,66.53,12.51,22.35,25.77,44.25,38.58,66.43.21.36-.34.62-.56.29-14.08-21.38-26.85-43.69-39.3-66.06q-36.44-65.39-68.19-133.27c-10.61-22.7-20.26-45.89-29.69-69.1q-3.09-7.59-6.12-15.2a2.22,2.22,0,0,0-3.82-.53,87.88,87.88,0,0,0-17.79,53.35C1421,487.76,1431,506.22,1442.19,526.72Z"/></g><g class="cls-17"><path class="cls-18" d="M654.72,229.51,357.78,71"/><path class="cls-19" d="M654,230.83,357.78,71,655.42,228.18a1.5,1.5,0,0,1,.63,2,1.51,1.51,0,0,1-2,.63Z"/><circle class="cls-20" cx="146.7" cy="108.64" r="45"/><line class="cls-1" x1="199.73" y1="55.61" x2="411.86" y2="-156.53"/><circle class="cls-21" cx="199.73" cy="55.61" r="30"/><circle class="cls-22" cx="199.73" cy="55.61" r="15"/><circle class="cls-23" cx="199.73" cy="55.61" r="12.5"/><polyline class="cls-24" points="199.73 55.61 208.12 77.54 199.73 55.61 191.35 33.67 199.73 55.61 177.8 63.99 199.73 55.61 221.67 47.22 199.73 55.61 226.6 79.88 199.73 55.61 172.87 31.34 199.73 55.61 175.46 82.47 199.73 55.61 224 28.74 199.73 55.61 201.98 63.85 199.73 55.61 197.49 47.36 199.73 55.61 191.49 57.85 199.73 55.61 207.97 53.36 199.73 55.61 208.73 66.97 199.73 55.61 190.74 44.24 199.73 55.61 188.36 64.6 199.73 55.61 211.1 46.61 199.73 55.61 247.41 80.24 199.73 55.61 152.05 30.97 199.73 55.61 175.1 103.29 199.73 55.61 224.37 7.92 199.73 55.61 204.02 90.23 199.73 55.61 195.44 20.99 199.73 55.61 165.11 59.9 199.73 55.61 234.35 51.32 199.73 55.61 202.67 60.77 199.73 55.61 196.79 50.44 199.73 55.61 194.57 58.54 199.73 55.61 204.9 52.67 199.73 55.61 233.75 117.29 199.73 55.61 165.72 -6.08 199.73 55.61 138.05 89.62 199.73 55.61 261.42 21.59 199.73 55.61 242.87 101.87 199.73 55.61 156.59 9.35 199.73 55.61 153.47 98.75 199.73 55.61 245.99 12.46 199.73 55.61 211.63 74.48 199.73 55.61 187.83 36.73 199.73 55.61 180.86 67.51 199.73 55.61 218.61 43.71 199.73 55.61 229.11 72.83 199.73 55.61 170.36 38.39 199.73 55.61 182.51 84.98 199.73 55.61 216.95 26.23 199.73 55.61 215.87 122.6 199.73 55.61 183.6 -11.39 199.73 55.61 132.74 71.74 199.73 55.61 266.73 39.47 199.73 55.61 207.41 100.11 199.73 55.61 192.05 11.1 199.73 55.61 155.23 63.29 199.73 55.61 244.24 47.92 199.73 55.61 242.16 69.24 199.73 55.61 157.3 41.97 199.73 55.61 186.1 98.04 199.73 55.61 213.37 13.18 199.73 55.61 216.12 99.71 199.73 55.61 183.34 11.5 199.73 55.61 155.63 71.99 199.73 55.61 243.84 39.22"/><circle class="cls-25" cx="227.96" cy="27.38" r="6.05"/><circle class="cls-26" cx="198.85" cy="56.49" r="2.75"/><circle class="cls-27" cx="1608" cy="132.65" r="45"/><line class="cls-1" x1="1575.23" y1="65.19" x2="1444.16" y2="-204.66"/><circle class="cls-28" cx="1575.23" cy="65.19" r="30"/><circle class="cls-29" cx="1575.23" cy="65.19" r="15"/><circle class="cls-30" cx="1575.23" cy="65.19" r="12.5"/><polyline class="cls-24" points="1575.23 65.19 1598.7 64.44 1575.23 65.19 1551.76 65.94 1575.23 65.19 1575.98 88.66 1575.23 65.19 1574.48 41.72 1575.23 65.19 1606.96 47.74 1575.23 65.19 1543.51 82.64 1575.23 65.19 1592.68 96.92 1575.23 65.19 1557.78 33.47 1575.23 65.19 1583.75 65.77 1575.23 65.19 1566.71 64.61 1575.23 65.19 1574.66 73.71 1575.23 65.19 1575.81 56.67 1575.23 65.19 1588.92 60.41 1575.23 65.19 1561.55 69.97 1575.23 65.19 1580.01 78.88 1575.23 65.19 1570.45 51.51 1575.23 65.19 1614.11 28.19 1575.23 65.19 1536.36 102.19 1575.23 65.19 1612.23 104.07 1575.23 65.19 1538.23 26.32 1575.23 65.19 1609.35 72.46 1575.23 65.19 1541.11 57.92 1575.23 65.19 1567.96 99.31 1575.23 65.19 1582.5 31.07 1575.23 65.19 1581.07 64.1 1575.23 65.19 1569.39 66.28 1575.23 65.19 1576.32 71.03 1575.23 65.19 1574.14 59.35 1575.23 65.19 1644.65 53.22 1575.23 65.19 1505.81 77.16 1575.23 65.19 1587.2 134.61 1575.23 65.19 1563.26 -4.23 1575.23 65.19 1633.06 39.55 1575.23 65.19 1517.4 90.83 1575.23 65.19 1600.87 123.02 1575.23 65.19 1549.6 7.36 1575.23 65.19 1596.96 60.12 1575.23 65.19 1553.5 70.26 1575.23 65.19 1580.3 86.92 1575.23 65.19 1570.16 43.46 1575.23 65.19 1601.11 43.06 1575.23 65.19 1549.35 87.32 1575.23 65.19 1597.36 91.07 1575.23 65.19 1553.11 39.31 1575.23 65.19 1643.82 71.86 1575.23 65.19 1506.64 58.52 1575.23 65.19 1568.56 133.78 1575.23 65.19 1581.9 -3.4 1575.23 65.19 1619.8 72.49 1575.23 65.19 1530.66 57.89 1575.23 65.19 1567.93 109.76 1575.23 65.19 1582.53 20.62 1575.23 65.19 1601.99 29.55 1575.23 65.19 1548.47 100.83 1575.23 65.19 1610.87 91.95 1575.23 65.19 1539.6 38.43 1575.23 65.19 1622.27 64.13 1575.23 65.19 1528.19 66.25 1575.23 65.19 1576.29 112.23 1575.23 65.19 1574.17 18.15"/><circle class="cls-31" cx="1557.79" cy="29.29" r="6.05" transform="translate(1020.53 1491.8) rotate(-70.91)"/><circle class="cls-32" cx="1575.78" cy="66.32" r="2.75"/><path class="cls-1" d="M2,3V903H1602V3ZM234.45,50.85a5.68,5.68,0,0,1-1.54,0q.5,8.7,1.09,17.38c.3,4.49-5.17,6.07-8.13,3.89a109.72,109.72,0,0,1-2.05,13c-.93,4.17-7.15,4.9-9.14,1.19-2.63-4.93-5.14-9.94-7.65-15a220.71,220.71,0,0,1,4.75,31.32c.3,4.8-7.24,7-9.32,2.52-3.4-7.36-6.84-14.68-10.64-21.81a4.39,4.39,0,0,1-.91,2.08L191.6,88a4.54,4.54,0,0,1-2,5.38c.79,10.86,1.58,21.72,1.12,32.62a5,5,0,0,1-.34,1.54c.77,3.87,1.55,7.73,2.38,11.58,1.13,5.24-6.79,9.28-9.14,3.85-6.42-14.88-16.83-27.51-23.19-42.49C153.89,85.19,149.84,69,140.24,55.19c-3.69-5.3,5-10.29,8.63-5,9.52,13.68,13.77,29.66,20,44.9,1.15,2.83,2.46,5.57,3.87,8.26-3.37-12.48-6.23-25.11-11.39-37-2.49-5.75,5.41-10.8,8.63-5a126.92,126.92,0,0,1,8.56,19c-2.11-6.86-4-13.79-6.09-20.68a5.36,5.36,0,0,1-.49-1.08c-3.63-10.77-7.79-21.35-11.11-32.22-1.94-6.33,7.27-8.43,9.64-2.66,1.48,3.63,2.91,7.29,4.32,11A5.18,5.18,0,0,1,181,34.2c-.57-4.94-1.08-9.9-1.39-14.87-.37-5.7,8.5-6.71,9.82-1.33.41,1.69.78,3.41,1.15,5.17a3.85,3.85,0,0,1,3.9,2.53l.33.77a6.09,6.09,0,0,1,4.49-.75c.43-4,.9-8,1.42-11.94.7-5.41,8-7,9.82-1.33.82,2.55,1.55,5.12,2.21,7.7a5.15,5.15,0,0,1,4.51,4,5,5,0,0,1,4.62-1.78c0-1.74-.05-3.47-.05-5.21,0-5.8,8.14-6.59,9.82-1.33.34,1.07.66,2.15,1,3.23a5.44,5.44,0,0,1,5.88,4.77,84.12,84.12,0,0,1,.74,11.28c.35,3.23.8,6.44,1.31,9.61A5.27,5.27,0,0,1,234.45,50.85Z"/><path class="cls-33" d="M332.18,908.43l-19.36-19.36a14.14,14.14,0,0,1,0-19.93l3.32-3.32a14.14,14.14,0,0,1,19.93,0l15.06,23c5.48,5.48,9.78,10.8,4.3,16.28l-3.32,3.32A14.14,14.14,0,0,1,332.18,908.43Z"/><path class="cls-34" d="M296.07,908.84l-68.61-29.45a12,12,0,0,1-4.39-16.4l18.61-32.24a12,12,0,0,1,16.39-4.39l70.26,36.84c1.64.85-4.66,4.16-5.54,5.78-1.36,2.51,4.42-7,1.7-2.26l-21.55,30.61C299.64,903.05,301.78,912.14,296.07,908.84Z"/><path class="cls-33" d="M245.69,826.46c6.6,0,28.34,9.37,28.34,16l7.37,14.65c0,6.6-12.77,23.81-19.37,23.81H218.57a12,12,0,0,1-12-12"/><path class="cls-35" d="M275.63,907.07l-68.12,6.38a12,12,0,0,1-13.06-10.83l9.85-28.53c-.62-6.57,9.3-9.59,15.87-10.21l57.83-8.5c6.57-.62,5.27,4.58,5.88,11.15L286.45,894A12,12,0,0,1,275.63,907.07Z"/><polyline class="cls-36" points="279.7 884.29 296.06 909.4 198.6 912.45"/><polygon class="cls-37" points="296.14 909.24 271.76 888.83 278 855.38 319.95 873.52 296.14 909.24"/><polyline class="cls-38" points="317.69 872.95 350 909.8 295.01 909.8"/><path class="cls-34" d="M110.25,809.29c-2,6.56-1.27,48.91-8.08,46.84l-46-14a12.75,12.75,0,0,1-8.76-15.68l26.43-65.19c2-6.55,6.37-18.88,12-7.55"/><rect class="cls-33" x="61.49" y="822.11" width="61.39" height="31.18" rx="4.95" transform="translate(-406.5 158.33) rotate(-30)"/><path class="cls-33" d="M36.46,840.48H-.77a12,12,0,0,1-12-12l7.37-22.59c-12.87-23,.82-18.53,9.07-16.44L33.72,761.1c6.6,0,49.89-16.8,49.89-10.2L48.46,828.48A12,12,0,0,1,36.46,840.48Z"/><path class="cls-33" d="M114,867.74,92.6,877.21a23,23,0,0,1-30.2-11.65l-1.09-2.45A23,23,0,0,1,73,832.92l16.88-12.85c5.49-2.43,15.13-12.6,20.41-10.78,5.81,2,11.62,19.78,14.29,25.8l1.08,2.45A23,23,0,0,1,114,867.74Z"/><path class="cls-39" d="M87.58,878.46l-88.84,0c-6.63.42-28-9.67-37.79-18.58l-14.51-43.26c-.46-7.35,6.43-4.08,13.06-4.49l56.08,3.44c6.63-.41,21.85,11.9,22.31,19.25L72.75,860.1C76.33,866.1,94.21,878,87.58,878.46Z"/><path class="cls-37" d="M12.27,853.51-34.22,831.4c-2.25,0,10.65-10,11.91-15.3,1-4.31-15.31,10.76-15.31,9.63l-14.17-10.67c0-6.6,39.22-26.74,45.82-26.74l17.58,14.17c-1.14,5.1,3.49,6,3.49,12.57v19.08C15.1,840.74,18.87,853.51,12.27,853.51Z"/><polygon class="cls-35" points="74.54 863.72 15.01 855.22 10.47 801.92 50.16 832.54 89.84 820.07 74.54 863.72"/><path class="cls-34" d="M1446.94,822.53c1.84,5.73,1.18,42.7,7.45,40.89l42.42-12.21c6.28-1.8,9.91-8,8.07-13.69l-24.36-56.9c-1.84-5.73-5.87-16.49-11.1-6.59"/><path class="cls-33" d="M1435.86,847.89l41.1,22.47a4.72,4.72,0,0,0,6.24-1.58l9.81-16.09a4.22,4.22,0,0,0-1.67-5.91l-41.11-22.47a4.73,4.73,0,0,0-6.24,1.58L1434.18,842A4.22,4.22,0,0,0,1435.86,847.89Z"/><path class="cls-33" d="M1515,849.75h34.33c6.08,0,11.06-4.71,11.06-10.47l-6.79-19.72c11.86-20-.76-16.18-8.37-14.35l-27.7-24.75c-6.09,0-46-14.67-46-8.91l32.41,67.73C1503.92,845,1508.9,849.75,1515,849.75Z"/><path class="cls-33" d="M1443.51,873.56l19.71,8.27c10.61,4.45,23.14-.13,27.85-10.17l1-2.14c4.7-10-.14-21.91-10.75-26.37l-15.56-11.21c-5.06-2.13-14-11-18.82-9.41-5.35,1.75-10.71,17.27-13.17,22.53l-1,2.13C1428.07,857.24,1432.9,869.1,1443.51,873.56Z"/><path class="cls-39" d="M1467.85,882.92l81.91,0c6.11.36,25.84-8.44,34.84-16.22L1598,829c.42-6.42-5.93-3.56-12-3.92l-51.7,3c-6.12-.36-20.15,10.39-20.58,16.8l-32.14,22C1478.22,872.12,1461.74,882.55,1467.85,882.92Z"/><path class="cls-37" d="M1537.28,861.14l42.87-19.3c2.07,0-9.82-8.73-11-13.37-.94-3.76,14.11,9.4,14.11,8.42l13.07-9.33c0-5.76-36.17-23.34-42.25-23.34l-16.21,12.37c1,4.46-3.22,5.21-3.22,11v16.67C1534.67,850,1531.2,861.14,1537.28,861.14Z"/><polygon class="cls-35" points="1479.87 870.05 1534.76 862.62 1538.94 816.1 1502.35 842.83 1465.76 831.94 1479.87 870.05"/><path class="cls-33" d="M1310.24,884.43l19.36-19.36a14.14,14.14,0,0,0,0-19.93l-3.33-3.32a14.14,14.14,0,0,0-19.93,0l-15.06,23c-5.48,5.48-9.77,10.8-4.29,16.28l3.32,3.32A14.14,14.14,0,0,0,1310.24,884.43Z"/><path class="cls-34" d="M1346.35,884.84,1415,855.39a12,12,0,0,0,4.39-16.4l-18.61-32.24a12,12,0,0,0-16.4-4.39l-70.26,36.84c-1.63.85,4.67,4.16,5.55,5.78,1.36,2.51-4.42-7-1.7-2.26l21.54,30.61C1342.77,879.05,1340.64,888.14,1346.35,884.84Z"/><path class="cls-33" d="M1396.73,802.46c-6.6,0-28.34,9.37-28.34,16L1361,833.08c0,6.6,12.77,23.81,19.37,23.81h43.46a12,12,0,0,0,12-12"/><path class="cls-35" d="M1366.79,883.07l68.11,6.38A12,12,0,0,0,1448,878.62l-9.85-28.53c.61-6.57-9.3-9.59-15.88-10.21l-57.82-8.5c-6.57-.62-5.27,4.58-5.88,11.15L1356,870A12,12,0,0,0,1366.79,883.07Z"/><polyline class="cls-36" points="1362.72 860.29 1346.35 885.4 1443.82 888.45"/><polygon class="cls-37" points="1346.28 885.24 1370.65 864.83 1364.42 831.38 1322.46 849.52 1346.28 885.24"/><polyline class="cls-38" points="1324.73 848.95 1292.42 885.8 1347.41 885.8"/></g></g></g></svg>
