<svg xmlns="http://www.w3.org/2000/svg" xmlns:xlink="http://www.w3.org/1999/xlink" viewBox="0 0 850 650"><defs><style>.cls-1{fill:none;}.cls-2{fill:#ffcaa5;}.cls-3{clip-path:url(#clip-path);}.cls-4{fill:#d42300;}.cls-5{fill:#d32300;}.cls-6{fill:#d22300;}.cls-7{fill:#d12301;}.cls-8{fill:#d02301;}.cls-9{fill:#cf2301;}.cls-10{fill:#ce2301;}.cls-11{fill:#cd2301;}.cls-12{fill:#cc2301;}.cls-13{fill:#cb2302;}.cls-14{fill:#ca2302;}.cls-15{fill:#c92302;}.cls-16{fill:#c82302;}.cls-17{fill:#c72302;}.cls-18{fill:#c62303;}.cls-19{fill:#c52303;}.cls-20{fill:#c42303;}.cls-21{fill:#c32303;}.cls-22{fill:#c22303;}.cls-23{fill:#c12303;}.cls-24{fill:#c02304;}.cls-25{fill:#bf2304;}.cls-26{fill:#be2304;}.cls-27{fill:#bd2204;}.cls-28{fill:#bc2204;}.cls-29{fill:#bb2205;}.cls-30{fill:#ba2205;}.cls-31{fill:#b92205;}.cls-32{fill:#b82205;}.cls-33{fill:#b72205;}.cls-34{fill:#b62205;}.cls-35{fill:#b52206;}.cls-36{fill:#b42206;}.cls-37{fill:#b32206;}.cls-38{fill:#b22206;}.cls-39{fill:#b12206;}.cls-40{fill:#b02207;}.cls-41{fill:#af2207;}.cls-42{fill:#ae2207;}.cls-43{fill:#ad2207;}.cls-44{fill:#ac2207;}.cls-45{fill:#ab2207;}.cls-46{fill:#aa2208;}.cls-47{fill:#a92208;}.cls-48{fill:#a82208;}.cls-49{fill:#a72208;}.cls-50{fill:#a62208;}.cls-51{fill:#a52209;}.cls-52{fill:#a42209;}.cls-53{fill:#a32209;}.cls-54{fill:#a22209;}.cls-55{fill:#a12209;}.cls-56{fill:#a02209;}.cls-57{fill:#9f220a;}.cls-58{fill:#9e220a;}.cls-59{fill:#9d220a;}.cls-60{fill:#9c220a;}.cls-61{fill:#9b220a;}.cls-62{fill:#9a220b;}.cls-63{fill:#99220b;}.cls-64{fill:#98220b;}.cls-65{fill:#97220b;}.cls-66{fill:#96220b;}.cls-67{fill:#95220b;}.cls-68{fill:#94220c;}.cls-69{fill:#93220c;}.cls-70{fill:#92220c;}.cls-71{fill:#91210c;}.cls-72{fill:#90210c;}.cls-73{fill:#8f210d;}.cls-74{fill:#8e210d;}.cls-75{fill:#8d210d;}.cls-76{fill:#8c210d;}.cls-77{fill:#8b210d;}.cls-78{fill:#8a210d;}.cls-79{fill:#89210e;}.cls-80{fill:#88210e;}.cls-81{fill:#87210e;}.cls-82{fill:#86210e;}.cls-83{fill:#85210e;}.cls-84{fill:#84210f;}.cls-85{fill:#83210f;}.cls-86{fill:#82210f;}.cls-87{fill:#81210f;}.cls-88{fill:#80210f;}.cls-89{fill:#7f210f;}.cls-90{fill:#7e2110;}.cls-91{fill:#7d2110;}.cls-92{fill:#7c2110;}.cls-93{fill:#7a2110;}.cls-94{fill:#792110;}.cls-95{fill:#782111;}.cls-96{fill:#772111;}.cls-97{fill:#762111;}.cls-98{fill:#752111;}.cls-99{fill:#742111;}.cls-100{fill:#732111;}.cls-101{fill:#722112;}.cls-102{fill:#712112;}.cls-103{fill:#702112;}.cls-104{fill:#6f2112;}.cls-105{fill:#6e2112;}.cls-106{fill:#6d2113;}.cls-107{fill:#6c2113;}.cls-108{fill:#6b2113;}.cls-109{fill:#6a2113;}.cls-110{fill:#692113;}.cls-111{fill:#682113;}.cls-112{fill:#672114;}.cls-113{fill:#662114;}.cls-114{fill:#652114;}.cls-115{fill:#642014;}.cls-116{fill:#632014;}.cls-117{fill:#622015;}.cls-118{fill:#612015;}.cls-119{fill:#602015;}.cls-120{fill:#5f2015;}.cls-121{fill:#5e2015;}.cls-122{fill:#5d2015;}.cls-123{fill:#5c2016;}.cls-124{fill:#5b2016;}.cls-125{fill:#5a2016;}.cls-126{fill:#592016;}.cls-127{fill:#582016;}.cls-128{fill:#572017;}.cls-129{fill:#562017;}.cls-130{fill:#552017;}.cls-131{fill:#542017;}.cls-132{fill:#532017;}.cls-133{fill:#522017;}.cls-134{fill:#512018;}.cls-135{fill:#502018;}.cls-136{fill:#4f2018;}.cls-137{fill:#4e2018;}.cls-138{fill:#4d2018;}.cls-139{fill:#4c2019;}.cls-140{fill:#4b2019;}.cls-141{fill:#4a2019;}.cls-142{fill:#492019;}.cls-143{fill:#482019;}.cls-144{fill:#472019;}.cls-145{fill:#46201a;}.cls-146{fill:#45201a;}.cls-147{fill:#44201a;}.cls-148{fill:#43201a;}.cls-149{fill:#42201a;}.cls-150{fill:#41201b;}.cls-151{fill:#40201b;}.cls-152{fill:#3f201b;}.cls-153{fill:#3e201b;}.cls-154{fill:#3d201b;}.cls-155{fill:#3c201b;}.cls-156{fill:#3b201c;}.cls-157{fill:#3a201c;}.cls-158{fill:#39201c;}.cls-159{fill:#381f1c;}.cls-160{fill:#371f1c;}.cls-161{fill:#361f1d;}.cls-162{fill:#351f1d;}.cls-163{fill:#341f1d;}.cls-164{fill:#331f1d;}.cls-165{fill:#321f1d;}.cls-166{fill:#311f1d;}.cls-167{fill:#301f1e;}.cls-168{fill:#2f1f1e;}.cls-169{fill:#2e1f1e;}.cls-170{fill:#2d1f1e;}.cls-171{fill:#2c1f1e;}.cls-172{fill:#2b1f1f;}.cls-173{fill:#2a1f1f;}.cls-174{fill:#291f1f;}.cls-175{fill:#281f1f;}.cls-176{fill:#271f1f;}.cls-177{fill:#261f1f;}.cls-178{fill:#251f20;}.cls-179{fill:#241f20;}.cls-180{fill:#231f20;}.cls-181{fill:#261f20;}.cls-182{fill:#2c1e1f;}.cls-183{fill:#2d1e1e;}.cls-184{fill:#2e1e1e;}.cls-185{fill:#2f1e1e;}.cls-186{fill:#301e1e;}.cls-187{fill:#311e1e;}.cls-188{fill:#321e1e;}.cls-189{fill:#331e1d;}.cls-190{fill:#341e1d;}.cls-191{fill:#351e1d;}.cls-192{fill:#361e1d;}.cls-193{fill:#371e1d;}.cls-194{fill:#381e1d;}.cls-195{fill:#391e1c;}.cls-196{fill:#3a1e1c;}.cls-197{fill:#3b1e1c;}.cls-198{fill:#3c1d1c;}.cls-199{fill:#3d1d1c;}.cls-200{fill:#3e1d1c;}.cls-201{fill:#3f1d1b;}.cls-202{fill:#401d1b;}.cls-203{fill:#411d1b;}.cls-204{fill:#421d1b;}.cls-205{fill:#431d1b;}.cls-206{fill:#441d1b;}.cls-207{fill:#451d1a;}.cls-208{fill:#461d1a;}.cls-209{fill:#471d1a;}.cls-210{fill:#481d1a;}.cls-211{fill:#491d1a;}.cls-212{fill:#4a1d1a;}.cls-213{fill:#4b1d1a;}.cls-214{fill:#4c1d19;}.cls-215{fill:#4d1c19;}.cls-216{fill:#4e1c19;}.cls-217{fill:#4f1c19;}.cls-218{fill:#501c19;}.cls-219{fill:#511c19;}.cls-220{fill:#521c18;}.cls-221{fill:#531c18;}.cls-222{fill:#541c18;}.cls-223{fill:#551c18;}.cls-224{fill:#561c18;}.cls-225{fill:#571c18;}.cls-226{fill:#581c17;}.cls-227{fill:#591c17;}.cls-228{fill:#5a1c17;}.cls-229{fill:#5b1c17;}.cls-230{fill:#5c1c17;}.cls-231{fill:#5d1b17;}.cls-232{fill:#5e1b16;}.cls-233{fill:#5f1b16;}.cls-234{fill:#601b16;}.cls-235{fill:#611b16;}.cls-236{fill:#621b16;}.cls-237{fill:#631b16;}.cls-238{fill:#641b15;}.cls-239{fill:#651b15;}.cls-240{fill:#661b15;}.cls-241{fill:#671b15;}.cls-242{fill:#681b15;}.cls-243{fill:#691b15;}.cls-244{fill:#6a1b14;}.cls-245{fill:#6b1b14;}.cls-246{fill:#6c1b14;}.cls-247{fill:#6d1a14;}.cls-248{fill:#6e1a14;}.cls-249{fill:#6f1a14;}.cls-250{fill:#701a13;}.cls-251{fill:#711a13;}.cls-252{fill:#721a13;}.cls-253{fill:#731a13;}.cls-254{fill:#741a13;}.cls-255{fill:#751a13;}.cls-256{fill:#761a13;}.cls-257{fill:#771a12;}.cls-258{fill:#781a12;}.cls-259{fill:#791a12;}.cls-260{fill:#7a1a12;}.cls-261{fill:#7b1a12;}.cls-262{fill:#7c1a12;}.cls-263{fill:#7d1a11;}.cls-264{fill:#7e1911;}.cls-265{fill:#7f1911;}.cls-266{fill:#801911;}.cls-267{fill:#811911;}.cls-268{fill:#821911;}.cls-269{fill:#831910;}.cls-270{fill:#841910;}.cls-271{fill:#851910;}.cls-272{fill:#871910;}.cls-273{fill:#881910;}.cls-274{fill:#891910;}.cls-275{fill:#8a190f;}.cls-276{fill:#8b190f;}.cls-277{fill:#8c190f;}.cls-278{fill:#8d190f;}.cls-279{fill:#8e190f;}.cls-280{fill:#8f180f;}.cls-281{fill:#90180e;}.cls-282{fill:#91180e;}.cls-283{fill:#92180e;}.cls-284{fill:#93180e;}.cls-285{fill:#94180e;}.cls-286{fill:#95180e;}.cls-287{fill:#96180d;}.cls-288{fill:#97180d;}.cls-289{fill:#98180d;}.cls-290{fill:#99180d;}.cls-291{fill:#9a180d;}.cls-292{fill:#9b180d;}.cls-293{fill:#9c180d;}.cls-294{fill:#9d180c;}.cls-295{fill:#9e180c;}.cls-296{fill:#9f180c;}.cls-297{fill:#a0170c;}.cls-298{fill:#a1170c;}.cls-299{fill:#a2170c;}.cls-300{fill:#a3170b;}.cls-301{fill:#a4170b;}.cls-302{fill:#a5170b;}.cls-303{fill:#a6170b;}.cls-304{fill:#a7170b;}.cls-305{fill:#a8170b;}.cls-306{fill:#a9170a;}.cls-307{fill:#aa170a;}.cls-308{fill:#ab170a;}.cls-309{fill:#ac170a;}.cls-310{fill:#ad170a;}.cls-311{fill:#ae170a;}.cls-312{fill:#af1709;}.cls-313{fill:#b01609;}.cls-314{fill:#b11609;}.cls-315{fill:#b21609;}.cls-316{fill:#b31609;}.cls-317{fill:#b41609;}.cls-318{fill:#b51608;}.cls-319{fill:#b61608;}.cls-320{fill:#b71608;}.cls-321{fill:#b81608;}.cls-322{fill:#b91608;}.cls-323{fill:#ba1608;}.cls-324{fill:#bb1607;}.cls-325{fill:#bc1607;}.cls-326{fill:#bd1607;}.cls-327{fill:#be1607;}.cls-328{fill:#bf1607;}.cls-329{fill:#c01507;}.cls-330{fill:#c11506;}.cls-331{fill:#c21506;}.cls-332{fill:#c31506;}.cls-333{fill:#c41506;}.cls-334{fill:#c51506;}.cls-335{fill:#c61506;}.cls-336{fill:#c71506;}.cls-337{fill:#c81505;}.cls-338{fill:#c91505;}.cls-339{fill:#ca1505;}.cls-340{fill:#cb1505;}.cls-341{fill:#cc1505;}.cls-342{fill:#cd1505;}.cls-343{fill:#ce1504;}.cls-344{fill:#cf1504;}.cls-345{fill:#d01504;}.cls-346{fill:#d11404;}.cls-347{fill:#d21404;}.cls-348{fill:#d31404;}.cls-349{fill:#d41403;}.cls-350{fill:#d51403;}.cls-351{fill:#d61403;}.cls-352{fill:#d71403;}.cls-353{fill:#d81403;}.cls-354{fill:#d91403;}.cls-355{fill:#da1402;}.cls-356{fill:#db1402;}.cls-357{fill:#dc1402;}.cls-358{fill:#dd1402;}.cls-359{fill:#de1402;}.cls-360{fill:#df1402;}.cls-361{fill:#e01401;}.cls-362{fill:#e11301;}.cls-363{fill:#e21301;}.cls-364{fill:#e31301;}.cls-365{fill:#e41301;}.cls-366{fill:#e51301;}.cls-367{fill:#e61300;}.cls-368{fill:#e71300;}.cls-369{fill:#e81300;}.cls-370{fill:#e91300;}.cls-371{fill:#ff0322;}.cls-372{fill:#020001;}.cls-373,.cls-376,.cls-384,.cls-388{fill:#2ef6ff;}.cls-374{fill:#e1ff02;}.cls-375{fill:#f3ffad;}.cls-376{stroke:#ed1c24;}.cls-376,.cls-382,.cls-383,.cls-384,.cls-385,.cls-386,.cls-387,.cls-388{stroke-miterlimit:10;}.cls-377,.cls-386{fill:#ff1d08;}.cls-378{fill:#fff;}.cls-379,.cls-387{fill:#ff032d;}.cls-380{fill:#0a0909;}.cls-381{fill:#0a0a0a;}.cls-382,.cls-383{fill:#052355;}.cls-382{stroke:#eef408;}.cls-383{stroke:#000;}.cls-384{stroke:#fff;}.cls-385{fill:#ff3131;stroke:#f4f408;}.cls-386,.cls-387,.cls-388{stroke:#efff00;}.cls-387,.cls-388{stroke-width:2px;}</style><clipPath id="clip-path"><ellipse class="cls-1" cx="630.11" cy="239.78" rx="9.42" ry="18.12"/></clipPath></defs><title>Tilde</title><g id="Tilde"><ellipse class="cls-2" cx="636.96" cy="210.93" rx="73.64" ry="65.47"/><g class="cls-3"><rect class="cls-4" x="620.69" y="257.8" width="18.84" height="0.1"/><rect class="cls-5" x="620.69" y="257.7" width="18.84" height="0.1"/><rect class="cls-6" x="620.69" y="257.6" width="18.84" height="0.1"/><rect class="cls-7" x="620.69" y="257.49" width="18.84" height="0.1"/><rect class="cls-8" x="620.69" y="257.39" width="18.84" height="0.1"/><rect class="cls-9" x="620.69" y="257.29" width="18.84" height="0.1"/><rect class="cls-10" x="620.69" y="257.18" width="18.84" height="0.1"/><rect class="cls-11" x="620.69" y="257.08" width="18.84" height="0.1"/><rect class="cls-12" x="620.69" y="256.98" width="18.84" height="0.1"/><rect class="cls-13" x="620.69" y="256.87" width="18.84" height="0.1"/><rect class="cls-14" x="620.69" y="256.77" width="18.84" height="0.1"/><rect class="cls-15" x="620.69" y="256.67" width="18.84" height="0.1"/><rect class="cls-16" x="620.69" y="256.56" width="18.84" height="0.1"/><rect class="cls-17" x="620.69" y="256.46" width="18.84" height="0.1"/><rect class="cls-18" x="620.69" y="256.36" width="18.84" height="0.1"/><rect class="cls-19" x="620.69" y="256.25" width="18.84" height="0.1"/><rect class="cls-20" x="620.69" y="256.15" width="18.84" height="0.1"/><rect class="cls-21" x="620.69" y="256.05" width="18.84" height="0.1"/><rect class="cls-22" x="620.69" y="255.94" width="18.84" height="0.1"/><rect class="cls-23" x="620.69" y="255.84" width="18.84" height="0.1"/><rect class="cls-24" x="620.69" y="255.74" width="18.84" height="0.1"/><rect class="cls-25" x="620.69" y="255.64" width="18.84" height="0.1"/><rect class="cls-26" x="620.69" y="255.53" width="18.84" height="0.1"/><rect class="cls-27" x="620.69" y="255.43" width="18.84" height="0.1"/><rect class="cls-28" x="620.69" y="255.33" width="18.84" height="0.1"/><rect class="cls-29" x="620.69" y="255.22" width="18.84" height="0.1"/><rect class="cls-30" x="620.69" y="255.12" width="18.84" height="0.1"/><rect class="cls-31" x="620.69" y="255.02" width="18.84" height="0.1"/><rect class="cls-32" x="620.69" y="254.91" width="18.84" height="0.1"/><rect class="cls-33" x="620.69" y="254.81" width="18.84" height="0.1"/><rect class="cls-34" x="620.69" y="254.71" width="18.84" height="0.1"/><rect class="cls-35" x="620.69" y="254.6" width="18.84" height="0.1"/><rect class="cls-36" x="620.69" y="254.5" width="18.84" height="0.1"/><rect class="cls-37" x="620.69" y="254.4" width="18.84" height="0.1"/><rect class="cls-38" x="620.69" y="254.29" width="18.84" height="0.1"/><rect class="cls-39" x="620.69" y="254.19" width="18.84" height="0.1"/><rect class="cls-40" x="620.69" y="254.09" width="18.84" height="0.1"/><rect class="cls-41" x="620.69" y="253.98" width="18.84" height="0.1"/><rect class="cls-42" x="620.69" y="253.88" width="18.84" height="0.1"/><rect class="cls-43" x="620.69" y="253.78" width="18.84" height="0.1"/><rect class="cls-44" x="620.69" y="253.67" width="18.84" height="0.1"/><rect class="cls-45" x="620.69" y="253.57" width="18.84" height="0.1"/><rect class="cls-46" x="620.69" y="253.47" width="18.84" height="0.1"/><rect class="cls-47" x="620.69" y="253.37" width="18.84" height="0.1"/><rect class="cls-48" x="620.69" y="253.26" width="18.84" height="0.1"/><rect class="cls-49" x="620.69" y="253.16" width="18.84" height="0.1"/><rect class="cls-50" x="620.69" y="253.06" width="18.84" height="0.1"/><rect class="cls-51" x="620.69" y="252.95" width="18.84" height="0.1"/><rect class="cls-52" x="620.69" y="252.85" width="18.84" height="0.1"/><rect class="cls-53" x="620.69" y="252.75" width="18.84" height="0.1"/><rect class="cls-54" x="620.69" y="252.64" width="18.84" height="0.1"/><rect class="cls-55" x="620.69" y="252.54" width="18.84" height="0.1"/><rect class="cls-56" x="620.69" y="252.44" width="18.84" height="0.1"/><rect class="cls-57" x="620.69" y="252.33" width="18.84" height="0.1"/><rect class="cls-58" x="620.69" y="252.23" width="18.84" height="0.1"/><rect class="cls-59" x="620.69" y="252.13" width="18.84" height="0.1"/><rect class="cls-60" x="620.69" y="252.02" width="18.84" height="0.1"/><rect class="cls-61" x="620.69" y="251.92" width="18.84" height="0.1"/><rect class="cls-62" x="620.69" y="251.82" width="18.84" height="0.1"/><rect class="cls-63" x="620.69" y="251.71" width="18.84" height="0.1"/><rect class="cls-64" x="620.69" y="251.61" width="18.84" height="0.1"/><rect class="cls-65" x="620.69" y="251.51" width="18.84" height="0.1"/><rect class="cls-66" x="620.69" y="251.41" width="18.84" height="0.1"/><rect class="cls-67" x="620.69" y="251.3" width="18.84" height="0.1"/><rect class="cls-68" x="620.69" y="251.2" width="18.84" height="0.1"/><rect class="cls-69" x="620.69" y="251.1" width="18.84" height="0.1"/><rect class="cls-70" x="620.69" y="250.99" width="18.84" height="0.1"/><rect class="cls-71" x="620.69" y="250.89" width="18.84" height="0.1"/><rect class="cls-72" x="620.69" y="250.79" width="18.84" height="0.1"/><rect class="cls-73" x="620.69" y="250.68" width="18.84" height="0.1"/><rect class="cls-74" x="620.69" y="250.58" width="18.84" height="0.1"/><rect class="cls-75" x="620.69" y="250.48" width="18.84" height="0.1"/><rect class="cls-76" x="620.69" y="250.37" width="18.84" height="0.1"/><rect class="cls-77" x="620.69" y="250.27" width="18.84" height="0.1"/><rect class="cls-78" x="620.69" y="250.17" width="18.84" height="0.1"/><rect class="cls-79" x="620.69" y="250.06" width="18.84" height="0.1"/><rect class="cls-80" x="620.69" y="249.96" width="18.84" height="0.1"/><rect class="cls-81" x="620.69" y="249.86" width="18.84" height="0.1"/><rect class="cls-82" x="620.69" y="249.75" width="18.84" height="0.1"/><rect class="cls-83" x="620.69" y="249.65" width="18.84" height="0.1"/><rect class="cls-84" x="620.69" y="249.55" width="18.84" height="0.1"/><rect class="cls-85" x="620.69" y="249.44" width="18.84" height="0.1"/><rect class="cls-86" x="620.69" y="249.34" width="18.84" height="0.1"/><rect class="cls-87" x="620.69" y="249.24" width="18.84" height="0.1"/><rect class="cls-88" x="620.69" y="249.14" width="18.84" height="0.1"/><rect class="cls-89" x="620.69" y="249.03" width="18.84" height="0.1"/><rect class="cls-90" x="620.69" y="248.93" width="18.84" height="0.1"/><rect class="cls-91" x="620.69" y="248.83" width="18.84" height="0.1"/><rect class="cls-92" x="620.69" y="248.72" width="18.84" height="0.1"/><rect class="cls-93" x="620.69" y="248.62" width="18.84" height="0.1"/><rect class="cls-94" x="620.69" y="248.52" width="18.84" height="0.1"/><rect class="cls-95" x="620.69" y="248.41" width="18.84" height="0.1"/><rect class="cls-96" x="620.69" y="248.31" width="18.84" height="0.1"/><rect class="cls-97" x="620.69" y="248.21" width="18.84" height="0.1"/><rect class="cls-98" x="620.69" y="248.1" width="18.84" height="0.1"/><rect class="cls-99" x="620.69" y="248" width="18.84" height="0.1"/><rect class="cls-100" x="620.69" y="247.9" width="18.84" height="0.1"/><rect class="cls-101" x="620.69" y="247.79" width="18.84" height="0.1"/><rect class="cls-102" x="620.69" y="247.69" width="18.84" height="0.1"/><rect class="cls-103" x="620.69" y="247.59" width="18.84" height="0.1"/><rect class="cls-104" x="620.69" y="247.48" width="18.84" height="0.1"/><rect class="cls-105" x="620.69" y="247.38" width="18.84" height="0.1"/><rect class="cls-106" x="620.69" y="247.28" width="18.84" height="0.1"/><rect class="cls-107" x="620.69" y="247.17" width="18.84" height="0.1"/><rect class="cls-108" x="620.69" y="247.07" width="18.84" height="0.1"/><rect class="cls-109" x="620.69" y="246.97" width="18.84" height="0.1"/><rect class="cls-110" x="620.69" y="246.87" width="18.84" height="0.1"/><rect class="cls-111" x="620.69" y="246.76" width="18.84" height="0.1"/><rect class="cls-112" x="620.69" y="246.66" width="18.84" height="0.1"/><rect class="cls-113" x="620.69" y="246.56" width="18.84" height="0.1"/><rect class="cls-114" x="620.69" y="246.45" width="18.84" height="0.1"/><rect class="cls-115" x="620.69" y="246.35" width="18.84" height="0.1"/><rect class="cls-116" x="620.69" y="246.25" width="18.84" height="0.1"/><rect class="cls-117" x="620.69" y="246.14" width="18.84" height="0.1"/><rect class="cls-118" x="620.69" y="246.04" width="18.84" height="0.1"/><rect class="cls-119" x="620.69" y="245.94" width="18.84" height="0.1"/><rect class="cls-120" x="620.69" y="245.83" width="18.84" height="0.1"/><rect class="cls-121" x="620.69" y="245.73" width="18.84" height="0.1"/><rect class="cls-122" x="620.69" y="245.63" width="18.84" height="0.1"/><rect class="cls-123" x="620.69" y="245.52" width="18.84" height="0.1"/><rect class="cls-124" x="620.69" y="245.42" width="18.84" height="0.1"/><rect class="cls-125" x="620.69" y="245.32" width="18.84" height="0.1"/><rect class="cls-126" x="620.69" y="245.21" width="18.84" height="0.1"/><rect class="cls-127" x="620.69" y="245.11" width="18.84" height="0.1"/><rect class="cls-128" x="620.69" y="245.01" width="18.84" height="0.1"/><rect class="cls-129" x="620.69" y="244.91" width="18.84" height="0.1"/><rect class="cls-130" x="620.69" y="244.8" width="18.84" height="0.1"/><rect class="cls-131" x="620.69" y="244.7" width="18.84" height="0.1"/><rect class="cls-132" x="620.69" y="244.6" width="18.84" height="0.1"/><rect class="cls-133" x="620.69" y="244.49" width="18.84" height="0.1"/><rect class="cls-134" x="620.69" y="244.39" width="18.84" height="0.1"/><rect class="cls-135" x="620.69" y="244.29" width="18.84" height="0.1"/><rect class="cls-136" x="620.69" y="244.18" width="18.84" height="0.1"/><rect class="cls-137" x="620.69" y="244.08" width="18.84" height="0.1"/><rect class="cls-138" x="620.69" y="243.98" width="18.84" height="0.1"/><rect class="cls-139" x="620.69" y="243.87" width="18.84" height="0.1"/><rect class="cls-140" x="620.69" y="243.77" width="18.84" height="0.1"/><rect class="cls-141" x="620.69" y="243.67" width="18.84" height="0.1"/><rect class="cls-142" x="620.69" y="243.56" width="18.84" height="0.1"/><rect class="cls-143" x="620.69" y="243.46" width="18.84" height="0.1"/><rect class="cls-144" x="620.69" y="243.36" width="18.84" height="0.1"/><rect class="cls-145" x="620.69" y="243.25" width="18.84" height="0.1"/><rect class="cls-146" x="620.69" y="243.15" width="18.84" height="0.1"/><rect class="cls-147" x="620.69" y="243.05" width="18.84" height="0.1"/><rect class="cls-148" x="620.69" y="242.94" width="18.84" height="0.1"/><rect class="cls-149" x="620.69" y="242.84" width="18.84" height="0.1"/><rect class="cls-150" x="620.69" y="242.74" width="18.84" height="0.1"/><rect class="cls-151" x="620.69" y="242.64" width="18.84" height="0.1"/><rect class="cls-152" x="620.69" y="242.53" width="18.84" height="0.1"/><rect class="cls-153" x="620.69" y="242.43" width="18.84" height="0.1"/><rect class="cls-154" x="620.69" y="242.33" width="18.84" height="0.1"/><rect class="cls-155" x="620.69" y="242.22" width="18.84" height="0.1"/><rect class="cls-156" x="620.69" y="242.12" width="18.84" height="0.1"/><rect class="cls-157" x="620.69" y="242.02" width="18.84" height="0.1"/><rect class="cls-158" x="620.69" y="241.91" width="18.84" height="0.1"/><rect class="cls-159" x="620.69" y="241.81" width="18.84" height="0.1"/><rect class="cls-160" x="620.69" y="241.71" width="18.84" height="0.1"/><rect class="cls-161" x="620.69" y="241.6" width="18.84" height="0.1"/><rect class="cls-162" x="620.69" y="241.5" width="18.84" height="0.1"/><rect class="cls-163" x="620.69" y="241.4" width="18.84" height="0.1"/><rect class="cls-164" x="620.69" y="241.29" width="18.84" height="0.1"/><rect class="cls-165" x="620.69" y="241.19" width="18.84" height="0.1"/><rect class="cls-166" x="620.69" y="241.09" width="18.84" height="0.1"/><rect class="cls-167" x="620.69" y="240.98" width="18.84" height="0.1"/><rect class="cls-168" x="620.69" y="240.88" width="18.84" height="0.1"/><rect class="cls-169" x="620.69" y="240.78" width="18.84" height="0.1"/><rect class="cls-170" x="620.69" y="240.67" width="18.84" height="0.1"/><rect class="cls-171" x="620.69" y="240.57" width="18.84" height="0.1"/><rect class="cls-172" x="620.69" y="240.47" width="18.84" height="0.1"/><rect class="cls-173" x="620.69" y="240.37" width="18.84" height="0.1"/><rect class="cls-174" x="620.69" y="240.26" width="18.84" height="0.1"/><rect class="cls-175" x="620.69" y="240.16" width="18.84" height="0.1"/><rect class="cls-176" x="620.69" y="240.06" width="18.84" height="0.1"/><rect class="cls-177" x="620.69" y="239.95" width="18.84" height="0.1"/><rect class="cls-178" x="620.69" y="239.85" width="18.84" height="0.1"/><rect class="cls-179" x="620.69" y="239.75" width="18.84" height="0.1"/><rect class="cls-180" x="620.69" y="239.64" width="18.84" height="0.1"/><rect class="cls-180" x="620.69" y="239.56" width="18.84" height="0.09"/><rect class="cls-179" x="620.69" y="239.47" width="18.84" height="0.09"/><rect class="cls-178" x="620.69" y="239.39" width="18.84" height="0.09"/><rect class="cls-181" x="620.69" y="239.3" width="18.84" height="0.09"/><rect class="cls-176" x="620.69" y="239.22" width="18.84" height="0.09"/><rect class="cls-175" x="620.69" y="239.13" width="18.84" height="0.09"/><rect class="cls-174" x="620.69" y="239.05" width="18.84" height="0.09"/><rect class="cls-173" x="620.69" y="238.96" width="18.84" height="0.09"/><rect class="cls-172" x="620.69" y="238.88" width="18.84" height="0.09"/><rect class="cls-182" x="620.69" y="238.79" width="18.84" height="0.09"/><rect class="cls-183" x="620.69" y="238.71" width="18.84" height="0.09"/><rect class="cls-184" x="620.69" y="238.62" width="18.84" height="0.09"/><rect class="cls-185" x="620.69" y="238.54" width="18.84" height="0.09"/><rect class="cls-186" x="620.69" y="238.45" width="18.84" height="0.09"/><rect class="cls-187" x="620.69" y="238.37" width="18.84" height="0.09"/><rect class="cls-188" x="620.69" y="238.28" width="18.84" height="0.09"/><rect class="cls-189" x="620.69" y="238.19" width="18.84" height="0.09"/><rect class="cls-190" x="620.69" y="238.11" width="18.84" height="0.09"/><rect class="cls-191" x="620.69" y="238.02" width="18.84" height="0.09"/><rect class="cls-192" x="620.69" y="237.94" width="18.84" height="0.09"/><rect class="cls-193" x="620.69" y="237.85" width="18.84" height="0.09"/><rect class="cls-194" x="620.69" y="237.77" width="18.84" height="0.09"/><rect class="cls-195" x="620.69" y="237.68" width="18.84" height="0.09"/><rect class="cls-196" x="620.69" y="237.6" width="18.84" height="0.09"/><rect class="cls-197" x="620.69" y="237.51" width="18.84" height="0.09"/><rect class="cls-198" x="620.69" y="237.43" width="18.84" height="0.09"/><rect class="cls-199" x="620.69" y="237.34" width="18.84" height="0.09"/><rect class="cls-200" x="620.69" y="237.26" width="18.84" height="0.09"/><rect class="cls-201" x="620.69" y="237.17" width="18.84" height="0.09"/><rect class="cls-202" x="620.69" y="237.09" width="18.84" height="0.09"/><rect class="cls-203" x="620.69" y="237" width="18.84" height="0.09"/><rect class="cls-204" x="620.69" y="236.92" width="18.84" height="0.09"/><rect class="cls-205" x="620.69" y="236.83" width="18.84" height="0.09"/><rect class="cls-206" x="620.69" y="236.75" width="18.84" height="0.09"/><rect class="cls-207" x="620.69" y="236.66" width="18.84" height="0.09"/><rect class="cls-208" x="620.69" y="236.58" width="18.84" height="0.09"/><rect class="cls-209" x="620.69" y="236.49" width="18.84" height="0.09"/><rect class="cls-210" x="620.69" y="236.41" width="18.84" height="0.09"/><rect class="cls-211" x="620.69" y="236.32" width="18.84" height="0.09"/><rect class="cls-212" x="620.69" y="236.24" width="18.84" height="0.09"/><rect class="cls-213" x="620.69" y="236.15" width="18.84" height="0.09"/><rect class="cls-214" x="620.69" y="236.06" width="18.84" height="0.09"/><rect class="cls-215" x="620.69" y="235.98" width="18.84" height="0.09"/><rect class="cls-216" x="620.69" y="235.89" width="18.84" height="0.09"/><rect class="cls-217" x="620.69" y="235.81" width="18.84" height="0.09"/><rect class="cls-218" x="620.69" y="235.72" width="18.84" height="0.09"/><rect class="cls-219" x="620.69" y="235.64" width="18.84" height="0.09"/><rect class="cls-220" x="620.69" y="235.55" width="18.84" height="0.09"/><rect class="cls-221" x="620.69" y="235.47" width="18.84" height="0.09"/><rect class="cls-222" x="620.69" y="235.38" width="18.84" height="0.09"/><rect class="cls-223" x="620.69" y="235.3" width="18.84" height="0.09"/><rect class="cls-224" x="620.69" y="235.21" width="18.84" height="0.09"/><rect class="cls-225" x="620.69" y="235.13" width="18.84" height="0.09"/><rect class="cls-226" x="620.69" y="235.04" width="18.84" height="0.09"/><rect class="cls-227" x="620.69" y="234.96" width="18.84" height="0.09"/><rect class="cls-228" x="620.69" y="234.87" width="18.84" height="0.09"/><rect class="cls-229" x="620.69" y="234.79" width="18.84" height="0.09"/><rect class="cls-230" x="620.69" y="234.7" width="18.84" height="0.09"/><rect class="cls-231" x="620.69" y="234.62" width="18.84" height="0.09"/><rect class="cls-232" x="620.69" y="234.53" width="18.84" height="0.09"/><rect class="cls-233" x="620.69" y="234.45" width="18.84" height="0.09"/><rect class="cls-234" x="620.69" y="234.36" width="18.84" height="0.09"/><rect class="cls-235" x="620.69" y="234.28" width="18.84" height="0.09"/><rect class="cls-236" x="620.69" y="234.19" width="18.84" height="0.09"/><rect class="cls-237" x="620.69" y="234.11" width="18.84" height="0.09"/><rect class="cls-238" x="620.69" y="234.02" width="18.84" height="0.09"/><rect class="cls-239" x="620.69" y="233.93" width="18.84" height="0.09"/><rect class="cls-240" x="620.69" y="233.85" width="18.84" height="0.09"/><rect class="cls-241" x="620.69" y="233.76" width="18.84" height="0.09"/><rect class="cls-242" x="620.69" y="233.68" width="18.84" height="0.09"/><rect class="cls-243" x="620.69" y="233.59" width="18.84" height="0.09"/><rect class="cls-244" x="620.69" y="233.51" width="18.84" height="0.09"/><rect class="cls-245" x="620.69" y="233.42" width="18.84" height="0.09"/><rect class="cls-246" x="620.69" y="233.34" width="18.84" height="0.09"/><rect class="cls-247" x="620.69" y="233.25" width="18.84" height="0.09"/><rect class="cls-248" x="620.69" y="233.17" width="18.84" height="0.09"/><rect class="cls-249" x="620.69" y="233.08" width="18.84" height="0.09"/><rect class="cls-250" x="620.69" y="233" width="18.84" height="0.09"/><rect class="cls-251" x="620.69" y="232.91" width="18.84" height="0.09"/><rect class="cls-252" x="620.69" y="232.83" width="18.84" height="0.09"/><rect class="cls-253" x="620.69" y="232.74" width="18.84" height="0.09"/><rect class="cls-254" x="620.69" y="232.66" width="18.84" height="0.09"/><rect class="cls-255" x="620.69" y="232.57" width="18.84" height="0.09"/><rect class="cls-256" x="620.69" y="232.49" width="18.84" height="0.09"/><rect class="cls-257" x="620.69" y="232.4" width="18.84" height="0.09"/><rect class="cls-258" x="620.69" y="232.32" width="18.84" height="0.09"/><rect class="cls-259" x="620.69" y="232.23" width="18.84" height="0.09"/><rect class="cls-260" x="620.69" y="232.15" width="18.84" height="0.09"/><rect class="cls-261" x="620.69" y="232.06" width="18.84" height="0.09"/><rect class="cls-262" x="620.69" y="231.98" width="18.84" height="0.09"/><rect class="cls-263" x="620.69" y="231.89" width="18.84" height="0.09"/><rect class="cls-264" x="620.69" y="231.8" width="18.84" height="0.09"/><rect class="cls-265" x="620.69" y="231.72" width="18.84" height="0.09"/><rect class="cls-266" x="620.69" y="231.63" width="18.84" height="0.09"/><rect class="cls-267" x="620.69" y="231.55" width="18.84" height="0.09"/><rect class="cls-268" x="620.69" y="231.46" width="18.84" height="0.09"/><rect class="cls-269" x="620.69" y="231.38" width="18.84" height="0.09"/><rect class="cls-270" x="620.69" y="231.29" width="18.84" height="0.09"/><rect class="cls-271" x="620.69" y="231.21" width="18.84" height="0.09"/><rect class="cls-272" x="620.69" y="231.12" width="18.84" height="0.09"/><rect class="cls-273" x="620.69" y="231.04" width="18.84" height="0.09"/><rect class="cls-274" x="620.69" y="230.95" width="18.84" height="0.09"/><rect class="cls-275" x="620.69" y="230.87" width="18.84" height="0.09"/><rect class="cls-276" x="620.69" y="230.78" width="18.84" height="0.09"/><rect class="cls-277" x="620.69" y="230.7" width="18.84" height="0.09"/><rect class="cls-278" x="620.69" y="230.61" width="18.84" height="0.09"/><rect class="cls-279" x="620.69" y="230.53" width="18.84" height="0.09"/><rect class="cls-280" x="620.69" y="230.44" width="18.84" height="0.09"/><rect class="cls-281" x="620.69" y="230.36" width="18.84" height="0.09"/><rect class="cls-282" x="620.69" y="230.27" width="18.84" height="0.09"/><rect class="cls-283" x="620.69" y="230.19" width="18.84" height="0.09"/><rect class="cls-284" x="620.69" y="230.1" width="18.84" height="0.09"/><rect class="cls-285" x="620.69" y="230.02" width="18.84" height="0.09"/><rect class="cls-286" x="620.69" y="229.93" width="18.84" height="0.09"/><rect class="cls-287" x="620.69" y="229.85" width="18.84" height="0.09"/><rect class="cls-288" x="620.69" y="229.76" width="18.84" height="0.09"/><rect class="cls-289" x="620.69" y="229.67" width="18.84" height="0.09"/><rect class="cls-290" x="620.69" y="229.59" width="18.84" height="0.09"/><rect class="cls-291" x="620.69" y="229.5" width="18.84" height="0.09"/><rect class="cls-292" x="620.69" y="229.42" width="18.84" height="0.09"/><rect class="cls-293" x="620.69" y="229.33" width="18.84" height="0.09"/><rect class="cls-294" x="620.69" y="229.25" width="18.84" height="0.09"/><rect class="cls-295" x="620.69" y="229.16" width="18.84" height="0.09"/><rect class="cls-296" x="620.69" y="229.08" width="18.84" height="0.09"/><rect class="cls-297" x="620.69" y="228.99" width="18.84" height="0.09"/><rect class="cls-298" x="620.69" y="228.91" width="18.84" height="0.09"/><rect class="cls-299" x="620.69" y="228.82" width="18.84" height="0.09"/><rect class="cls-300" x="620.69" y="228.74" width="18.84" height="0.09"/><rect class="cls-301" x="620.69" y="228.65" width="18.84" height="0.09"/><rect class="cls-302" x="620.69" y="228.57" width="18.84" height="0.09"/><rect class="cls-303" x="620.69" y="228.48" width="18.84" height="0.09"/><rect class="cls-304" x="620.69" y="228.4" width="18.84" height="0.09"/><rect class="cls-305" x="620.69" y="228.31" width="18.84" height="0.09"/><rect class="cls-306" x="620.69" y="228.23" width="18.84" height="0.09"/><rect class="cls-307" x="620.69" y="228.14" width="18.84" height="0.09"/><rect class="cls-308" x="620.69" y="228.06" width="18.84" height="0.09"/><rect class="cls-309" x="620.69" y="227.97" width="18.84" height="0.09"/><rect class="cls-310" x="620.69" y="227.89" width="18.84" height="0.09"/><rect class="cls-311" x="620.69" y="227.8" width="18.84" height="0.09"/><rect class="cls-312" x="620.69" y="227.72" width="18.84" height="0.09"/><rect class="cls-313" x="620.69" y="227.63" width="18.84" height="0.09"/><rect class="cls-314" x="620.69" y="227.55" width="18.84" height="0.09"/><rect class="cls-315" x="620.69" y="227.46" width="18.84" height="0.09"/><rect class="cls-316" x="620.69" y="227.37" width="18.84" height="0.09"/><rect class="cls-317" x="620.69" y="227.29" width="18.84" height="0.09"/><rect class="cls-318" x="620.69" y="227.2" width="18.84" height="0.09"/><rect class="cls-319" x="620.69" y="227.12" width="18.84" height="0.09"/><rect class="cls-320" x="620.69" y="227.03" width="18.84" height="0.09"/><rect class="cls-321" x="620.69" y="226.95" width="18.84" height="0.09"/><rect class="cls-322" x="620.69" y="226.86" width="18.84" height="0.09"/><rect class="cls-323" x="620.69" y="226.78" width="18.84" height="0.09"/><rect class="cls-324" x="620.69" y="226.69" width="18.84" height="0.09"/><rect class="cls-325" x="620.69" y="226.61" width="18.84" height="0.09"/><rect class="cls-326" x="620.69" y="226.52" width="18.84" height="0.09"/><rect class="cls-327" x="620.69" y="226.44" width="18.84" height="0.09"/><rect class="cls-328" x="620.69" y="226.35" width="18.84" height="0.09"/><rect class="cls-329" x="620.69" y="226.27" width="18.84" height="0.09"/><rect class="cls-330" x="620.69" y="226.18" width="18.84" height="0.09"/><rect class="cls-331" x="620.69" y="226.1" width="18.84" height="0.09"/><rect class="cls-332" x="620.69" y="226.01" width="18.84" height="0.09"/><rect class="cls-333" x="620.69" y="225.93" width="18.84" height="0.09"/><rect class="cls-334" x="620.69" y="225.84" width="18.84" height="0.09"/><rect class="cls-335" x="620.69" y="225.76" width="18.84" height="0.09"/><rect class="cls-336" x="620.69" y="225.67" width="18.84" height="0.09"/><rect class="cls-337" x="620.69" y="225.59" width="18.84" height="0.09"/><rect class="cls-338" x="620.69" y="225.5" width="18.84" height="0.09"/><rect class="cls-339" x="620.69" y="225.42" width="18.84" height="0.09"/><rect class="cls-340" x="620.69" y="225.33" width="18.84" height="0.09"/><rect class="cls-341" x="620.69" y="225.24" width="18.84" height="0.09"/><rect class="cls-342" x="620.69" y="225.16" width="18.84" height="0.09"/><rect class="cls-343" x="620.69" y="225.07" width="18.84" height="0.09"/><rect class="cls-344" x="620.69" y="224.99" width="18.84" height="0.09"/><rect class="cls-345" x="620.69" y="224.9" width="18.84" height="0.09"/><rect class="cls-346" x="620.69" y="224.82" width="18.84" height="0.09"/><rect class="cls-347" x="620.69" y="224.73" width="18.84" height="0.09"/><rect class="cls-348" x="620.69" y="224.65" width="18.84" height="0.09"/><rect class="cls-349" x="620.69" y="224.56" width="18.84" height="0.09"/><rect class="cls-350" x="620.69" y="224.48" width="18.84" height="0.09"/><rect class="cls-351" x="620.69" y="224.39" width="18.84" height="0.09"/><rect class="cls-352" x="620.69" y="224.31" width="18.84" height="0.09"/><rect class="cls-353" x="620.69" y="224.22" width="18.84" height="0.09"/><rect class="cls-354" x="620.69" y="224.14" width="18.84" height="0.09"/><rect class="cls-355" x="620.69" y="224.05" width="18.84" height="0.09"/><rect class="cls-356" x="620.69" y="223.97" width="18.84" height="0.09"/><rect class="cls-357" x="620.69" y="223.88" width="18.84" height="0.09"/><rect class="cls-358" x="620.69" y="223.8" width="18.84" height="0.09"/><rect class="cls-359" x="620.69" y="223.71" width="18.84" height="0.09"/><rect class="cls-360" x="620.69" y="223.63" width="18.84" height="0.09"/><rect class="cls-361" x="620.69" y="223.54" width="18.84" height="0.09"/><rect class="cls-362" x="620.69" y="223.46" width="18.84" height="0.09"/><rect class="cls-363" x="620.69" y="223.37" width="18.84" height="0.09"/><rect class="cls-364" x="620.69" y="223.29" width="18.84" height="0.09"/><rect class="cls-365" x="620.69" y="223.2" width="18.84" height="0.09"/><rect class="cls-366" x="620.69" y="223.11" width="18.84" height="0.09"/><rect class="cls-367" x="620.69" y="223.03" width="18.84" height="0.09"/><rect class="cls-368" x="620.69" y="222.94" width="18.84" height="0.09"/><rect class="cls-369" x="620.69" y="222.86" width="18.84" height="0.09"/><rect class="cls-370" x="620.69" y="222.77" width="18.84" height="0.09"/><rect class="cls-370" x="620.69" y="221.66" width="18.84" height="1.12"/></g><path class="cls-371" d="M630.11,259.38c-6.35,0-11.13-8.42-11.13-19.6s4.78-19.6,11.13-19.6,11.13,8.42,11.13,19.6S636.45,259.38,630.11,259.38Zm0-36.25c-3.65,0-7.71,6.84-7.71,16.65s4.06,16.65,7.71,16.65,7.7-6.84,7.7-16.65S633.75,223.13,630.11,223.13Z"/><path class="cls-372" d="M669.23,203l-.06-.77-3.46.12a2,2,0,0,1-2.08-1.28l-2.18.72a2.41,2.41,0,0,1-2.23-.43,1.5,1.5,0,0,1-.46-.67,2.17,2.17,0,0,1-1.4.37,2,2,0,0,1-1.79-1.1l-.33-.77-2.36.45-3.2-12.26a1.56,1.56,0,0,1,1.27-1.84,2.2,2.2,0,0,1,2.51,1l4.24,9.83L664.89,185a2.15,2.15,0,0,1,2.6-.64,1.54,1.54,0,0,1,1,2L663.24,198,686,190.49a2.21,2.21,0,0,1,2.63.93,1.47,1.47,0,0,1-.92,2l-14.41,5.67,23.14-.77.19,2.95Zm-10.45-4.07Zm28.46-5.65h0Z"/><path class="cls-372" d="M597.38,201.23,570,199.55l.19-3,23.15.78-14.41-5.68a1.47,1.47,0,0,1-.93-2,2.22,2.22,0,0,1,2.63-.94l22.78,7.51-5.25-11.58a1.51,1.51,0,0,1,1-2,2.13,2.13,0,0,1,2.6.64l7.2,11.35,4.23-9.84a2.2,2.2,0,0,1,2.52-1,1.54,1.54,0,0,1,1.27,1.81l-3.2,12.29-2.36-.46-.34.78a2.05,2.05,0,0,1-1.79,1.1,2.16,2.16,0,0,1-1.39-.38,1.61,1.61,0,0,1-.47.68,2.39,2.39,0,0,1-2.23.42L603,199.3a2,2,0,0,1-2.08,1.28l-3.46-.11Zm10.45-4.07h0Z"/><ellipse class="cls-373" cx="661.79" cy="209.82" rx="9.42" ry="12.58"/><path class="cls-374" d="M661.79,223.87c-6.24,0-11.13-6.17-11.13-14.05s4.89-14.06,11.13-14.06,11.13,6.18,11.13,14.06S668,223.87,661.79,223.87Zm0-25.15c-4.18,0-7.71,5.08-7.71,11.1s3.53,11.1,7.71,11.1,7.7-5.09,7.7-11.1S666,198.72,661.79,198.72Z"/><ellipse class="cls-373" cx="605.28" cy="208.71" rx="9.42" ry="10.73"/><path class="cls-374" d="M605.28,220.92c-6.14,0-11.13-5.48-11.13-12.21s5-12.21,11.13-12.21,11.13,5.48,11.13,12.21S611.42,220.92,605.28,220.92Zm0-21.46c-4.25,0-7.71,4.15-7.71,9.25S601,218,605.28,218s7.7-4.15,7.7-9.25S609.53,199.46,605.28,199.46Z"/><rect class="cls-2" x="608.7" y="265.67" width="48.38" height="47.35" rx="14.34"/><polygon class="cls-375" points="701.47 139.76 704.94 184.18 622.9 156.48 528.21 169.38 558.49 127.79 496.49 91.34 597.24 93.34 653.62 57.92 685.61 100.74 782.45 115.29 701.47 139.76"/><path class="cls-375" d="M706.08,127.72l-6.3-7.11,58.43-33L660.59,91.7,604.26,62.35l-29,37.85L482,115.1l79.68,19.27-10.32,57.69L638.64,147l92.44,8.92-14.67-16.54A34.94,34.94,0,0,1,706.08,127.72Z"/><path class="cls-376" d="M704.17,162.84c-1.71-6.66.68-5.71-1.71-9.62l-10.15-5.14c-32-14.93-93.44-8-133.14,13.6a2.59,2.59,0,0,1,0,.47c-.77,4.2-4.22,10.24-4.76,14.53,0,.08.1.13.18.08,36.87-25.73,96-32.44,147.21-12.29,1.38.54,2.42,2.81,2.42,2.81s.43-4.55.43-4.56C703.19,161.58,704.54,164.26,704.17,162.84Z"/><ellipse class="cls-377" cx="563.88" cy="158.12" rx="16.82" ry="6.25"/><path class="cls-378" d="M563.88,164.73c-9.67,0-17.25-2.9-17.25-6.61s7.58-6.62,17.25-6.62,17.25,2.91,17.25,6.62S573.55,164.73,563.88,164.73Zm0-12.49c-8.89,0-16.39,2.69-16.39,5.88S555,164,563.88,164s16.39-2.69,16.39-5.87S572.76,152.24,563.88,152.24Z"/><ellipse class="cls-377" cx="568.31" cy="147.64" rx="6.58" ry="15.98" transform="translate(69.27 457.05) rotate(-46.36)"/><ellipse class="cls-377" cx="587.32" cy="154.72" rx="16.7" ry="6.29" transform="translate(-20.03 151.87) rotate(-14.49)"/><ellipse class="cls-377" cx="587.03" cy="167.04" rx="6.54" ry="13.95" transform="translate(78.82 505.02) rotate(-49.51)"/><ellipse class="cls-377" cx="566.8" cy="169.61" rx="16.38" ry="6.41" transform="translate(-10.5 299.08) rotate(-29.3)"/><ellipse class="cls-377" cx="580.29" cy="150.92" rx="15.37" ry="6.83" transform="translate(237.12 642.6) rotate(-69.67)"/><ellipse class="cls-379" cx="576.69" cy="157.7" rx="6.83" ry="3.97"/><path class="cls-373" d="M576.69,163.14c-4.78,0-8.53-2.39-8.53-5.44s3.75-5.45,8.53-5.45,8.54,2.39,8.54,5.45S581.48,163.14,576.69,163.14Zm0-7.93c-3,0-5.11,1.31-5.11,2.49s2.1,2.48,5.11,2.48,5.12-1.31,5.12-2.48S579.71,155.21,576.69,155.21Z"/><path class="cls-380" d="M415.31,332.48l-6-.29a2.76,2.76,0,0,1-2.82-2.73L424.7,53a2.88,2.88,0,0,1,3.16-2.44l6,.3a2.77,2.77,0,0,1,2.82,2.73L418.47,330A2.88,2.88,0,0,1,415.31,332.48Z"/><polygon class="cls-381" points="409.19 248.99 32.28 229.38 46.18 30 423.09 49.61 409.19 248.99"/><path class="cls-373" d="M65.3,47.64l-.39,5.54L80.63,54,81,48.46l4.24.22-.92,13.23-4.24-.22.43-6.21-15.71-.81-.43,6.2-4.2-.22.93-13.23Z"/><path class="cls-373" d="M108.86,57,96.23,56.3l-.33,4.77L110,61.8l-.1,1.43-18.27-.94.92-13.23,17.54.91-.1,1.44-13.35-.7-.29,4.18,12.63.66Z"/><path class="cls-373" d="M116.24,50.29l4.19.22-.82,11.79,13.88.73-.1,1.43-18.07-.94Z"/><path class="cls-373" d="M139,51.63c2,0,4.69,0,8.06.17a28,28,0,0,1,9,1.57c1.74.72,2.73,1.74,2.65,2.92s-1,2.09-2.71,2.69c-2.28.85-5.93,1.15-10,.94-1.25-.07-2.41-.15-3.36-.3l-.37,5.3-4.19-.22Zm3.75,6.6a34.4,34.4,0,0,0,3.46.32c5.06.26,8.21-.58,8.34-2.4s-2.86-2.75-7.48-3c-1.84-.1-3.24-.11-4-.07Z"/><path class="cls-373" d="M201.7,62.18a41,41,0,0,1-.08-5.73h-.14A63,63,0,0,1,197,61.25l-6.19,6.12-3.18-.17-4.81-6.57a38.85,38.85,0,0,1-3.4-5.34h-.1c-.21,1.64-.6,3.85-1,5.82l-1.26,5.62-4-.21,3.19-13.1,5.35.27,5.1,6.69a38,38,0,0,1,3,4.62h.14a37.29,37.29,0,0,1,3.73-4.28l6.23-6.09,5.35.28,1.1,13.33L202.12,68Z"/><path class="cls-373" d="M229.92,63.26,217.3,62.6,217,67.37,231,68.1l-.1,1.43-18.27-1,.92-13.22,17.55.91L231,57.7,217.69,57l-.3,4.18,12.63.66Z"/><path class="cls-373" d="M247.51,57.28c2,0,4.69,0,8.07.17a28,28,0,0,1,9,1.57c1.74.72,2.73,1.74,2.65,2.91s-1,2.1-2.7,2.7c-2.29.84-5.94,1.15-10,.93a32.93,32.93,0,0,1-3.37-.29l-.37,5.3-4.19-.22Zm3.75,6.6c.91.14,2.06.24,3.46.31,5.06.27,8.21-.57,8.34-2.4s-2.85-2.75-7.48-3c-1.83-.09-3.23-.11-4-.06Z"/><path class="cls-373" d="M273.16,58.46l4.19.22-.82,11.79,13.88.72-.1,1.43-18.07-.94Z"/><path class="cls-373" d="M312.24,67.54l-12.63-.66-.33,4.77,14.07.73-.1,1.44L295,72.87l.92-13.23,17.54.91-.1,1.44L300,61.29l-.29,4.18,12.63.66Z"/><path class="cls-373" d="M324.24,70.21l-3.66,4L316.24,74l12-12.65,5.06.26,10.16,13.81-4.48-.24-3.18-4.34ZM335,69.43l-2.92-4a20.44,20.44,0,0,1-1.52-2.5h-.1a26.87,26.87,0,0,1-1.8,2.3l-3.45,3.66Z"/><path class="cls-373" d="M347.76,73.52a32.21,32.21,0,0,0,7.46,1.26c4.29.22,6.86-.57,6.95-1.9s-1.6-2-5.94-2.95c-5.25-1-8.45-2.33-8.32-4.2.15-2.06,4.45-3.37,10.76-3a33,33,0,0,1,7.14,1L364.55,65a28.51,28.51,0,0,0-6.12-.94c-4.43-.23-6.2.76-6.26,1.66-.09,1.24,1.85,1.95,6.28,2.89,5.43,1.14,8.16,2.37,8,4.31s-4,3.62-11.64,3.22a37.76,37.76,0,0,1-8.23-1.28Z"/><path class="cls-373" d="M389.21,71.55l-12.63-.66-.33,4.77,14.07.73-.1,1.43L372,76.87l.92-13.22,17.55.91-.1,1.43L377,65.3l-.29,4.18,12.62.65Z"/><path class="cls-373" d="M62,105.14l-2-.11-4.18-8.8-.59,8.55-1.84-.09,1.24-17.81L56.4,87l-.56,8,4.9-7.77,2,.1v.11l-5.27,8.23Z"/><path class="cls-373" d="M70.81,104.31c-.06.85-.58,1.26-1.57,1.21L65,105.3c-1-.06-1.45-.51-1.39-1.37l.59-8.5c.06-.85.58-1.26,1.57-1.21l4.23.22c1,.06,1.45.51,1.39,1.37l-.27,4-.64.5L65.6,100l-.28,4,3.78.2.14-2,1.71.09ZM69.47,99l.23-3.33-3.78-.2-.24,3.33Z"/><path class="cls-373" d="M81,106.13,79.26,106l.68-9.72-3.88-.11-.67,9.63-1.76-.1.77-11.07,1.76.09,0,.31,2.09-.13a19.21,19.21,0,0,1,2.1,0q1.47.07,1.38,1.32Z"/><path class="cls-373" d="M96.56,106.94l-1.76-.09.68-9.72L91.6,97l-.67,9.62-1.76-.09,1.24-17.81,1.76.1-.49,7,2.1-.12c.89-.05,1.59-.06,2.09,0q1.47.07,1.38,1.32Z"/><path class="cls-373" d="M106.67,107.46l-1.73-.08,0-.31-2.1.13c-.87,0-1.57,0-2.09,0-1,0-1.41-.49-1.35-1.31l.28-4c.06-.85.59-1.25,1.58-1.19l4.14.21.23-3.33-3.78-.2-.13,1.89L100,99.17l.13-1.87c.06-.85.59-1.26,1.57-1.2l4.24.22c1,.05,1.45.5,1.39,1.36ZM105.06,106l.28-3.92-3.93-.2-.28,4Z"/><path class="cls-373" d="M116.58,106.69c-.06.86-.59,1.26-1.59,1.21l-4-.21c-1,0-1.46-.51-1.41-1.37l.18-2.51,1.73.09-.17,2.49,3.56.19.15-2.21-4.38-3.48a1.35,1.35,0,0,1-.57-1.22l.12-1.84c.06-.86.59-1.26,1.59-1.21l4,.2c1,.06,1.46.51,1.4,1.37L117,100.4l-1.71-.09.16-2.19-3.56-.18-.14,1.93,4.42,3.49a1.35,1.35,0,0,1,.56,1.24Z"/><path class="cls-373" d="M131.69,111.69c-.06.86-.59,1.26-1.58,1.21l-4.18-.22c-1-.05-1.49-.62-1.41-1.7,0-.13,0-.32.06-.58s0-.44.06-.55l1.73.09-.1,1.47,3.67.19.21-2.91-2.9-.15a2.84,2.84,0,0,1-1.91-.78,2.11,2.11,0,0,1-.66-1.74l.45-6.48a2.24,2.24,0,0,1,.8-1.6,2.58,2.58,0,0,1,1.86-.56c.2,0,1.24.19,3.11.54l0-.3,1.74.09Zm-1.45-4.33.58-8.37c-1.39-.15-2.19-.23-2.42-.24-1,0-1.49.35-1.55,1.2l-.41,5.93c-.06.85.4,1.3,1.37,1.35Z"/><path class="cls-373" d="M142.27,108c-.06.85-.59,1.26-1.58,1.21l-4.42-.23c-1-.05-1.45-.51-1.39-1.37l.59-8.5c.06-.85.58-1.26,1.57-1.21l4.42.23c1,0,1.46.51,1.4,1.37Zm-1.76-.14.59-8.41-3.88-.2-.58,8.41Z"/><path class="cls-373" d="M152.44,109.85l-1.76-.09.68-9.72-3.88-.11-.67,9.62-1.76-.09.77-11.07,1.76.09,0,.31,2.09-.13a19.21,19.21,0,0,1,2.1,0q1.47.08,1.38,1.32Z"/><path class="cls-373" d="M162.57,109.08c-.06.86-.59,1.26-1.57,1.21l-4.23-.22c-1,0-1.46-.5-1.4-1.36l.6-8.5c.06-.86.58-1.26,1.57-1.21l4.23.22c1,0,1.45.51,1.39,1.36l-.28,4-.63.5-4.89-.25-.28,4,3.78.2.14-2,1.71.09Zm-1.35-5.27.24-3.34-3.79-.19-.23,3.33Z"/><path class="cls-373" d="M175.32,111l-2.5-.13c-1,0-1.45-.51-1.39-1.37l.59-8.45-1.55-.08.09-1.33,1.55.08.24-3.45,1.73.09-.24,3.45,2.25.12L176,101.3l-2.25-.12-.59,8.41,2.25.12Z"/><path class="cls-373" d="M184.81,104.08l-1.73-.09.16-2.29-3.24-.08-.68,9.63-1.75-.09.77-11.08,1.76.1,0,.3,1.78-.15a16,16,0,0,1,1.77,0c1,0,1.42.49,1.37,1.32Z"/><path class="cls-373" d="M188.37,111.72l-1.73-.09.77-11.07,1.73.09Zm1-13.5-1.79-.09.13-1.91,1.79.09Z"/><path class="cls-373" d="M198.91,109.88a2.17,2.17,0,0,1-.89,1.66,2.92,2.92,0,0,1-2,.58l-2.89-.16-.3,4.2-1.76-.09,1.07-15.27,1.76.09,0,.31,2.1-.12c.89,0,1.59-.06,2.09,0q1.47.08,1.38,1.32Zm-1.74-.32.5-7.11-3.88-.11-.58,8.29,2.43.13Q197.08,110.84,197.17,109.56Z"/><path class="cls-373" d="M209.12,110.41a2.15,2.15,0,0,1-.9,1.66,2.88,2.88,0,0,1-2,.58l-2.89-.15-.3,4.2-1.76-.1,1.07-15.27,1.76.09,0,.31,2.1-.12c.89,0,1.58-.06,2.09,0q1.47.08,1.38,1.32Zm-1.74-.32.5-7.11-3.88-.11-.58,8.3,2.43.12Q207.29,111.37,207.38,110.09Z"/><path class="cls-373" d="M213.61,113l-1.73-.09.77-11.07,1.73.09Zm1-13.49-1.79-.09.14-1.92,1.78.1Z"/><path class="cls-373" d="M224,113.57l-1.75-.09.67-9.72-3.88-.11-.67,9.63-1.76-.09.77-11.07,1.76.09,0,.3,2.09-.13c.86,0,1.56,0,2.1,0,1,0,1.44.49,1.38,1.31Z"/><path class="cls-373" d="M234,117c-.07.85-.59,1.26-1.59,1.2l-4.18-.21c-1-.06-1.48-.63-1.4-1.71a5.49,5.49,0,0,1,.05-.57,4.1,4.1,0,0,0,.06-.56l1.74.09-.11,1.47,3.68.19.2-2.91-2.89-.15a2.82,2.82,0,0,1-1.91-.78,2.15,2.15,0,0,1-.67-1.74l.46-6.48a2.17,2.17,0,0,1,.8-1.59,2.53,2.53,0,0,1,1.86-.56c.2,0,1.23.19,3.1.54l0-.31,1.75.09Zm-1.45-4.34.58-8.36q-2.09-.22-2.43-.24c-1,0-1.48.34-1.54,1.19l-.41,5.93c-.06.85.39,1.3,1.36,1.35Z"/><path class="cls-373" d="M254.62,104.05l-3.43,11-1.57-.08-1.31-8.51-2.47,8.31-1.55-.08-1.88-11.23,1.65.09,1.21,8.62,2.48-8.43,1.53.08,1.28,8.63L253,104Z"/><path class="cls-373" d="M263.41,115.63l-1.76-.1.68-9.71-3.88-.11-.67,9.62-1.76-.09,1.24-17.81,1.76.09-.49,7,2.1-.12a19.7,19.7,0,0,1,2.09,0c1,0,1.44.49,1.38,1.31Z"/><path class="cls-373" d="M268.09,115.87l-1.73-.09.77-11.07,1.74.09Zm1-13.49-1.78-.1.13-1.91,1.78.09Z"/><path class="cls-373" d="M272.92,116.12l-1.73-.09,1.24-17.81,1.73.09Z"/><path class="cls-373" d="M283.19,115.36c-.06.86-.58,1.27-1.57,1.21l-4.23-.22c-1,0-1.45-.5-1.39-1.36l.59-8.5c.06-.86.58-1.26,1.57-1.21l4.23.22c1,0,1.45.51,1.39,1.36l-.27,4-.64.5L278,111.1l-.28,4,3.78.2.15-2,1.7.09Zm-1.34-5.27.23-3.34-3.78-.19-.23,3.33Z"/><path class="cls-373" d="M304.25,117.75l-1.76-.09.67-9.72-3.84-.11-.67,9.63-1.74-.09.67-9.72-3.84-.11-.67,9.63-1.76-.09.77-11.07,1.76.09,0,.3c.7,0,1.39-.08,2.08-.13.85,0,1.54,0,2.09,0a1.5,1.5,0,0,1,1.16.49l2.23-.15a19.13,19.13,0,0,1,2.19,0c1,0,1.42.48,1.37,1.31Z"/><path class="cls-373" d="M314.38,117c-.05.86-.58,1.26-1.57,1.21l-4.23-.22c-1,0-1.45-.51-1.39-1.37l.59-8.5c.06-.85.59-1.26,1.58-1.21l4.23.23c1,.05,1.45.5,1.39,1.36l-.28,4-.63.5-4.89-.25-.28,4,3.78.19.14-2,1.7.09ZM313,111.71l.23-3.33-3.78-.2-.23,3.33Z"/><path class="cls-373" d="M321.83,118.67l-2.5-.13c-1-.05-1.45-.51-1.39-1.37l.59-8.45-1.54-.08.09-1.33,1.54.08.24-3.45,1.74.09-.24,3.45,2.25.11-.1,1.34-2.25-.12-.58,8.41,2.25.12Z"/><path class="cls-373" d="M331.36,117.87c-.06.86-.58,1.26-1.57,1.21l-4.23-.22c-1,0-1.45-.5-1.39-1.36l.59-8.5c.06-.86.59-1.26,1.57-1.21l4.24.22c1,0,1.45.51,1.39,1.36l-.28,4-.63.5-4.9-.26-.27,4,3.78.2.14-2,1.7.09ZM330,112.59l.23-3.33-3.78-.2-.23,3.34Z"/><path class="cls-373" d="M341.67,118.41c-.06.86-.59,1.26-1.59,1.21l-4.41-.23c-1,0-1.46-.51-1.4-1.37l.6-8.5c.06-.85.58-1.26,1.57-1.21l4.41.23c1,.06,1.47.51,1.41,1.37Zm-1.76-.14.59-8.41-3.88-.2-.58,8.41Z"/><path class="cls-373" d="M351.69,112.76l-1.73-.09.16-2.28-3.24-.08-.68,9.63-1.75-.1.77-11.07,1.76.09,0,.31,1.78-.15a13.88,13.88,0,0,1,1.77,0c1,0,1.42.49,1.37,1.31Z"/><path class="cls-373" d="M360.43,119.39c-.06.85-.59,1.26-1.58,1.2l-4-.21c-1,0-1.46-.5-1.4-1.36l.17-2.51,1.74.09-.18,2.49,3.56.18.15-2.21-4.37-3.48a1.34,1.34,0,0,1-.58-1.22l.13-1.84c.06-.86.59-1.26,1.58-1.21l4,.21c1,0,1.47.51,1.41,1.36l-.16,2.21-1.7-.09.15-2.18-3.56-.19-.13,1.94,4.41,3.48a1.39,1.39,0,0,1,.57,1.24Z"/><path class="cls-373" d="M375.71,121.47l-1.74-.09,0-.31-2.1.14c-.87,0-1.57.05-2.09,0-1,0-1.41-.48-1.35-1.3l.28-4c.06-.85.59-1.25,1.58-1.2l4.14.22.23-3.34-3.78-.19-.13,1.89-1.71-.09.13-1.87c.06-.86.59-1.26,1.57-1.21l4.24.22c1,.05,1.45.51,1.39,1.37ZM374.1,120l.27-3.92-3.93-.2-.28,4Z"/><path class="cls-373" d="M385.84,114.54l-1.74-.09.16-2.29-3.24-.07-.67,9.62-1.76-.09.77-11.07,1.76.09,0,.31,1.77-.15a13.88,13.88,0,0,1,1.77,0c1,0,1.43.49,1.37,1.31Z"/><path class="cls-373" d="M394.84,121.18c-.06.85-.59,1.26-1.57,1.21l-4.23-.22c-1-.06-1.46-.51-1.4-1.37l.6-8.5c.05-.85.58-1.26,1.57-1.21l4.23.22c1,.06,1.45.51,1.39,1.37l-.28,4-.63.5-4.89-.25-.28,4,3.78.2.14-2,1.71.09Zm-1.35-5.28.23-3.33-3.78-.2-.23,3.33Z"/><path class="cls-373" d="M58.47,133l-1.75-.09,0-.3c-1.91.15-3,.22-3.17.21a2.47,2.47,0,0,1-1.76-.75,2.11,2.11,0,0,1-.57-1.67L51.7,124a2.17,2.17,0,0,1,.9-1.67,2.93,2.93,0,0,1,2-.57l2.9.15.46-6.74,1.75.09Zm-1.65-1.46.58-8.37L55,123.06c-1,0-1.48.36-1.55,1.22L53,130.19c-.06.85.4,1.3,1.37,1.35C54.61,131.55,55.42,131.56,56.82,131.56Z"/><path class="cls-373" d="M68.65,132.26c-.06.86-.58,1.26-1.57,1.21l-4.23-.22c-1-.05-1.45-.5-1.39-1.36l.59-8.5c.06-.86.58-1.26,1.57-1.21l4.23.22c1,0,1.45.51,1.39,1.36l-.28,4-.63.5L63.44,128l-.28,4,3.78.2.14-2,1.71.09ZM67.3,127l.24-3.33-3.79-.2-.23,3.34Z"/><path class="cls-373" d="M78.49,132.77c-.06.86-.59,1.27-1.59,1.21l-4-.21c-1-.05-1.46-.5-1.4-1.36l.17-2.52,1.73.09-.17,2.5,3.56.18.15-2.21L72.53,127a1.34,1.34,0,0,1-.57-1.22l.12-1.84c.06-.86.59-1.26,1.59-1.21l4,.21c1,0,1.46.51,1.4,1.36l-.15,2.21-1.71-.09.16-2.18L73.79,124,73.65,126l4.42,3.48a1.36,1.36,0,0,1,.56,1.24Z"/><path class="cls-373" d="M85.82,134.45l-2.5-.13c-1,0-1.46-.51-1.4-1.37l.59-8.45L81,124.42l.09-1.33,1.55.08.24-3.45,1.73.09-.24,3.45,2.25.12-.09,1.33-2.25-.12L83.66,133l2.25.12Z"/><path class="cls-373" d="M95.31,127.48l-1.73-.09.16-2.28L90.49,125l-.67,9.63-1.76-.1.77-11.07,1.76.09,0,.31,1.78-.15a13.88,13.88,0,0,1,1.77,0c1,0,1.42.49,1.36,1.31Z"/><path class="cls-373" d="M104.51,134.13c-.06.86-.59,1.26-1.58,1.21l-4.42-.23c-1-.05-1.45-.51-1.39-1.37l.59-8.5c.06-.85.58-1.26,1.57-1.2l4.42.23c1,0,1.46.5,1.4,1.36Zm-1.76-.14.59-8.41-3.87-.2-.59,8.41Z"/><path class="cls-373" d="M115.31,124.87l-3.86,10.82-1.58,4.22-1.74-.09,1.6-4.22-2.41-11.15,1.81.1,1.59,8.83,2.83-8.6Z"/><path class="cls-373" d="M118.53,136.15l-1.73-.09.77-11.07,1.73.09Zm1-13.49-1.79-.1.14-1.91,1.78.09Z"/><path class="cls-373" d="M128.91,136.69l-1.76-.09.68-9.72-3.88-.11-.67,9.63-1.76-.09.77-11.08,1.76.1,0,.3,2.09-.13c.85,0,1.55,0,2.1,0q1.47.07,1.38,1.32Z"/><path class="cls-373" d="M138.86,140.13c-.06.86-.58,1.26-1.58,1.21l-4.18-.22c-1-.05-1.48-.62-1.41-1.7,0-.13,0-.32.06-.58s.05-.43.06-.55l1.73.09-.1,1.47,3.68.19.2-2.91-2.89-.15a2.84,2.84,0,0,1-1.92-.78,2.18,2.18,0,0,1-.66-1.74l.45-6.48a2.25,2.25,0,0,1,.81-1.6,2.6,2.6,0,0,1,1.85-.56c.21,0,1.24.2,3.11.54l0-.3,1.75.09Zm-1.45-4.33.59-8.37-2.43-.24c-1,0-1.48.35-1.54,1.2l-.41,5.93c-.06.85.39,1.3,1.36,1.35Z"/><path class="cls-373" d="M154.75,136.75c-.06.85-.59,1.26-1.59,1.2l-4.41-.23c-1-.05-1.46-.5-1.4-1.36l.6-8.5c.06-.86.58-1.26,1.57-1.21l4.41.23c1,.05,1.47.51,1.41,1.36Zm-1.76-.14.59-8.41-3.88-.2-.58,8.41Z"/><path class="cls-373" d="M164.89,138.56l-1.73-.09,0-.3-2.12.13c-.85,0-1.56,0-2.11,0-.95,0-1.4-.48-1.34-1.3l.69-9.91,1.73.09-.68,9.72,3.91.11.67-9.63,1.73.09Z"/><path class="cls-373" d="M175,131.63l-1.73-.09.16-2.28-3.25-.08-.67,9.62-1.76-.09.77-11.07,1.76.09,0,.31,1.78-.15a13.76,13.76,0,0,1,1.76,0c1,.05,1.43.49,1.37,1.31Z"/><path class="cls-373" d="M189.59,137.46a2.21,2.21,0,0,1-.9,1.66,2.91,2.91,0,0,1-2,.58l-4.65-.24,1.24-17.81,1.76.09-.49,7,2.1-.12c.89,0,1.59-.06,2.09,0q1.47.07,1.38,1.32Zm-1.75-.32.5-7.11-3.88-.11-.58,8.3,2.43.12Q187.75,138.41,187.84,137.14Z"/><path class="cls-373" d="M199.56,140.37l-1.73-.09,0-.31-2.1.13a19.13,19.13,0,0,1-2.09,0c-1,0-1.41-.49-1.35-1.3l.28-4c.06-.85.58-1.25,1.58-1.2l4.14.21.23-3.33-3.78-.2-.13,1.89-1.71-.09.13-1.86c.06-.86.58-1.26,1.57-1.21l4.23.22c1,.05,1.45.51,1.39,1.36ZM198,138.9l.28-3.91-3.93-.21-.28,4Z"/><path class="cls-373" d="M209.84,140.9l-1.76-.09.68-9.72-3.88-.11-.68,9.63-1.75-.09.77-11.07,1.76.09,0,.31,2.1-.14c.85,0,1.55-.05,2.1,0,1,.05,1.43.49,1.38,1.31Z"/><path class="cls-373" d="M220,141.43l-1.73-.09,0-.31-2.1.13a19.13,19.13,0,0,1-2.09,0c-1-.05-1.41-.48-1.35-1.3l.28-4c.06-.85.58-1.25,1.58-1.2l4.14.22.23-3.34-3.78-.19-.13,1.88-1.71-.08.13-1.87c.06-.86.58-1.26,1.57-1.21l4.23.22c1,.05,1.46.51,1.39,1.36ZM218.34,140l.28-3.91-3.93-.2-.28,4Z"/><path class="cls-373" d="M230.23,142l-1.76-.1.68-9.71-3.88-.12-.67,9.63-1.76-.09.77-11.07,1.76.09,0,.31,2.09-.13a19.21,19.21,0,0,1,2.1,0q1.47.08,1.38,1.32Z"/><path class="cls-373" d="M240.34,142.49l-1.73-.09,0-.31c-.7,0-1.4.1-2.1.13a19.13,19.13,0,0,1-2.09,0c-1-.05-1.41-.48-1.35-1.3l.28-4c.06-.85.58-1.25,1.58-1.2l4.14.22.23-3.34-3.78-.19-.13,1.89-1.71-.09.13-1.87c.06-.86.59-1.26,1.57-1.21l4.23.22c1,0,1.46.51,1.4,1.37ZM238.73,141l.28-3.92-3.93-.2-.28,4Z"/><path class="cls-373" d="M256.09,140.92a2.23,2.23,0,0,1-.9,1.67,3,3,0,0,1-2,.57l-2.89-.15-.29,4.2-1.76-.09,1.06-15.27,1.76.09,0,.3,2.1-.11a17.32,17.32,0,0,1,2.09,0c1,0,1.44.49,1.38,1.31Zm-1.75-.31.5-7.12-3.88-.11-.58,8.3,2.43.12C253.78,141.86,254.29,141.46,254.34,140.61Z"/><path class="cls-373" d="M260.58,143.54l-1.74-.08,1.24-17.81,1.74.09Z"/><path class="cls-373" d="M270.84,144.08l-1.73-.09,0-.31-2.11.13a19,19,0,0,1-2.08,0c-1-.05-1.42-.48-1.36-1.3l.28-4c.06-.85.59-1.25,1.58-1.2l4.14.22.24-3.34L266,134l-.13,1.89-1.7-.08.13-1.87c.06-.86.58-1.26,1.57-1.21l4.23.22c1,0,1.45.51,1.39,1.36Zm-1.61-1.47.27-3.91-3.93-.2-.27,4Z"/><path class="cls-373" d="M281.11,144.62l-1.76-.1.68-9.72-3.88-.11-.67,9.63-1.76-.09.77-11.07,1.76.09,0,.31,2.09-.13a19.21,19.21,0,0,1,2.1,0c1,0,1.44.49,1.38,1.31Z"/><path class="cls-373" d="M288.58,145l-2.5-.13c-1-.05-1.45-.5-1.39-1.36l.59-8.46-1.54-.08.09-1.33,1.55.08.24-3.44,1.73.09-.24,3.44,2.25.12-.1,1.33-2.25-.11-.58,8.4,2.25.12Z"/><path class="cls-373" d="M298.1,145.5l-1.73-.09,0-.31-2.1.13a19.13,19.13,0,0,1-2.09,0c-1,0-1.41-.48-1.35-1.3l.28-4c.06-.85.58-1.25,1.58-1.2l4.14.22.23-3.34-3.78-.2-.13,1.89-1.71-.08.13-1.87c.06-.86.58-1.26,1.57-1.21l4.23.22c1,.05,1.46.51,1.4,1.36ZM296.49,144l.28-3.91-3.93-.21-.28,4Z"/><path class="cls-373" d="M305.62,145.89l-2.5-.13c-1,0-1.46-.51-1.4-1.36l.59-8.46-1.54-.08.09-1.33,1.55.08.24-3.45,1.73.09-.24,3.45,2.25.12-.1,1.33-2.24-.12-.59,8.41,2.25.12Z"/><path class="cls-373" d="M309.7,146.1,308,146l.77-11.07,1.73.09Zm1-13.49-1.79-.09.14-1.92,1.78.1Z"/><path class="cls-373" d="M320.17,145.36c-.06.85-.59,1.26-1.58,1.21l-4.42-.23c-1-.05-1.45-.51-1.39-1.37l.59-8.5c.06-.85.59-1.26,1.57-1.21l4.42.23c1,0,1.46.51,1.4,1.37Zm-1.75-.14.58-8.41-3.87-.2-.59,8.41Z"/><path class="cls-373" d="M330.34,147.18l-1.76-.09.68-9.72-3.88-.11-.67,9.62-1.76-.09.77-11.07,1.76.09,0,.31,2.09-.13a19.23,19.23,0,0,1,2.1,0q1.47.07,1.38,1.32Z"/><path class="cls-373" d="M335,147.42l-2-.1.14-2,2,.11Z"/><path class="cls-373" d="M56.13,189l-1.84-.1.6-8.56-5-.25-.59,8.55-1.84-.09,1.24-17.81,1.84.09L50,178.7l5,.26.54-7.83,1.84.1Z"/><path class="cls-373" d="M66.51,188.29c-.06.85-.59,1.26-1.57,1.21l-4.23-.22c-1-.06-1.46-.51-1.4-1.37l.6-8.5c.06-.86.58-1.26,1.57-1.21l4.23.22c1,.05,1.45.51,1.39,1.37l-.28,4-.63.5L61.3,184,61,188l3.78.2.14-2,1.71.08ZM65.16,183l.24-3.34-3.79-.19-.23,3.33Z"/><path class="cls-373" d="M71.17,189.82l-1.74-.09,1.24-17.81,1.74.09Z"/><path class="cls-373" d="M81.71,188a2.2,2.2,0,0,1-.9,1.66,2.9,2.9,0,0,1-2,.58l-2.9-.15-.29,4.2-1.76-.09,1.07-15.28,1.75.1,0,.3,2.11-.12c.89-.05,1.58-.06,2.08,0,1,.06,1.44.49,1.38,1.32ZM80,187.66l.49-7.11-3.88-.11-.58,8.3,2.44.12Q79.88,188.94,80,187.66Z"/><path class="cls-373" d="M102.6,191.46l-1.76-.09.68-9.72-3.85-.11L97,191.17l-1.74-.1.67-9.71-3.84-.11-.67,9.63-1.76-.1.78-11.07,1.76.09,0,.31,2.08-.13a19,19,0,0,1,2.09,0,1.53,1.53,0,0,1,1.16.48l2.23-.14a19.67,19.67,0,0,1,2.19,0c1,0,1.42.49,1.37,1.32Z"/><path class="cls-373" d="M112.74,190.69c-.06.86-.59,1.27-1.57,1.21l-4.24-.22c-1-.05-1.45-.5-1.39-1.36l.6-8.5c.06-.86.58-1.26,1.57-1.21l4.23.22c1,0,1.45.51,1.39,1.36l-.28,4-.63.5-4.89-.25-.28,4,3.78.2.14-2,1.71.09Zm-1.35-5.27.24-3.34-3.79-.2-.23,3.34Z"/><path class="cls-373" d="M128.11,185.33l-1.73-.09.15-2.29-3.24-.08-.67,9.63-1.76-.09.77-11.07,1.76.09,0,.3,1.77-.14a14.14,14.14,0,0,1,1.77-.05c1,.05,1.43.49,1.37,1.32Z"/><path class="cls-373" d="M137.11,192c-.06.86-.59,1.26-1.57,1.21L131.3,193c-1,0-1.45-.5-1.39-1.36l.6-8.5c.06-.86.58-1.26,1.57-1.21l4.23.22c1,.05,1.45.51,1.39,1.36l-.28,4-.63.5-4.89-.26-.28,4,3.78.2.14-2,1.71.09Zm-1.35-5.27.24-3.34-3.79-.2-.23,3.34Z"/><path class="cls-373" d="M152.86,194.07,151.1,194l.68-9.72-3.84-.11-.68,9.63-1.74-.09.68-9.72-3.84-.11-.68,9.63-1.75-.09.77-11.07,1.76.09,0,.31,2.08-.14c.84,0,1.53-.05,2.08,0a1.48,1.48,0,0,1,1.16.48c.75-.05,1.49-.09,2.23-.15a21.86,21.86,0,0,1,2.19,0c1,0,1.43.49,1.37,1.31Z"/><path class="cls-373" d="M163.2,193.32c-.06.86-.59,1.26-1.59,1.21l-4.41-.23c-1-.05-1.45-.51-1.39-1.36l.59-8.5c.06-.86.58-1.26,1.57-1.21l4.42.23c1,0,1.46.5,1.4,1.36Zm-1.76-.14.59-8.41-3.88-.2-.58,8.41Z"/><path class="cls-373" d="M174,184.06,170,195l-1.61-.08L166,183.65l1.81.09,1.59,8.83,2.83-8.6Z"/><path class="cls-373" d="M182.66,194.33c-.06.86-.58,1.26-1.57,1.21l-4.23-.22c-1,0-1.45-.5-1.39-1.36l.59-8.5c.06-.86.58-1.26,1.57-1.21l4.23.22c1,.05,1.45.51,1.39,1.36l-.27,4-.64.5-4.89-.25-.28,4,3.78.2.15-2,1.7.09Zm-1.34-5.27.23-3.34-3.78-.19-.23,3.33Z"/><path class="cls-373" d="M195.41,196.29l-2.5-.13c-1,0-1.45-.51-1.39-1.36l.59-8.46-1.55-.08.1-1.33,1.54.08.24-3.45,1.74.09-.24,3.45,2.24.12-.09,1.33-2.25-.12-.58,8.41,2.24.12Z"/><path class="cls-373" d="M205.05,196.79l-1.76-.09L204,187l-3.88-.11-.67,9.63-1.76-.09,1.24-17.81,1.76.09-.49,7,2.1-.12c.89-.05,1.59-.06,2.09,0,1,.06,1.44.49,1.38,1.32Z"/><path class="cls-373" d="M215.18,196c-.06.85-.59,1.26-1.57,1.21l-4.23-.22c-1-.06-1.46-.51-1.4-1.37l.6-8.5c.06-.86.58-1.26,1.57-1.21l4.23.22c1,.05,1.45.51,1.39,1.37l-.28,4-.63.5-4.89-.25-.28,4,3.78.2.14-2,1.71.08Zm-1.35-5.28.24-3.33-3.78-.2-.24,3.33Z"/><path class="cls-373" d="M230.32,196.82c-.06.85-.59,1.26-1.58,1.2l-4-.21c-1-.05-1.46-.5-1.4-1.36l.17-2.51,1.74.09-.18,2.49,3.56.18.15-2.2L224.37,191a1.34,1.34,0,0,1-.58-1.22l.13-1.84c.06-.86.58-1.26,1.58-1.21l4,.21c1,.05,1.47.51,1.41,1.36l-.16,2.21-1.7-.09.15-2.18-3.56-.19-.13,1.94,4.41,3.48a1.36,1.36,0,0,1,.56,1.24Z"/><path class="cls-373" d="M237.65,198.49l-2.5-.13c-1-.05-1.45-.51-1.39-1.37l.59-8.45-1.55-.08.09-1.33,1.55.08.24-3.45,1.73.09-.24,3.45,2.25.12-.09,1.33-2.25-.12-.59,8.41,2.25.12Z"/><path class="cls-373" d="M247.38,197.7c-.06.86-.59,1.26-1.59,1.21l-4.41-.23c-1-.05-1.45-.5-1.39-1.36l.59-8.5c.06-.86.58-1.26,1.57-1.21l4.42.23c1,0,1.46.51,1.4,1.36Zm-1.76-.13.59-8.41-3.88-.2-.58,8.41Z"/><path class="cls-373" d="M257.55,199.52l-1.76-.09.68-9.72-3.88-.11-.67,9.63-1.76-.09.77-11.07,1.76.09,0,.3c.69,0,1.39-.08,2.09-.13.85,0,1.55-.05,2.1,0,1,.05,1.44.49,1.38,1.31Z"/><path class="cls-373" d="M267.67,198.76c-.05.86-.58,1.26-1.57,1.21l-4.23-.22c-1-.05-1.45-.51-1.39-1.36l.59-8.5c.06-.86.59-1.26,1.58-1.21l4.23.22c1,0,1.45.5,1.39,1.36l-.28,4-.63.51-4.9-.26-.28,4,3.79.2.14-2,1.7.09Zm-1.34-5.28.23-3.33-3.78-.2-.23,3.34Z"/><path class="cls-373" d="M277.51,199.27c-.06.86-.59,1.26-1.58,1.21l-4-.21c-1-.05-1.47-.51-1.41-1.36l.18-2.52,1.73.09-.17,2.49,3.55.19.16-2.21-4.38-3.48a1.37,1.37,0,0,1-.58-1.22l.13-1.84c.06-.86.59-1.26,1.58-1.21l4,.21c1,.05,1.47.5,1.41,1.36l-.16,2.21-1.7-.09.15-2.18-3.56-.19-.13,1.93,4.42,3.49a1.38,1.38,0,0,1,.56,1.24Z"/><path class="cls-373" d="M292.79,201.36l-1.73-.09,0-.31-2.11.13a19,19,0,0,1-2.08,0c-1-.05-1.42-.49-1.36-1.3l.28-4q.09-1.28,1.59-1.2l4.13.21.24-3.33-3.78-.2-.14,1.89-1.7-.09.13-1.86c.06-.86.58-1.26,1.57-1.21l4.23.22c1,0,1.45.5,1.39,1.36Zm-1.61-1.47.27-3.91-3.92-.21-.28,4Z"/><path class="cls-373" d="M303.06,201.89l-1.76-.09.68-9.72L298.1,192l-.67,9.63-1.76-.09.77-11.07,1.76.09,0,.3,2.09-.13c.86,0,1.56,0,2.1,0,1,0,1.44.49,1.38,1.31Z"/><path class="cls-373" d="M313.22,202.42l-1.75-.09,0-.31c-1.91.16-3,.23-3.17.22a2.49,2.49,0,0,1-1.76-.75,2.11,2.11,0,0,1-.57-1.67l.45-6.48a2.2,2.2,0,0,1,.9-1.66,2.94,2.94,0,0,1,2-.57l2.9.15.47-6.74,1.74.09ZM311.57,201l.58-8.36-2.43-.13c-1-.05-1.48.36-1.54,1.21l-.42,5.92c-.05.85.4,1.3,1.37,1.35C309.36,201,310.17,201,311.57,201Z"/><path class="cls-373" d="M329,200.86a2.23,2.23,0,0,1-.9,1.66,3,3,0,0,1-2,.57l-2.89-.15-.3,4.2-1.75-.09,1.06-15.27,1.76.09,0,.31,2.1-.12a17.32,17.32,0,0,1,2.09,0c1,0,1.44.49,1.38,1.31Zm-1.75-.32.5-7.12-3.88-.11-.58,8.3,2.43.13Q327.14,201.82,327.23,200.54Z"/><path class="cls-373" d="M333.46,203.48l-1.73-.09.77-11.08,1.74.09Zm1-13.5-1.78-.09.13-1.91,1.79.09Z"/><path class="cls-373" d="M343.68,202.72c-.06.86-.58,1.26-1.57,1.21l-4.18-.22c-1-.05-1.45-.51-1.39-1.36l.6-8.5c.06-.86.58-1.26,1.57-1.21l4.17.21c1,.06,1.46.51,1.4,1.37l-.16,2.2-1.73-.09.15-2.16-3.65-.19-.59,8.41,3.65.19.18-2.47,1.73.09Z"/><path class="cls-373" d="M353.67,204.53l-1.92-.1-3.15-5.83-.39,5.64-1.76-.09,1.24-17.81,1.76.09-.79,11.32,3.63-4.41,1.89.1v.05l-4.08,4.7Z"/><path class="cls-373" d="M365.45,205.14,363,205c-1,0-1.45-.5-1.39-1.36l.59-8.46-1.55-.08.1-1.33,1.54.08.24-3.45,1.74.09L364,194l2.24.12-.09,1.33-2.25-.12-.58,8.41,2.24.12Z"/><path class="cls-373" d="M375.09,205.64l-1.76-.09.68-9.72-3.88-.11-.67,9.63-1.76-.09,1.24-17.81,1.76.09-.49,7,2.1-.11a17.32,17.32,0,0,1,2.09,0c1,0,1.44.49,1.38,1.31Z"/><path class="cls-373" d="M385.22,204.88c-.06.86-.59,1.26-1.57,1.21l-4.23-.22c-1-.05-1.46-.51-1.4-1.36l.6-8.5c.06-.86.58-1.26,1.57-1.21l4.23.22c1,0,1.45.5,1.39,1.36l-.28,4-.63.51-4.89-.26-.28,4,3.78.19.14-2,1.71.09Zm-1.35-5.28.24-3.33-3.79-.2-.23,3.34Z"/><path class="cls-373" d="M52.86,214.55a2.17,2.17,0,0,1-.89,1.66,3,3,0,0,1-2,.58l-4.65-.25,1.24-17.81,1.76.09-.49,7.05,2.1-.12a19.67,19.67,0,0,1,2.09,0q1.47.07,1.38,1.32Zm-1.74-.32.5-7.11L47.74,207l-.58,8.29,2.43.13Q51,215.51,51.12,214.23Z"/><path class="cls-373" d="M62.84,217.46l-1.73-.09,0-.31-2.11.13c-.87,0-1.56.05-2.08,0-1-.05-1.41-.49-1.36-1.31l.29-4c.05-.85.58-1.25,1.58-1.19l4.14.21.23-3.33-3.78-.2-.13,1.89-1.71-.09.13-1.87c.06-.85.58-1.26,1.57-1.2l4.23.22c1,.05,1.45.5,1.39,1.36ZM61.23,216l.27-3.91-3.92-.21-.28,4Z"/><path class="cls-373" d="M73.11,218l-1.75-.09.67-9.72-3.88-.11-.67,9.63-1.76-.09.78-11.08,1.75.1,0,.3,2.1-.13a19.05,19.05,0,0,1,2.09,0q1.47.07,1.38,1.32Z"/><path class="cls-373" d="M83.23,218.52l-1.73-.09,0-.31-2.1.13c-.88,0-1.57.05-2.09,0-1-.05-1.41-.49-1.36-1.31l.28-4c.06-.85.59-1.24,1.59-1.19L82,212l.23-3.33-3.78-.2-.13,1.89-1.71-.09.13-1.86c.06-.86.58-1.26,1.57-1.21l4.23.22c1,0,1.45.5,1.39,1.36Zm-1.61-1.47.27-3.91L78,212.93l-.28,4Z"/><path class="cls-373" d="M93.5,219.05,91.75,219l.67-9.72-3.88-.11-.67,9.63-1.76-.09.78-11.08,1.75.1,0,.3,2.1-.13c.85,0,1.55-.05,2.09,0,1,.06,1.44.49,1.39,1.32Z"/><path class="cls-373" d="M103.62,219.58l-1.73-.09,0-.31-2.11.13a18.93,18.93,0,0,1-2.08,0c-1-.05-1.41-.49-1.36-1.3l.29-4c0-.85.58-1.25,1.58-1.2l4.14.21.23-3.33-3.78-.2-.13,1.89L97,211.28l.13-1.86c.06-.86.58-1.26,1.57-1.21l4.23.22c1,0,1.45.5,1.39,1.36ZM102,218.11l.27-3.91L98.36,214l-.28,4Z"/><path class="cls-373" d="M113.52,218.8c-.06.86-.59,1.26-1.58,1.21l-4-.21c-1-.05-1.47-.51-1.41-1.36l.18-2.52,1.73.09-.17,2.49,3.55.19.16-2.21L107.57,213a1.37,1.37,0,0,1-.58-1.22l.13-1.84c.06-.86.59-1.26,1.58-1.21l4,.21c1,.05,1.46.5,1.4,1.36l-.15,2.21-1.71-.09.15-2.19-3.56-.18-.13,1.93,4.42,3.49a1.38,1.38,0,0,1,.56,1.24Z"/><path class="cls-373" d="M129.08,218.52a2.19,2.19,0,0,1-.89,1.66,3,3,0,0,1-2,.57l-4.65-.24,1.24-17.81,1.76.09-.49,7.05,2.1-.12a19.7,19.7,0,0,1,2.09,0q1.47.07,1.38,1.32Zm-1.74-.32.5-7.11L124,211l-.58,8.3,2.43.13Q127.25,219.47,127.34,218.2Z"/><path class="cls-373" d="M139.07,220.13c-.06.86-.58,1.26-1.57,1.21l-4.23-.22c-1-.05-1.45-.5-1.39-1.36l.59-8.5c.06-.86.58-1.26,1.57-1.21l4.23.22c1,0,1.45.51,1.39,1.36l-.27,4-.64.5-4.89-.25-.28,4,3.78.2.14-2,1.71.09Zm-1.34-5.27.23-3.34-3.78-.2-.23,3.34Z"/><path class="cls-373" d="M147.91,205.35l-2.49-.13-.38,5.4,2.2.12-.09,1.33L145,212l-.68,9.75-1.73-.1.68-9.74-1.5-.07.1-1.33,1.49.07.38-5.45c.06-.86.58-1.26,1.57-1.21L148,204Z"/><path class="cls-373" d="M155.81,221c-.06.86-.59,1.27-1.58,1.21l-4.42-.23c-1,0-1.45-.5-1.39-1.36l.59-8.5c.06-.86.59-1.26,1.57-1.21l4.42.23c1,.05,1.46.51,1.4,1.36Zm-1.75-.13.58-8.41-3.87-.2-.59,8.41Z"/><path class="cls-373" d="M165.84,215.36l-1.73-.09.16-2.29L161,212.9l-.67,9.63-1.76-.09.77-11.07,1.76.09,0,.31,1.78-.15a14.14,14.14,0,0,1,1.77-.05c1,.06,1.42.49,1.36,1.32Z"/><path class="cls-373" d="M174.84,222c-.06.85-.58,1.26-1.57,1.21L169,223c-1,0-1.45-.5-1.39-1.36l.59-8.5c.06-.86.58-1.26,1.57-1.21l4.23.22c1,.05,1.45.51,1.39,1.37l-.27,4-.64.5-4.89-.25-.28,4,3.78.2.14-2L175,220Zm-1.34-5.28.23-3.34-3.78-.19-.24,3.33Z"/><path class="cls-373" d="M187.59,224l-2.5-.13c-1,0-1.45-.51-1.39-1.36l.59-8.46-1.55-.08.1-1.33,1.54.08.24-3.45,1.74.09-.24,3.45,2.24.12-.09,1.33-2.25-.12-.58,8.41,2.24.12Z"/><path class="cls-373" d="M197.23,224.45l-1.76-.09.68-9.72-3.88-.11-.67,9.63-1.76-.09,1.24-17.81,1.76.09-.49,7,2.1-.12c.89-.05,1.59-.06,2.09,0,1,.06,1.44.49,1.38,1.32Z"/><path class="cls-373" d="M207.36,223.69c-.06.86-.59,1.26-1.57,1.21l-4.23-.22c-1-.05-1.46-.51-1.4-1.37l.6-8.5c.06-.85.58-1.26,1.57-1.2l4.23.22c1,0,1.45.5,1.39,1.36l-.28,4-.63.5-4.89-.25-.28,4,3.78.19.14-2,1.71.09ZM206,218.41l.24-3.33-3.79-.2-.23,3.33Z"/><path class="cls-373" d="M218.2,214.43l-3.87,10.82-1.58,4.22-1.73-.09,1.6-4.22L210.21,214l1.81.09,1.59,8.83,2.83-8.6Z"/><path class="cls-373" d="M232,229.19c-.06.85-.59,1.26-1.58,1.2l-4.18-.21q-1.53-.09-1.41-1.71,0-.19.06-.57c0-.26.05-.44.06-.56l1.73.1-.1,1.46,3.67.19.21-2.91-2.9-.15a2.84,2.84,0,0,1-1.91-.78,2.11,2.11,0,0,1-.66-1.74l.45-6.47a2.21,2.21,0,0,1,.8-1.6,2.58,2.58,0,0,1,1.86-.56c.2,0,1.24.19,3.11.54l0-.31,1.74.09Zm-1.45-4.34.58-8.36c-1.38-.15-2.19-.23-2.42-.24-1-.05-1.49.34-1.54,1.19l-.42,5.93c-.06.85.4,1.3,1.37,1.35Z"/><path class="cls-373" d="M242.57,225.52c-.06.86-.59,1.26-1.58,1.21l-4.42-.23c-1-.05-1.45-.51-1.39-1.36l.59-8.5c.06-.86.58-1.26,1.57-1.21l4.42.23c1,.05,1.46.5,1.4,1.36Zm-1.76-.14.59-8.41-3.87-.2-.59,8.41Z"/><path class="cls-373" d="M258.21,225.24a2.21,2.21,0,0,1-.9,1.66,2.9,2.9,0,0,1-2,.58l-4.66-.25,1.25-17.81,1.75.1-.49,7,2.11-.12c.89-.05,1.58-.06,2.08,0q1.47.07,1.38,1.32Zm-1.74-.32.49-7.11-3.88-.11L252.5,226l2.44.13Q256.38,226.2,256.47,224.92Z"/><path class="cls-373" d="M268.19,228.15l-1.73-.09,0-.31-2.11.13c-.87,0-1.57.05-2.08,0-1,0-1.42-.49-1.36-1.31l.28-4c.06-.85.59-1.25,1.58-1.19l4.14.21.24-3.33-3.79-.2-.13,1.89-1.7-.09.13-1.86c.06-.86.58-1.27,1.57-1.21l4.23.22c1,.05,1.45.5,1.39,1.36Zm-1.61-1.47.27-3.91-3.93-.21-.27,4Z"/><path class="cls-373" d="M278.38,228.68l-1.74-.09,0-.31c-1.91.15-3,.22-3.16.21a2.5,2.5,0,0,1-1.77-.75,2.1,2.1,0,0,1-.57-1.67l.45-6.47a2.21,2.21,0,0,1,.9-1.66,2.9,2.9,0,0,1,2-.58l2.9.15.47-6.73,1.74.09Zm-1.65-1.47.59-8.36-2.44-.13c-1-.05-1.48.35-1.54,1.21l-.41,5.92c-.06.85.39,1.3,1.36,1.35Z"/><path class="cls-373" d="M283.49,226.93l-1.39,3.21-1.27-.07.61-3.24Z"/><path class="cls-2" d="M436.91,362.55l-5.09-9.37c-2.4-4.42-.18-9.74,4.94-11.81l68.91-27.94c5.12-2.08,11.27-.16,13.67,4.26l5.09,9.38c2.4,4.42.18,9.73-4.94,11.81l-68.91,27.94C445.46,368.89,439.31,367,436.91,362.55Z"/><path class="cls-2" d="M406.93,293.29l10.61-4.82c5-2.28,11.25-.6,13.88,3.72L465,347.4c2.63,4.32.69,9.71-4.32,12l-10.61,4.82c-5,2.27-11.24.59-13.87-3.73l-33.59-55.21C400,301,401.93,295.56,406.93,293.29Z"/><path class="cls-2" d="M416.06,298.67l-14.45,3c-4.93,1.29-8.57-3.47-10.22-8.14l-3.24-9.2c-1.65-4.67,1.48-7.35,5.72-4.6l-.89-3.7c0-2.32,1.5-2.72,3-3.11l4.12,1.3C399,273.51,398,267,404.56,269c.88.26,2.93,1.11,2.77.2-.4-2.19-2.15-7.14,6.65-2.49,7.7,4.08,4.51-9.71,10.26-5L429,289C434.46,290.66,421,297.37,416.06,298.67Z"/><path class="cls-2" d="M729.73,342.11l10.61-4.82c5-2.27,11.24-.59,13.87,3.73l33.59,55.2c2.63,4.33.69,9.72-4.31,12L772.88,413c-5,2.27-11.25.6-13.88-3.72L725.41,354.1C722.78,349.78,724.72,344.38,729.73,342.11Z"/><path class="cls-2" d="M772.81,462l12.88,4.57c4.56,1.36,4.3,6.66,2.58,11L784.9,486c-1.72,4.29-5.8,4.82-7.26.74l-1.68,3.2c-1.47,1.75-2.86,1.34-4.24.92l-2.3-2.93c.35,1.08-3,6.45-6.75,1.86-.5-.61-1.52-2.22-2-1.46-1.09,1.83-2.91,6.39-6.63-1.29-3.25-6.71-9.58,5.16-10.94-1.13l13.74-22.76C753.77,459.27,768.24,460.61,772.81,462Z"/><rect class="cls-2" x="757.46" y="395.02" width="32.54" height="80.12" rx="12" transform="translate(1547.46 870.17) rotate(180)"/><path class="cls-2" d="M584.58,619.54l-11.73-2.11c-5.54-1-9.12-5.73-8-10.51l15.54-64.39c1.15-4.78,6.62-7.87,12.16-6.87l11.73,2.11c5.53,1,9.12,5.72,8,10.5l-15.53,64.39C595.58,617.44,590.11,620.54,584.58,619.54Z"/><path class="cls-2" d="M703.39,615.32l-11.47,3c-5.41,1.41-11.18-1.25-12.82-5.92L657,549.47c-1.64-4.67,1.44-9.66,6.85-11.07l11.47-3c5.41-1.42,11.17,1.24,12.82,5.92l22.1,62.94C711.88,608.92,708.8,613.9,703.39,615.32Z"/><path class="cls-382" d="M561.18,626l-36,5.18c-3.69,0-9.42-4.2-9.42-7.4l-1.71-6.65c-2.54-14.25,22.25-1.11,27.43-1.11l23.09-5.55c5.18,0,32.94,3.33,31.68,4.44l-.86,13.31C594.69,632.67,560.33,630.39,561.18,626Z"/><path class="cls-383" d="M541.52,616l23.09-5.55c-5.18,0,32.94,3.33,31.68,4.44"/><path class="cls-382" d="M711.72,622.84l34.56,10c3.64.5,10.07-2.86,10.65-6l2.92-6.34c5.12-13.71-21.77-4.14-26.88-4.85L711.19,607c-5.12-.71-33.13-1.23-32.09,0l-1.6,13.27C677.41,624.88,711.75,627.34,711.72,622.84Z"/><path class="cls-373" d="M730,558.26H523.65c-5.65,0-10.28-4-10.28-8.88l24.84-249.31c0-4.88,78.77-28.85,65.92,1.48l50.52.74c-14.55-26.63,46.24-14.79,57.37-8.87l28.25,256C740.27,554.27,735.65,558.26,730,558.26Z"/><path class="cls-384" d="M501.42,359.72c39.77-18.8,65.92-43.68,58.39-55.57s-45.88-6.28-85.65,12.53"/><path class="cls-384" d="M766.42,336.63c-23.31-31.83-52.87-51.81-66-44.62s-4.9,38.82,18.42,70.65"/><path class="cls-385" d="M673.56,456.4C652,484.93,644.2,513.46,656,520.13s38.89-11.05,60.41-39.57"/><path class="cls-385" d="M534.57,479.72c21.49,29.89,49.16,48.63,61.8,41.84s5.46-36.52-16-66.41"/><ellipse class="cls-377" cx="615.88" cy="370.15" rx="16.74" ry="23.98" transform="translate(-72.87 165.35) rotate(-14.45)"/><path class="cls-378" d="M598.31,372.86c-2.78-13.49,2.75-25.24,12.61-26.76s19.75,7.85,22.53,21.34-2.75,25.24-12.6,26.75S601.1,386.34,598.31,372.86Zm33.18-5.12c-2.56-12.39-11.87-21.75-20.33-20.45s-13.44,12.87-10.88,25.26S612.15,394.31,620.6,393,634,380.13,631.49,367.74Z"/><ellipse class="cls-386" cx="644.98" cy="372.03" rx="34.29" ry="11.7" transform="matrix(0.84, -0.54, 0.54, 0.84, -98.58, 411.19)"/><ellipse class="cls-386" cx="629.08" cy="406.62" rx="15.1" ry="26.58" transform="translate(-113.49 504.98) rotate(-40.42)"/><ellipse class="cls-386" cx="598.85" cy="406.08" rx="29.44" ry="11.85" transform="translate(-124.59 393.56) rotate(-33.15)"/><ellipse class="cls-386" cx="586.19" cy="378.92" rx="12.7" ry="31.61" transform="translate(-10.66 740.82) rotate(-64.11)"/><ellipse class="cls-386" cx="651.71" cy="392.3" rx="10.02" ry="40.07" transform="translate(251.91 1039.44) rotate(-89.34)"/><ellipse class="cls-387" cx="620.69" cy="387.84" rx="9.65" ry="10.72" transform="translate(188.87 978.78) rotate(-85.84)"/><path class="cls-388" d="M606.22,390.07c-1.38-6.67,3.9-12.88,12-14.13s15.55,3,16.92,9.67-3.89,12.89-12,14.14S607.6,396.75,606.22,390.07Zm21.08-3.25c-.87-4.2-5-6.59-8.09-6.11a6.75,6.75,0,0,0-5.13,8.15c.87,4.2,4.95,6.59,8.08,6.11A6.76,6.76,0,0,0,627.3,386.82Z"/></g></svg>
