<svg id="Tittle" xmlns="http://www.w3.org/2000/svg" viewBox="0 0 1600 200"><defs><style>.cls-1{fill:#212121;}.cls-2{fill:#484848;}.cls-3,.cls-4{fill:#286ba5;}.cls-4{stroke:#000;stroke-linecap:round;stroke-width:8px;}.cls-4,.cls-7{stroke-miterlimit:10;}.cls-5{fill:#393939;}.cls-6{fill:#5f5f5f;}.cls-7{stroke:#ff0;stroke-width:3px;}</style></defs><title>Tittle</title><polyline class="cls-1" points="263.46 48.4 237.33 50.16 270 124.88"/><rect class="cls-1" x="181.24" y="31.57" width="82.21" height="110.49" rx="12"/><rect class="cls-2" x="166.23" y="39.79" width="82.21" height="110.49" rx="12"/><polyline class="cls-1" points="210.98 31.36 193.46 3 187.13 39.56"/><polyline class="cls-2" points="193.46 3 167.1 46.98 186.08 45.92"/><rect class="cls-3" x="181.41" y="49.16" width="55.33" height="86.5" rx="9.42"/><path class="cls-4" d="M223.13,138.71H195.88c-9.65,0-15.34-9.29-15.34-19.57l.27-55.08A55.06,55.06,0,0,1,182.65,57c3.52-5.39,3.83-4.65,9.22-6.21,13.36-3.86,32.55-2.55,36.23,2.12"/><polyline class="cls-2" points="262.1 122.76 238.22 149.55 262.1 141.84"/><polyline class="cls-5" points="260.59 145.59 270 124.88 240.06 150.27"/><polyline class="cls-6" points="270 124.88 248.39 68.18 240.92 148.4"/><polyline class="cls-2" points="246.28 71.36 225.73 107.39 238.22 149.55"/><polyline class="cls-5" points="240.06 150.27 225.73 107.39 208.71 150.27"/><polyline class="cls-1" points="265.26 84.61 259.77 80.09 252.39 113.48"/><path class="cls-3" d="M235.35,55.81c.79,3.52-6.69,11.68-17.81,11.49S183,77.46,185,60c.72-6.26,19.3-12.79,29.89-12.88C226,47,234.24,50.89,235.35,55.81Z"/><path class="cls-7" d="M110.26,127.84a84,84,0,0,0,15.48,9.57,87.1,87.1,0,0,0,17.84,6.18q2.31.51,2.31,2.55c0,1.88-1.14,2.81-3.43,2.81q-7.82,0-22-7.83-11.77-6.56-27-20.26v3.49l.08,14.47v8.26H48.09v-3.83l.15-27.75.23-33.2-.15-51.41h30q20.14,0,30.43,1.28a56.22,56.22,0,0,1,17.54,4.77q11.79,5.61,18.65,18.47a52.51,52.51,0,0,1,6.34,25,52,52,0,0,1-7.08,26.3Q132.78,126.57,110.26,127.84Zm-7.08-5.27,3.57.08q15.36,0,25.95-9.79A40.08,40.08,0,0,0,143,97.54a46.24,46.24,0,0,0,3.35-17.19,44.28,44.28,0,0,0-8.5-26.64,35.13,35.13,0,0,0-16.25-12.86q-9.77-3.74-27.51-4l-.67,57v15.41l.07,4A101,101,0,0,0,103.18,122.57Z"/><path class="cls-7" d="M323.43,33.19,323,93.54l.45,51.24a43.37,43.37,0,0,0,6.41.6,41.44,41.44,0,0,0,15-3,45.82,45.82,0,0,0,13.57-8.09,54.89,54.89,0,0,0,7.86-8.85,64.17,64.17,0,0,0,6.52-10.81q1.43-3.06,3.06-3.06A2.14,2.14,0,0,1,378.3,114q0,2.55-3.69,8.64a72.15,72.15,0,0,1-8.1,10.94A50.81,50.81,0,0,1,344,148.1a49,49,0,0,1-14.93,2.47,47.66,47.66,0,0,1-21-5.11q-16.86-8.09-25.68-25.62a69,69,0,0,1,.3-62.39,56.83,56.83,0,0,1,23-24.09,47.67,47.67,0,0,1,23.36-6q21.51,0,37.18,16.6,7.47,7.92,7.47,11.41a2.38,2.38,0,0,1-.75,1.7,2.24,2.24,0,0,1-1.64.77q-1.49,0-3.57-3.32a47,47,0,0,0-16.93-16.05,44.65,44.65,0,0,0-22.21-5.91A22.5,22.5,0,0,0,323.43,33.19Z"/><path class="cls-7" d="M451,55.37l11.13,25.7q9.63,22.13,16.8,37.62t10.68,21.61q2.16,3.91,2.22,5.18,0,3.22-3.88,3.22a2.72,2.72,0,0,1-2.5-1.24q-.78-1.23-3.92-8.64l-4.63-11-7.32-17.28-6.79-16-5-11.66L446.91,57.78l-13.66,9.37-.07,12.6v8.43l.43,54.64.09,4.26H387.93l.45-72.69-.15-20.68-.3-18.13V30.89H433.7l-.36,13.61L433.25,61,446,52.33q10.83-7.3,19.26-13.8t10.91-7.81a8.74,8.74,0,0,1,4.48-1.44c2.64,0,3.95.93,3.95,2.81a3.13,3.13,0,0,1-1.08,2.42,31.57,31.57,0,0,1-5,3.13q-4.71,2.55-20.82,13.3Z"/><path class="cls-7" d="M497.31,127.33c.89,0,1.94.77,3.13,2.3a42.5,42.5,0,0,0,13.7,11.19,34.51,34.51,0,0,0,16,4.22q8.73,0,8.73-6,0-3.83-3.06-8.64t-14.63-19q-14.57-18-19.41-26.64-6.44-11.49-6.42-21.88a31.54,31.54,0,0,1,12.24-25.62q12-9.78,29.64-9.79a46,46,0,0,1,22.62,5.71,29.76,29.76,0,0,1,6.68,5.1q2.81,2.9,2.8,4.86a2.48,2.48,0,0,1-.78,1.74,2.28,2.28,0,0,1-1.61.81q-1.28,0-3.73-2.64a31.19,31.19,0,0,0-10.6-7.19A31.69,31.69,0,0,0,540,32.94a9.59,9.59,0,0,0-6.08,1.83,5.71,5.71,0,0,0-2.36,4.72q0,3.49,2.91,8.52a105.24,105.24,0,0,0,9.85,13.36q22,26.64,26.89,35.92,5.14,9.78,5.15,18.89a30.74,30.74,0,0,1-3.66,14.64,31.19,31.19,0,0,1-10.15,11.32q-12.4,8.43-30.24,8.43a45.75,45.75,0,0,1-28.89-9.7q-8.74-6.81-8.74-10.64a2.91,2.91,0,0,1,.79-2A2.36,2.36,0,0,1,497.31,127.33Z"/><path class="cls-7" d="M629.52,54.9a23.93,23.93,0,0,1-9.07,8.21,27.21,27.21,0,0,1-12.58,2.77,22.54,22.54,0,0,1-13.43-4.09q-6.95-4.84-7-13.87A18.29,18.29,0,0,1,592,35.58q7-8.17,18.59-8.18,10.53,0,17,6.81,6.27,6.65,6.27,18a33.51,33.51,0,0,1-2.68,13.45,24,24,0,0,1-7.54,9.88Q616.54,81,604.14,81q-5.52,0-5.52-2.64,0-2,2.76-2l2.39.08a12.41,12.41,0,0,0,1.49.09,28.86,28.86,0,0,0,13.07-2.64Q625,70.57,628,62.47A54.52,54.52,0,0,0,629.52,54.9Z"/><path class="cls-7" d="M740.69,87.47V73.24l-.15-22.58-.07-10.31-.08-6.47q0-4.61,2.76-4.6a2.42,2.42,0,0,1,2.28,1.06,8.82,8.82,0,0,1,.63,4v1.2c0,1.19-.07,3.14-.07,5.87l-.3,28.68-.22,26.3.19,27.67.26,27.75q-15.39-11-45-30.36T652.89,91l.08,4.18.74,43.94.08,5.88q0,3.66-3,3.66c-2,0-3.06-1.51-3.06-4.51l.08-6,.07-9.62.3-43.67-.6-58.81Q677.86,47.51,740.69,87.47Z"/><path class="cls-7" d="M882.69,96.52a30.38,30.38,0,0,1,8,9.66,24.58,24.58,0,0,1,2.65,11.28,28.15,28.15,0,0,1-6.64,18q-8.15,10.22-24.49,11.07-9,.51-25.38.51h-37l.08-4,.15-16.51.22-32.52L800,58.64l-.15-27.75h40q15,0,20.64.56a48.75,48.75,0,0,1,11.61,2.68A41.44,41.44,0,0,1,884,40.85a35.14,35.14,0,0,1,8.59,9.71A36.24,36.24,0,0,1,897.4,69a34.65,34.65,0,0,1-4,16.6A25.19,25.19,0,0,1,882.69,96.52Zm-6.05,2.21a25.87,25.87,0,0,1-6,.77,18.13,18.13,0,0,1-9.52-2.21c-2.42-1.48-3.62-3.41-3.62-5.79,0-1.31.4-2,1.19-2a5.69,5.69,0,0,1,2.47.85,21.91,21.91,0,0,0,11.19,3q11,0,16.58-9.87a27.92,27.92,0,0,0,3.58-14.22,29.14,29.14,0,0,0-8.28-20.85,34.28,34.28,0,0,0-14.08-9.11q-8.17-2.8-20.49-2.81h-4.11l-.45,51.07.45,53.88,6.72.09q11.13,0,17.32-1.41a24.23,24.23,0,0,0,10.31-4.81,22.57,22.57,0,0,0,8.51-18,18.62,18.62,0,0,0-3-10.17A28.13,28.13,0,0,0,876.64,98.73Z"/><path class="cls-7" d="M958,23.91l59.69,123.17H965.9l-7.22-15.58h-25l-22-.08-3.72-.09L903,141.73a40.15,40.15,0,0,1-3,5.83,2.59,2.59,0,0,1-2.14,1.14,2.26,2.26,0,0,1-2.55-2.56,12.19,12.19,0,0,1,1.45-4.12q1.46-3,10.2-19.88l45.19-86.73ZM934.75,79.83l-13,25-10.43,20.61,22.26.34,22.34-.34Z"/><path class="cls-7" d="M1116,87.47V73.24l-.15-22.58-.07-10.31-.08-6.47q0-4.61,2.77-4.6a2.41,2.41,0,0,1,2.27,1.06,8.65,8.65,0,0,1,.64,4v1.2c0,1.19-.08,3.14-.08,5.87l-.3,28.68-.22,26.3.19,27.67.26,27.75q-15.39-11-45-30.36T1028.2,91l.07,4.18.75,43.94.07,5.88q0,3.66-3,3.66c-2,0-3.06-1.51-3.06-4.51l.08-6,.07-9.62.3-43.67-.6-58.81Q1053.16,47.51,1116,87.47Z"/><path class="cls-7" d="M1190.46,23.91l59.69,123.17h-51.77l-7.21-15.58h-25l-22-.08-3.72-.09-4.92,10.4a41.61,41.61,0,0,1-3,5.83,2.61,2.61,0,0,1-2.15,1.14,2.26,2.26,0,0,1-2.55-2.56,12.43,12.43,0,0,1,1.45-4.12q1.46-3,10.2-19.88l45.2-86.73Zm-23.22,55.92-13,25-10.44,20.61,22.27.34,22.34-.34Z"/><path class="cls-7" d="M1348.48,87.47V73.24l-.15-22.58-.08-10.31-.07-6.47q0-4.61,2.76-4.6a2.44,2.44,0,0,1,2.28,1.06,8.82,8.82,0,0,1,.63,4v1.2c0,1.19-.07,3.14-.07,5.87l-.3,28.68-.23,26.3.2,27.67.25,27.75q-15.37-11-45-30.36t-48-30.45l.07,4.18.75,43.94.07,5.88q0,3.66-3,3.66c-2,0-3.06-1.51-3.06-4.51l.07-6,.08-9.62.3-43.67-.6-58.81Q1285.63,47.51,1348.48,87.47Z"/><path class="cls-7" d="M1423,23.91l59.68,123.17h-51.77l-7.21-15.58h-25l-22-.08-3.72-.09-4.92,10.4a40.5,40.5,0,0,1-3,5.83,2.6,2.6,0,0,1-2.14,1.14,2.26,2.26,0,0,1-2.56-2.56,12.29,12.29,0,0,1,1.46-4.12q1.45-3,10.19-19.88l45.2-86.73Zm-23.23,55.92-13,25-10.44,20.61,22.27.34,22.34-.34Z"/><path class="cls-7" d="M1488.38,127.33c.9,0,1.95.77,3.14,2.3a42.5,42.5,0,0,0,13.7,11.19,34.5,34.5,0,0,0,16,4.22q8.74,0,8.74-6,0-3.83-3.06-8.64t-14.63-19q-14.57-18-19.42-26.64-6.42-11.49-6.42-21.88a31.52,31.52,0,0,1,12.25-25.62q12-9.78,29.64-9.79A46,46,0,0,1,1551,33.11a30,30,0,0,1,6.68,5.1q2.8,2.9,2.8,4.86a2.45,2.45,0,0,1-.79,1.74,2.24,2.24,0,0,1-1.6.81q-1.27,0-3.73-2.64a31.29,31.29,0,0,0-10.6-7.19,31.69,31.69,0,0,0-12.62-2.85,9.64,9.64,0,0,0-6.09,1.83,5.73,5.73,0,0,0-2.35,4.72q0,3.49,2.91,8.52a105.24,105.24,0,0,0,9.85,13.36q22,26.64,26.88,35.92,5.16,9.78,5.16,18.89a30.74,30.74,0,0,1-3.66,14.64,31.21,31.21,0,0,1-10.16,11.32q-12.39,8.43-30.23,8.43a45.75,45.75,0,0,1-28.89-9.7q-8.74-6.81-8.74-10.64a3,3,0,0,1,.78-2A2.39,2.39,0,0,1,1488.38,127.33Z"/></svg>
