<svg xmlns="http://www.w3.org/2000/svg" xmlns:xlink="http://www.w3.org/1999/xlink" viewBox="0 0 1600 900"><defs><style>.cls-1{fill:none;}.cls-2{clip-path:url(#clip-path);}.cls-3{fill:#286ba5;}.cls-4{fill:#5f5f5f;}.cls-5{fill:#484848;}.cls-6{fill:#212121;}.cls-7{fill:#393939;}.cls-8{fill:#303030;}.cls-9{fill:#301c00;}.cls-10{fill:#fce001;}.cls-11{fill:#fde758;}.cls-12{fill:url(#linear-gradient);}.cls-13{fill:url(#linear-gradient-2);}.cls-14{fill:url(#linear-gradient-3);}.cls-15{fill:url(#linear-gradient-4);}.cls-16{fill:url(#linear-gradient-5);}.cls-17{fill:#282828;}.cls-18{fill:#202020;}</style><clipPath id="clip-path"><rect class="cls-1" x="3" y="-1" width="1600" height="900"/></clipPath><linearGradient id="linear-gradient" x1="-427.9" y1="-405.55" x2="-396.73" y2="-405.55" gradientTransform="translate(276.97 837.28) rotate(26.69)" gradientUnits="userSpaceOnUse"><stop offset="0" stop-color="#0e5e0e"/><stop offset="0.11" stop-color="#3f7a1d"/><stop offset="0.23" stop-color="#71972d"/><stop offset="0.35" stop-color="#9caf3a"/><stop offset="0.48" stop-color="#bfc445"/><stop offset="0.61" stop-color="#dad34d"/><stop offset="0.73" stop-color="#eede53"/><stop offset="0.86" stop-color="#f9e557"/><stop offset="1" stop-color="#fde758"/><stop offset="1" stop-color="#fff"/></linearGradient><linearGradient id="linear-gradient-2" x1="133.53" y1="-277.75" x2="158.92" y2="-277.75" gradientTransform="matrix(0.9, 0.45, -0.48, 0.95, 307.48, 782.38)" gradientUnits="userSpaceOnUse"><stop offset="0" stop-color="#fff"/><stop offset="0" stop-color="#fde758"/><stop offset="0.1" stop-color="#f7e356"/><stop offset="0.23" stop-color="#e5d951"/><stop offset="0.38" stop-color="#c9c948"/><stop offset="0.54" stop-color="#a1b23b"/><stop offset="0.72" stop-color="#6e952c"/><stop offset="0.91" stop-color="#307219"/><stop offset="1" stop-color="#0e5e0e"/></linearGradient><linearGradient id="linear-gradient-3" x1="-340.65" y1="-98" x2="-374.77" y2="-145" gradientTransform="translate(313.03 658.39) rotate(35.98)" gradientUnits="userSpaceOnUse"><stop offset="0.02" stop-color="#fde758"/><stop offset="0.07" stop-color="#edde53"/><stop offset="0.16" stop-color="#c2c546"/><stop offset="0.29" stop-color="#7e9e31"/><stop offset="0.45" stop-color="#206914"/><stop offset="0.48" stop-color="#0e5e0e"/><stop offset="0.89" stop-color="#5f501f"/><stop offset="1" stop-color="#754c24"/><stop offset="1" stop-color="#fde758"/></linearGradient><linearGradient id="linear-gradient-4" x1="369.25" y1="335.29" x2="354.51" y2="655.04" gradientUnits="userSpaceOnUse"><stop offset="0.04" stop-color="#39b54a"/><stop offset="0.17" stop-color="#71c34e"/><stop offset="0.3" stop-color="#a2d052"/><stop offset="0.42" stop-color="#cada54"/><stop offset="0.54" stop-color="#e6e156"/><stop offset="0.64" stop-color="#f7e558"/><stop offset="0.71" stop-color="#fde758"/><stop offset="1" stop-color="#fde758"/></linearGradient><linearGradient id="linear-gradient-5" x1="282.13" y1="-4.6" x2="311.83" y2="-4.6" gradientTransform="matrix(0.81, 0.59, -0.63, 0.86, 352, 609.14)" xlink:href="#linear-gradient-2"/></defs><title>Blue and bananas</title><g id="Layer_5" data-name="Layer 5"><g class="cls-2"><rect class="cls-3" x="1" y="-3" width="1604" height="913"/></g></g><g id="Bananas"><path class="cls-4" d="M571.41,458.05c-6,9.47-16.5,75.76-30,70L450.06,488.9c-13.51-5.79-19.67-18.28-13.69-27.75l73.21-91.66c6-9.47,18.55-27,27.08-7.23"/><path class="cls-5" d="M588.09,507.85l-99.65,23.34c-5.28,1.23-11.35-1.18-13.5-5.37l-16.82-32.74c-2.15-4.19.4-8.63,5.67-9.86l99.66-23.34c5.27-1.23,11.34,1.19,13.5,5.38L593.76,498C595.91,502.18,593.36,506.62,588.09,507.85Z"/><path class="cls-5" d="M409.71,478.87l-77.12-14c-13.67-2.49-23.32-12.94-21.45-23.23l21.66-32.43c-20.15-40.65,7-28.58,23.45-22.21l70.28-32.88c13.67,2.49,108.11-7.4,106.24,2.88L438,464.68C436.1,475,423.38,481.35,409.71,478.87Z"/><path class="cls-5" d="M562.55,550.56l-47,6.72c-25.29,3.62-52-9.67-59.26-29.54l-1.55-4.22c-7.3-19.86,7.41-39.07,32.69-42.69l38.61-13.67c12-1.73,34.9-14,45.33-9.11,11.46,5.31,18.46,35.2,22.29,45.6l1.55,4.22C602.55,527.73,587.84,546.94,562.55,550.56Z"/><path class="cls-6" d="M504.83,557.33,320.81,524c-13.86-1.85-55.33-25.63-73-43.2L230,407.85c1.13-11.63,14.47-3.93,28.32-2.08L373.5,432.26c13.85,1.85,41.89,26.78,40.76,38.41l65.07,52.46C485,533.83,518.69,559.18,504.83,557.33Z"/><polygon class="cls-7" points="482 529.44 361.1 493.77 366.81 408.98 440.34 471.65 526.08 467.15 482 529.44"/><path class="cls-8" d="M360.19,494.24a1.8,1.8,0,0,1-.56-.21l-95.05-56.16c-4.66-.84,24.89-11.57,29-19.38,3.33-6.32-34.76,11-34.44,9.26l-25.39-21.19c-.65-.54-1.39-3.12-.85-3.77,8.5-10.21,87.6-23.49,102-21.52a1.53,1.53,0,0,1,.8.38l31.19,27.65a1.53,1.53,0,0,1,.44,1.69c-2.61,6.87,5.89,10.12,4.09,20L366,460.72C364.12,470.93,373.42,496.29,360.19,494.24Z"/><polygon class="cls-9" points="595.06 567.91 590.12 560.88 581.46 564.82 586.7 553.49 583.98 544 592.16 544.03 599.15 534.22 598.97 545.58 606 549 597.71 555.99 595.06 567.91"/><path class="cls-10" d="M594.68,553.78C600,570.5,563.43,618.1,493.44,649c-68.4,31-170.26,45.36-258.88-2.15-90.47-44-138.45-134.58-154.3-207.56-16.78-74.23-1.42-130.88,13.41-136,17.51-7.14,35.15,31.77,67.36,76.19,31.77,45.05,78.1,95.63,143.06,126.38,64.43,31.94,132.83,37.42,188.2,36.08C547.38,541.24,589.43,533.7,594.68,553.78Z"/><path class="cls-10" d="M594.68,553.78C600,570.5,563.43,618.1,493.44,649c-68.4,31-170.26,45.36-258.88-2.15-90.47-44-138.45-134.58-154.3-207.56-16.78-74.23-1.42-130.88,13.41-136,17.51-7.14,35.15,31.77,67.36,76.19,31.77,45.05,78.1,95.63,143.06,126.38,64.43,31.94,132.83,37.42,188.2,36.08C547.38,541.24,589.43,533.7,594.68,553.78Z"/><path class="cls-11" d="M261.86,590.93c92.15,49.28,197,36.42,267,6.23,27.82-11.67,50.39-25.94,67.28-40a11.65,11.65,0,0,0-.49-3.34c-5.25-20.08-47.3-12.54-102.39-11.82-55.37,1.34-123.77-4.14-188.2-36.08C240.13,475.13,193.8,424.55,162,379.5c-32.21-44.42-49.85-83.33-67.36-76.19A10.77,10.77,0,0,0,91,305.68c-.58,21,1.69,46.07,8.47,73.63C116.93,453.12,167.86,545.15,261.86,590.93Z"/><path class="cls-12" d="M93.9,313.32h0c-4.22,2.05-8.35,0-9.21-4.6l-5-27a11.74,11.74,0,0,1,6.09-12L93.4,266l6.6,35.26A11.73,11.73,0,0,1,93.9,313.32Z"/><polygon class="cls-13" points="553.18 613.59 557.48 583.15 578.15 570.21 595.17 557.13 594.72 565.78 586.73 579.27 570.27 597.99 553.18 613.59"/><path class="cls-14" d="M94.69,378.43h0c-5.46,1.84-9.86-1.29-9.81-7l.26-33.51c0-5.72,4.52-11.85,10-13.7l9.9-3.34-.35,43.86C104.62,370.45,100.16,376.58,94.69,378.43Z"/><polygon class="cls-9" points="627.72 764.62 623.5 755.31 612.36 758.78 621.17 745.81 620.15 733.87 629.81 735.16 640.33 724.31 637.49 738.08 645 743.32 633.59 750.53 627.72 764.62"/><path class="cls-10" d="M630.53,747.38c2.36,21.14-51.76,73.37-141.55,100.21-87.93,27.2-211.54,29-305.21-42.31C87.09,737.93,51.34,620.53,49.48,529.42,46.81,436.64,78,370.16,96.72,366.22c22.34-6,34.18,44,61.95,102.91,27.12,59.62,70.15,128.18,139.76,175.5,68.71,48.69,148.22,65.83,213.92,72.7C577.56,724.9,629,722.18,630.53,747.38Z"/><path class="cls-10" d="M630.53,747.38c2.36,21.14-51.76,73.37-141.55,100.21-87.93,27.2-211.54,29-305.21-42.31C87.09,737.93,51.34,620.53,49.48,529.42,46.81,436.64,78,370.16,96.72,366.22c22.34-6,34.18,44,61.95,102.91,27.12,59.62,70.15,128.18,139.76,175.5,68.71,48.69,148.22,65.83,213.92,72.7C577.56,724.9,629,722.18,630.53,747.38Z"/><path class="cls-15" d="M227.74,741.35c97.43,74,224.2,74.46,313.9,48.51,35.54-9.91,65.5-23.79,88.69-38.33a14.44,14.44,0,0,0,.2-4.15c-1.56-25.2-53-22.48-118.18-30-65.7-6.87-145.21-24-213.92-72.7-69.61-47.32-112.64-115.88-139.76-175.5-27.77-58.92-39.61-108.9-61.95-102.91a14,14,0,0,0-4.92,2.31c-5.53,25.41-8.65,56.25-7,90.78C88.42,551.68,127.3,671.32,227.74,741.35Z"/><polygon class="cls-16" points="567.7 813.7 579.81 777.38 607.22 764.83 630.33 751.53 627.8 761.97 615.26 777.15 591.5 797.37 567.7 813.7"/></g><g id="Rocks"><g class="cls-2"><polyline class="cls-17" points="162.28 853.98 123.75 920.2 353.22 928.24"/><path class="cls-5" d="M38.72,917.63l45.58-51c12.9-14.45,12.9-38.1,0-52.56l-7.82-8.75c-12.91-14.46-34-14.46-46.93,0L-5.9,865.94c-12.91,14.45-23,28.48-10.12,42.94l7.82,8.75C4.71,932.09,25.82,932.09,38.72,917.63Z"/><path class="cls-4" d="M123.75,918.71l161.53-77.66c13.45-8.71,18.11-28.16,10.34-43.23l-43.83-85c-7.77-15.07-25.14-20.29-38.59-11.58l-173.07,96c-3.85,2.26,18.63,12.14,20.71,16.41,3.2,6.6-10.42-18.41-4-6l50.72,80.73C115.32,903.44,110.29,927.41,123.75,918.71Z"/><path class="cls-5" d="M242.37,701.49c-15.54,0-66.74,24.7-66.74,42.11l-17.36,38.62c0,17.4,30.07,62.79,45.61,62.79H306.21c15.54,0,28.26-14.24,28.26-31.65"/><path class="cls-7" d="M171.87,914.05l160.37,16.81c15.47,1.62,29.31-11.23,30.76-28.56l-23.19-75.23c1.44-17.33-21.91-25.29-37.38-26.91L166.28,777.73c-15.47-1.62-12.4,12.09-13.85,29.42l-6.05,72.44C144.93,896.92,156.4,912.42,171.87,914.05Z"/><polygon class="cls-8" points="123.57 919.76 180.97 865.94 166.28 777.73 67.51 825.57 123.57 919.76"/><polyline class="cls-18" points="69 825.67 -4.47 922.46 125 922.46"/><rect class="cls-1" x="4" y="-1" width="1600" height="900"/><rect class="cls-1" x="2" y="-2" width="1600" height="900"/></g></g></svg>